<svg width="30" height="46" viewBox="0 0 30 46" fill="none" xmlns="http://www.w3.org/2000/svg">
<path d="M19.9662 45.5113C21.8482 43.4325 22.7258 40.9458 22.96 38.2318C23.0946 36.6714 23.1131 35.0998 23.1276 33.5328C23.1299 33.2805 22.8645 32.827 22.6769 32.8024C20.5711 32.5265 19.4822 31.1279 18.9495 29.3594C18.3778 27.4615 18.1073 25.478 17.6768 23.538C17.2249 21.5014 16.7391 19.4719 16.272 17.4565C15.0078 19.2537 13.8872 20.9597 12.6495 22.5802C10.686 25.1507 8.55694 27.6036 6.66258 30.2202C5.10249 32.375 4.60021 34.829 4.93585 37.5155C5.20913 39.7028 6.16418 41.5805 7.04817 43.5694C6.84846 43.697 6.69899 43.7555 6.54952 43.8139C4.10123 41.7151 2.09551 39.2869 0.933124 36.2859C-0.376927 32.9037 -0.255169 29.4986 0.970656 26.1113C1.98747 23.3015 3.5703 20.8008 5.42974 18.4666C6.58401 17.0176 7.84936 15.6537 9.03332 14.2265C10.1481 12.8828 10.8621 11.3306 11.4066 9.69226C12.4367 6.59314 12.9299 3.40608 13.1771 0.0848521C13.3846 0.00478823 13.5146 0.00239476 13.6445 0C14.5844 0.842535 15.6783 1.57224 16.4295 2.55287C17.6976 4.20832 18.9016 5.947 19.8542 7.78832C21.2158 10.4204 22.0499 13.2569 22.4445 16.198C22.6844 17.9858 22.9158 19.7746 23.1531 21.7028C23.2341 21.9688 23.3129 22.0951 23.3917 22.2214C23.485 22.1098 23.5784 21.9981 23.6718 21.8865C24.8193 20.0845 24.5998 18.0884 24.5019 16.1187C24.4602 15.279 24.3123 14.4443 24.2901 13.5321C24.4976 13.4546 24.6276 13.4522 24.7576 13.4499C26.104 15.0346 27.1707 16.797 27.8583 18.7302C28.8586 21.5426 29.1015 24.4402 28.4598 27.382C28.2033 28.5578 27.9588 29.7372 27.7562 30.9227C27.6943 31.2853 27.7901 31.6737 27.8136 32.0503C27.9029 32.0853 27.9921 32.1203 28.0814 32.1553C28.511 31.7412 28.9406 31.327 29.4901 30.8914C29.74 30.871 29.87 30.872 30 30.8731C29.8352 34.1581 29.1287 37.3071 27.4532 40.1919C26.0516 42.6051 24.0838 44.4537 21.5041 45.646C21.1213 45.8229 20.6987 45.9174 20.22 46C20.0857 45.8037 20.0259 45.6575 19.9662 45.5113Z" fill="#861720"/>
</svg>
