<svg width="45" height="54" viewBox="0 0 45 54" fill="none" xmlns="http://www.w3.org/2000/svg">
<path d="M27.4662 49.5113C29.3482 47.4325 30.2258 44.9458 30.46 42.2318C30.5946 40.6714 30.6131 39.0998 30.6276 37.5328C30.6299 37.2805 30.3645 36.827 30.1769 36.8024C28.0711 36.5265 26.9822 35.1279 26.4495 33.3594C25.8778 31.4615 25.6073 29.478 25.1768 27.538C24.7249 25.5014 24.2391 23.4719 23.772 21.4565C22.5078 23.2537 21.3872 24.9597 20.1495 26.5802C18.186 29.1507 16.0569 31.6036 14.1626 34.2202C12.6025 36.375 12.1002 38.829 12.4359 41.5155C12.7091 43.7028 13.6642 45.5805 14.5482 47.5694C14.3485 47.697 14.199 47.7555 14.0495 47.8139C11.6012 45.7151 9.59551 43.2869 8.43312 40.2859C7.12307 36.9037 7.24483 33.4986 8.47066 30.1113C9.48747 27.3015 11.0703 24.8008 12.9297 22.4666C14.084 21.0176 15.3494 19.6537 16.5333 18.2265C17.6481 16.8828 18.3621 15.3306 18.9066 13.6923C19.9367 10.5931 20.4299 7.40608 20.6771 4.08485C20.8846 4.00479 21.0146 4.00239 21.1445 4C22.0844 4.84254 23.1783 5.57224 23.9295 6.55287C25.1976 8.20832 26.4016 9.947 27.3542 11.7883C28.7158 14.4204 29.5499 17.2569 29.9445 20.198C30.1844 21.9858 30.4158 23.7746 30.6531 25.7028C30.7341 25.9688 30.8129 26.0951 30.8917 26.2214C30.985 26.1098 31.0784 25.9981 31.1718 25.8865C32.3193 24.0845 32.0998 22.0884 32.0019 20.1187C31.9602 19.279 31.8123 18.4443 31.7901 17.5321C31.9976 17.4546 32.1276 17.4522 32.2576 17.4499C33.604 19.0346 34.6707 20.797 35.3583 22.7302C36.3586 25.5426 36.6015 28.4402 35.9598 31.382C35.7033 32.5578 35.4588 33.7372 35.2562 34.9227C35.1943 35.2853 35.2901 35.6737 35.3136 36.0503C35.4029 36.0853 35.4921 36.1203 35.5814 36.1553C36.011 35.7412 36.4406 35.327 36.9901 34.8914C37.24 34.871 37.37 34.872 37.5 34.8731C37.3352 38.1581 36.6287 41.3071 34.9532 44.1919C33.5516 46.6051 31.5838 48.4537 29.0041 49.646C28.6213 49.8229 28.1987 49.9174 27.72 50C27.5857 49.8037 27.5259 49.6575 27.4662 49.5113Z" fill="#FF8B00"/>
</svg>
