<svg width="60" height="60" viewBox="0 0 60 60" fill="none" xmlns="http://www.w3.org/2000/svg">
<path d="M37.241 55.7933C39.9883 53.4114 41.2693 50.5622 41.6112 47.4524C41.8077 45.6645 41.8346 43.8638 41.8558 42.0683C41.8592 41.7793 41.4718 41.2596 41.1979 41.2315C38.1241 40.9154 36.5345 39.3127 35.757 37.2865C34.9225 35.1118 34.5276 32.8392 33.8992 30.6162C33.2395 28.2827 32.5303 25.9574 31.8486 23.6481C30.0031 25.7073 28.3675 27.6621 26.5606 29.5188C23.6945 32.4641 20.5867 35.2747 17.8215 38.2727C15.5442 40.7417 14.811 43.5535 15.3009 46.6317C15.6998 49.138 17.0939 51.2894 18.3843 53.5682C18.0928 53.7145 17.8746 53.7815 17.6564 53.8484C14.0826 51.4436 11.1548 48.6613 9.45805 45.2228C7.54574 41.3475 7.72347 37.4459 9.51284 33.5647C10.9971 30.3454 13.3076 27.48 16.0219 24.8055C17.7068 23.1452 19.5538 21.5824 21.2821 19.9472C22.9094 18.4076 23.9515 16.6291 24.7464 14.7519C26.25 11.2009 26.9701 7.54916 27.3308 3.74371C27.6337 3.65197 27.8235 3.64923 28.0132 3.64648C29.3851 4.61186 30.982 5.44796 32.0785 6.57156C33.9295 8.46837 35.6871 10.4606 37.0776 12.5703C39.0652 15.5861 40.2826 18.8362 40.8587 22.2061C41.2088 24.2545 41.5466 26.3042 41.8931 28.5135C42.0113 28.8183 42.1263 28.963 42.2413 29.1077C42.3776 28.9798 42.5139 28.8519 42.6502 28.724C44.3253 26.6592 44.0049 24.3721 43.862 22.1153C43.801 21.1531 43.5851 20.1967 43.5528 19.1516C43.8557 19.0627 44.0454 19.06 44.2352 19.0573C46.2005 20.8731 47.7577 22.8925 48.7613 25.1075C50.2214 28.33 50.5761 31.65 49.6394 35.0207C49.265 36.368 48.908 37.7193 48.6123 39.0777C48.5219 39.4932 48.6617 39.9382 48.6961 40.3697C48.8264 40.4098 48.9567 40.4499 49.087 40.49C49.7141 40.0155 50.3412 39.5409 51.1433 39.0418C51.5081 39.0184 51.6979 39.0196 51.8876 39.0209C51.647 42.7848 50.6158 46.3929 48.17 49.6983C46.124 52.4633 43.2516 54.5815 39.4859 55.9476C38.9272 56.1503 38.3104 56.2586 37.6116 56.3532C37.4155 56.1284 37.3282 55.9608 37.241 55.7933Z" fill="#FF8B00"/>
</svg>
