<svg width="24" height="24" viewBox="0 0 24 24" fill="none" xmlns="http://www.w3.org/2000/svg">
<path d="M11.7408 9.00586C13.5865 9.00586 15.11 10.5293 15.11 12.375C15.11 14.25 13.5865 15.7441 11.7408 15.7441C9.86581 15.7441 8.37167 14.25 8.37167 12.375C8.37167 10.5293 9.86581 9.00586 11.7408 9.00586ZM11.7408 14.5723C12.942 14.5723 13.9088 13.6055 13.9088 12.375C13.9088 11.1738 12.942 10.207 11.7408 10.207C10.5103 10.207 9.54355 11.1738 9.54355 12.375C9.54355 13.6055 10.5396 14.5723 11.7408 14.5723ZM16.0182 8.88867C16.0182 9.32812 15.6666 9.67969 15.2271 9.67969C14.7877 9.67969 14.4361 9.32812 14.4361 8.88867C14.4361 8.44922 14.7877 8.09766 15.2271 8.09766C15.6666 8.09766 16.0182 8.44922 16.0182 8.88867ZM18.2447 9.67969C18.3033 10.7637 18.3033 14.0156 18.2447 15.0996C18.1861 16.1543 17.9517 17.0625 17.19 17.8535C16.4283 18.6152 15.4908 18.8496 14.4361 18.9082C13.3521 18.9668 10.1002 18.9668 9.0162 18.9082C7.96152 18.8496 7.05331 18.6152 6.2623 17.8535C5.50058 17.0625 5.2662 16.1543 5.20761 15.0996C5.14902 14.0156 5.14902 10.7637 5.20761 9.67969C5.2662 8.625 5.50058 7.6875 6.2623 6.92578C7.05331 6.16406 7.96152 5.92969 9.0162 5.87109C10.1002 5.8125 13.3521 5.8125 14.4361 5.87109C15.4908 5.92969 16.4283 6.16406 17.19 6.92578C17.9517 7.6875 18.1861 8.625 18.2447 9.67969ZM16.8385 16.2422C17.19 15.3926 17.1021 13.3418 17.1021 12.375C17.1021 11.4375 17.19 9.38672 16.8385 8.50781C16.6041 7.95117 16.1646 7.48242 15.608 7.27734C14.7291 6.92578 12.6783 7.01367 11.7408 7.01367C10.774 7.01367 8.72323 6.92578 7.87362 7.27734C7.28769 7.51172 6.84823 7.95117 6.61386 8.50781C6.2623 9.38672 6.35019 11.4375 6.35019 12.375C6.35019 13.3418 6.2623 15.3926 6.61386 16.2422C6.84823 16.8281 7.28769 17.2676 7.87362 17.502C8.72323 17.8535 10.774 17.7656 11.7408 17.7656C12.6783 17.7656 14.7291 17.8535 15.608 17.502C16.1646 17.2676 16.6334 16.8281 16.8385 16.2422Z" fill="white"/>
</svg>
