<svg width="176" height="70" viewBox="0 0 176 70" fill="none" xmlns="http://www.w3.org/2000/svg">
<path d="M172.576 50.185C173.459 50.185 174.294 50.1896 175.13 50.1837C175.96 50.1779 175.938 50.3876 175.962 50.9946C176.023 52.5389 175.998 54.0874 175.975 55.6337C175.965 56.3291 175.72 56.5288 175.021 56.531C174.043 56.534 173.066 56.5354 172.088 56.5305C171.407 56.5271 171.165 56.2827 171.157 55.6044C171.153 55.2422 171.156 54.88 171.156 54.4828C170.126 54.4828 169.111 54.4828 168.065 54.4828C168.065 55.5192 168.065 56.5665 168.065 57.6685C169.069 57.6685 170.072 57.6608 171.075 57.6729C171.399 57.6768 171.738 57.6858 172.04 57.7849C172.191 57.8345 172.365 58.0891 172.371 58.2567C172.403 59.1551 172.409 60.0561 172.377 60.9546C172.36 61.4532 171.916 61.4433 171.574 61.4502C170.565 61.4708 169.556 61.4576 168.547 61.4576C168.393 61.4576 168.238 61.4576 168.059 61.4576C168.059 62.6356 168.059 63.7775 168.059 64.941C169.081 64.941 170.084 64.941 171.156 64.941C171.156 64.5742 171.164 64.2028 171.155 63.8317C171.136 63.0534 171.392 62.9191 172.014 62.8984C173.139 62.8609 174.268 62.9567 175.396 62.9658C175.978 62.9704 175.958 63.4339 175.966 63.7514C176.003 65.2813 176.002 66.8131 175.974 68.3434C175.96 69.0738 175.749 69.2252 174.993 69.2252C170.752 69.2253 166.511 69.2254 162.27 69.2251C161.58 69.2251 161.415 69.0651 161.411 68.3782C161.406 67.6049 161.404 66.8315 161.411 66.0582C161.417 65.4197 161.591 65.2494 162.211 65.2469C162.524 65.2457 162.837 65.2467 163.179 65.2467C163.179 61.5508 163.179 57.8833 163.179 54.1635C162.817 54.1635 162.46 54.1688 162.102 54.1622C161.623 54.1534 161.416 53.9558 161.412 53.4828C161.404 52.6148 161.405 51.7467 161.412 50.8788C161.416 50.3707 161.613 50.1854 162.123 50.1853C165.592 50.1847 169.06 50.185 172.576 50.185Z" fill="white"/>
<path d="M8.13004 50.7266C8.40638 50.9019 8.65725 51.0522 8.95051 51.2279C8.89234 50.7506 9.22252 50.5902 9.5335 50.5845C10.3921 50.5686 11.2519 50.6358 12.1116 50.6512C12.4571 50.6574 12.5482 50.8879 12.5505 51.1399C12.5645 52.6393 12.566 54.1391 12.5506 55.6386C12.5474 55.9515 12.3521 56.1525 12.0089 56.1525C10.9523 56.1524 9.89499 56.1742 8.84002 56.1338C8.63216 56.1259 8.39258 55.9123 8.24203 55.7314C8.09096 55.55 8.04604 55.284 7.93152 55.0673C7.60183 54.4434 6.98724 54.1507 6.26819 54.26C5.56065 54.3676 4.86482 54.9792 4.81035 55.6304C4.75113 56.3383 4.93154 56.917 5.66932 57.2366C6.77815 57.7168 7.9374 58.0787 9.06346 58.521C10.8789 59.2339 12.4623 60.2457 12.9506 62.2883C13.4352 64.3158 13.1452 66.2316 11.7622 67.8913C10.2928 69.6547 8.3372 70.1809 6.17123 69.9477C5.38233 69.8628 4.63324 69.4073 3.87291 69.1235C3.87877 69.5345 3.47614 69.6806 3.04701 69.6853C2.26644 69.6938 1.4849 69.6097 0.704238 69.6168C0.189479 69.6215 0.0836713 69.2779 0.0779931 68.9252C0.0528387 67.3629 0.0578527 65.7998 0.073387 64.2372C0.0773603 63.8375 0.235687 63.5036 0.722431 63.499C1.72633 63.4895 2.73093 63.4579 3.73394 63.4845C4.36584 63.5012 4.47268 64.0602 4.59996 64.525C4.81672 65.3168 5.31221 65.8252 6.01964 65.9089C7.00637 66.0255 7.83947 65.6381 8.19497 64.8973C8.55131 64.1548 8.37203 63.3348 7.63667 62.9461C6.81353 62.5109 5.94043 62.1535 5.05897 61.8498C3.59914 61.3468 2.27775 60.6492 1.25166 59.4685C0.599686 58.7182 0.196304 57.8586 0.0603426 56.8602C-0.171483 55.1579 0.2702 53.6554 1.2899 52.2952C2.07821 51.2437 3.13592 50.5755 4.39033 50.3144C5.64465 50.0533 6.92536 50.0144 8.13004 50.7266Z" fill="white"/>
<path d="M90.6221 25.166C91.6317 24.024 92.1025 22.6579 92.2281 21.1669C92.3003 20.3097 92.3102 19.4464 92.318 18.5855C92.3193 18.4469 92.1769 18.1978 92.0762 18.1843C90.9466 18.0327 90.3624 17.2643 90.0767 16.2928C89.77 15.2502 89.6249 14.1606 89.3939 13.0948C89.1515 11.976 88.8909 10.8611 88.6403 9.75388C87.9621 10.7412 87.361 11.6784 86.697 12.5686C85.6437 13.9807 84.5015 15.3283 83.4853 16.7657C82.6484 17.9495 82.3789 19.2976 82.559 20.7735C82.7056 21.9751 83.2179 23.0066 83.6921 24.0992C83.585 24.1693 83.5048 24.2014 83.4246 24.2335C82.1113 23.0805 81.0353 21.7466 80.4117 20.0979C79.7089 18.2399 79.7742 16.3693 80.4318 14.5085C80.9773 12.9649 81.8264 11.5911 82.8239 10.3088C83.4432 9.51278 84.122 8.7635 84.7571 7.97951C85.3551 7.24131 85.7381 6.38861 86.0303 5.48857C86.5828 3.78605 86.8474 2.03521 86.98 0.210677C87.0913 0.166693 87.1611 0.165378 87.2308 0.164062C87.735 0.626914 88.3218 1.02778 88.7248 1.5665C89.4051 2.47593 90.051 3.43108 90.562 4.44262C91.2925 5.88855 91.7399 7.44684 91.9516 9.06251C92.0802 10.0446 92.2044 11.0274 92.3317 12.0866C92.3752 12.2328 92.4174 12.3021 92.4597 12.3715C92.5098 12.3102 92.5599 12.2489 92.6099 12.1876C93.2256 11.1976 93.1078 10.101 93.0553 9.01897C93.0329 8.55766 92.9535 8.09913 92.9417 7.59803C93.053 7.55542 93.1227 7.55412 93.1924 7.55283C93.9147 8.4234 94.487 9.39162 94.8558 10.4536C95.3924 11.9986 95.5228 13.5904 95.1785 15.2065C95.0409 15.8525 94.9097 16.5004 94.8011 17.1516C94.7678 17.3509 94.8192 17.5642 94.8319 17.7711C94.8797 17.7903 94.9276 17.8096 94.9755 17.8288C95.206 17.6013 95.4364 17.3738 95.7312 17.1344C95.8653 17.1232 95.935 17.1238 96.0048 17.1244C95.9163 18.929 95.5374 20.6589 94.6385 22.2437C93.8866 23.5694 92.831 24.585 91.4471 25.24C91.2417 25.3371 91.0151 25.3891 90.7582 25.4345C90.6862 25.3266 90.6541 25.2463 90.6221 25.166Z" fill="white"/>
<path d="M153.898 57.8831C154.78 58.4138 155.492 59.0383 155.936 59.9703C157.02 62.2497 156.185 65.4562 153.738 66.7144C152.214 67.4984 150.637 67.6213 149.042 66.9175C148.792 66.8077 148.574 66.628 148.288 66.4465C148.303 66.9944 147.988 67.0706 147.56 67.0535C146.93 67.0283 146.298 67.0381 145.668 67.0501C145.244 67.0581 145.034 66.8853 145.036 66.4469C145.043 65.0734 145.041 63.6999 145.037 62.3264C145.036 61.9155 145.232 61.7366 145.636 61.7402C146.425 61.7472 147.213 61.7422 148.002 61.7423C148.589 61.7423 148.799 61.8759 148.911 62.4427C149.21 63.9625 150.771 64.1945 151.744 63.3929C152.36 62.885 152.457 61.6876 151.65 61.2831C150.763 60.8383 149.825 60.4879 148.893 60.1395C147.376 59.5722 146.129 58.6928 145.385 57.2118C144.861 56.1673 144.832 55.0716 145.131 53.9587C145.468 52.7047 146.097 51.6281 147.227 50.9509C149.023 49.8738 150.839 49.8196 152.655 51.0398C152.709 50.6326 152.972 50.5445 153.344 50.5579C153.99 50.5812 154.637 50.5747 155.284 50.5604C155.656 50.5522 155.833 50.6872 155.83 51.079C155.82 52.3419 155.814 53.6051 155.833 54.8678C155.839 55.2491 155.641 55.3842 155.331 55.3896C154.433 55.4052 153.533 55.3973 152.634 55.3942C152.276 55.3929 152.145 55.1316 152.039 54.8489C151.818 54.2568 151.519 53.7853 150.792 53.7148C150.257 53.6628 149.393 54.0765 149.229 54.5791C149.005 55.2674 149.218 56.0201 149.845 56.2738C150.655 56.6014 151.483 56.8837 152.297 57.2012C152.826 57.4076 153.345 57.642 153.898 57.8831Z" fill="white"/>
<path d="M94.6929 50.1857C94.8974 50.1857 95.0593 50.209 95.212 50.1812C95.6343 50.1044 95.8775 50.271 95.8943 50.6937C95.918 51.2908 95.9336 51.8909 95.9001 52.4867C95.8838 52.7759 95.7268 53.0079 95.3429 52.9401C95.1173 52.9003 94.879 52.9328 94.6243 52.9328C94.6243 53.6622 94.6243 54.3515 94.6243 55.0762C95.9161 55.0762 97.215 55.0762 98.5451 55.0762C98.5451 54.3869 98.5451 53.6865 98.5451 52.9546C98.4715 52.9475 98.3977 52.9347 98.3237 52.9339C97.3362 52.9231 97.4466 53.0717 97.4409 52.0543C97.4383 51.5807 97.458 51.1062 97.4345 50.6337C97.4178 50.2988 97.5732 50.186 97.8713 50.186C99.5431 50.186 101.215 50.1822 102.886 50.1947C102.994 50.1955 103.191 50.3181 103.194 50.3901C103.222 51.1008 103.21 51.813 103.225 52.5244C103.232 52.8762 103.02 52.9343 102.743 52.933C102.509 52.9319 102.274 52.9328 102.011 52.9328C102.011 55.4921 102.011 58.0242 102.011 60.6058C102.171 60.6058 102.326 60.6223 102.475 60.6027C102.974 60.5377 103.267 60.7694 103.285 61.2484C103.305 61.8071 103.221 62.3691 103.232 62.9289C103.24 63.3996 102.898 63.4329 102.612 63.437C101.082 63.4588 99.5522 63.4559 98.0225 63.4409C97.6488 63.4372 97.3835 63.2976 97.4294 62.8132C97.4784 62.2968 97.4398 61.7722 97.4406 61.2513C97.4417 60.6495 97.4844 60.6075 98.0886 60.6058C98.261 60.6054 98.4334 60.6058 98.6382 60.6058C98.6382 59.8236 98.6382 59.0596 98.6382 58.2664C97.3113 58.2664 95.9809 58.2664 94.626 58.2664C94.626 59.0392 94.626 59.8029 94.626 60.6058C94.7851 60.6058 94.9231 60.6052 95.0612 60.6059C95.7707 60.6094 95.9337 60.7653 95.9224 61.4959C95.9144 62.0095 95.89 62.5252 95.8247 63.0338C95.8094 63.153 95.6002 63.3376 95.4783 63.3391C93.7911 63.3593 92.1034 63.3497 90.416 63.3559C90.1499 63.3568 90.0519 63.2502 90.0563 62.989C90.0663 62.3892 90.0752 61.7886 90.054 61.1894C90.0391 60.7675 90.1937 60.5684 90.6278 60.603C90.8289 60.6191 91.0324 60.6058 91.262 60.6058C91.262 58.0439 91.262 55.512 91.262 52.9857C91.2236 52.9665 91.1974 52.9423 91.1704 52.9414C90.0594 52.904 90.0594 52.9043 90.0594 51.7617C90.0594 51.4144 90.083 51.065 90.0533 50.7202C90.0182 50.3129 90.1488 50.1679 90.5774 50.1761C91.9332 50.2021 93.2898 50.1857 94.6929 50.1857Z" fill="white"/>
<path d="M20.5871 55.8766C19.7348 55.905 18.9216 55.9583 18.1124 55.9223C17.9564 55.9154 17.6924 55.5612 17.6879 55.3624C17.6526 53.8004 17.6654 52.2371 17.6709 50.6742C17.672 50.3571 17.8632 50.2022 18.1716 50.1864C18.266 50.1816 18.3608 50.1854 18.4554 50.1854C22.5399 50.1854 26.6244 50.1873 30.7089 50.1836C31.4375 50.1829 31.5032 50.3371 31.4922 50.9536C31.4662 52.4055 31.4706 53.8584 31.4915 55.3105C31.4983 55.7832 31.2677 55.9532 30.8567 55.9605C30.2104 55.9721 29.5635 55.972 28.9171 55.9608C28.4629 55.953 28.2695 55.7461 28.2671 55.3014C28.2644 54.8146 28.2665 54.3278 28.2665 53.8132C27.7262 53.8132 27.216 53.8132 26.6817 53.8132C26.6817 56.9442 26.6817 60.0643 26.6817 63.2578C26.9458 63.2578 27.2215 63.2576 27.4973 63.2578C28.0617 63.2584 28.2407 63.3976 28.2603 63.9467C28.2846 64.6246 28.2845 65.3048 28.2603 65.9827C28.2412 66.5168 28.0589 66.6676 27.541 66.6677C25.5539 66.6684 23.5669 66.6688 21.5798 66.6675C21.0252 66.6671 20.896 66.5467 20.8878 65.9875C20.8778 65.3088 20.8798 64.6298 20.8873 63.951C20.8929 63.443 21.089 63.2596 21.5998 63.258C21.8806 63.257 22.1613 63.2578 22.4679 63.2578C22.4679 60.0924 22.4679 56.9609 22.4679 53.8072C21.9848 53.8072 21.5171 53.8072 20.98 53.8072C20.98 54.2821 21.0157 54.7682 20.964 55.2448C20.9404 55.4629 20.7451 55.6624 20.5871 55.8766Z" fill="white"/>
<path d="M73.4071 63.3526C72.1748 63.3526 72.1748 63.3526 72.1748 62.1609C72.1748 61.861 72.1724 61.561 72.1753 61.2611C72.1805 60.7323 72.3052 60.6109 72.8429 60.6058C73.0136 60.6041 73.1842 60.6055 73.3793 60.6055C73.3793 58.0402 73.3793 55.5082 73.3793 52.9325C73.0991 52.9325 72.8349 52.922 72.5718 52.9354C72.2987 52.9492 72.1641 52.8617 72.1706 52.5617C72.1846 51.9147 72.1478 51.2653 72.1947 50.6214C72.206 50.4669 72.4614 50.2071 72.6082 50.2045C74.2794 50.1749 75.9513 50.1862 77.6229 50.1853C77.9716 50.1852 78.0265 50.4485 78.0348 50.6946C78.0552 51.2938 78.0706 51.8966 78.022 52.4925C78.0092 52.6492 77.779 52.8586 77.6068 52.9144C77.381 52.9875 77.1138 52.9323 76.8381 52.9323C76.8381 53.9139 76.8381 54.8633 76.8381 55.7936C77.7751 54.8481 78.7128 53.9018 79.6519 52.954C79.5762 52.9491 79.4184 52.9849 79.3272 52.9228C79.1617 52.8101 78.9254 52.6478 78.9132 52.491C78.8653 51.879 78.8957 51.2611 78.8926 50.6454C78.8911 50.3352 79.0354 50.1843 79.3484 50.1847C81.0359 50.1866 82.7234 50.1939 84.4107 50.1797C84.8251 50.1762 84.822 50.503 84.8384 50.721C84.8822 51.3018 84.8716 51.8889 84.8465 52.4719C84.8343 52.7558 84.7007 52.9711 84.3396 52.9416C84.2023 52.9304 84.0193 52.9815 83.9203 53.0728C82.6204 54.2714 81.3318 55.4823 80.179 56.5604C80.756 57.225 81.321 57.9136 81.9283 58.5624C82.3663 59.0304 82.8495 59.4582 83.3333 59.88C83.7188 60.2161 84.028 60.6755 84.6615 60.6363C84.8033 60.6275 85.08 60.9432 85.0978 61.1286C85.1549 61.7214 85.1481 62.325 85.1096 62.9209C85.0851 63.3012 84.7783 63.4443 84.425 63.4452C82.7849 63.4495 81.1447 63.4506 79.5046 63.4447C79.0764 63.4431 78.857 63.2419 78.8873 62.7778C78.916 62.3376 78.8934 61.8941 78.8935 61.4521C78.8936 60.69 78.9438 60.6359 79.7683 60.5806C78.7939 59.5936 77.8525 58.6399 76.8482 57.6226C76.8482 58.6575 76.8482 59.6038 76.8482 60.5577C77.1438 60.6027 77.4516 60.6254 77.7435 60.7058C77.8598 60.7378 78.0267 60.8992 78.0246 60.9986C78.0077 61.7742 78.156 62.5615 77.9155 63.3526C76.415 63.3526 74.9345 63.3526 73.4071 63.3526Z" fill="white"/>
<path d="M132.479 61.0784C133.611 61.2054 134.365 60.4312 134.354 59.4655C134.329 57.3745 134.346 55.2829 134.346 53.127C134.398 53.1711 134.376 53.1364 134.352 53.1347C133.399 53.0663 133.399 53.0667 133.399 52.0893C133.399 51.6473 133.399 51.2053 133.399 50.7633C133.398 50.3715 133.543 50.1712 133.985 50.1769C135.53 50.1971 137.076 50.2084 138.621 50.1713C139.128 50.1592 139.248 50.4115 139.261 50.8027C139.28 51.3862 139.264 51.9708 139.267 52.5548C139.268 52.9397 139.082 53.1266 138.698 53.1218C138.464 53.1189 138.23 53.1213 137.941 53.1213C137.941 53.3183 137.941 53.4863 137.941 53.6542C137.941 55.6591 137.948 57.664 137.939 59.6689C137.933 60.8646 137.602 61.9724 136.826 62.8874C136.065 63.7845 135.016 64.204 133.878 64.3894C132.632 64.5925 131.415 64.4906 130.223 64.033C128.636 63.4237 127.682 62.2415 127.565 60.6089C127.402 58.3205 127.469 56.0156 127.438 53.7177C127.435 53.5326 127.437 53.3474 127.437 53.1213C127.13 53.1213 126.865 53.1153 126.602 53.1228C126.271 53.1322 126.107 52.9904 126.11 52.6482C126.117 51.9853 126.117 51.3221 126.11 50.6592C126.107 50.3176 126.269 50.1817 126.6 50.1827C128.193 50.1874 129.786 50.1945 131.379 50.1784C131.813 50.1741 131.96 50.4137 131.973 50.7697C131.995 51.353 131.99 51.9379 131.975 52.5217C131.966 52.9137 131.798 53.1728 131.346 53.1233C131.225 53.1101 131.102 53.1213 130.939 53.1213C130.939 53.7731 130.939 54.3851 130.939 54.997C130.939 56.3862 130.927 57.7755 130.944 59.1645C130.951 59.7289 131.035 60.3045 131.536 60.6646C131.799 60.8541 132.134 60.9437 132.479 61.0784Z" fill="white"/>
<path d="M46.5242 59.4689C46.878 59.4992 47.1852 59.5492 47.4932 59.5547C47.8611 59.5612 47.9419 59.8055 47.9445 60.0821C47.9557 61.2814 47.9452 62.4808 47.9512 63.6802C47.9538 64.1941 47.5467 64.1616 47.2391 64.1944C46.8339 64.2376 46.4205 64.2053 46.0106 64.2053C43.3779 64.2053 40.7451 64.2056 38.1124 64.2051C37.3308 64.205 37.2565 64.1303 37.2564 63.3555C37.2564 62.8979 37.2716 62.4396 37.252 61.9827C37.2337 61.555 37.2841 61.232 37.8357 61.2533C38.0605 61.2619 38.2891 61.1747 38.551 61.1244C38.551 58.498 38.551 55.8394 38.551 53.1221C38.3091 53.1221 38.0627 53.1203 37.8164 53.1225C37.4603 53.1257 37.2585 52.9647 37.2573 52.5953C37.2551 51.9641 37.2462 51.3326 37.261 50.7017C37.2688 50.3653 37.41 50.176 37.8098 50.1777C41.0101 50.1918 44.2104 50.1908 47.4106 50.1791C47.8124 50.1776 47.9444 50.3776 47.9464 50.7161C47.9538 51.9154 47.9563 53.1149 47.9447 54.3142C47.9415 54.6511 47.793 54.8491 47.3929 54.8354C46.5898 54.808 45.785 54.818 44.9812 54.8313C44.6027 54.8375 44.4283 54.6892 44.4455 54.3034C44.4594 53.9913 44.4483 53.678 44.4483 53.3386C43.6853 53.3386 42.9544 53.3386 42.2002 53.3386C42.2002 54.1039 42.2002 54.8559 42.2002 55.6798C42.8288 55.6798 43.4676 55.6798 44.1064 55.6798C45.3828 55.6798 45.3946 55.6918 45.3945 56.9982C45.3945 57.2823 45.4129 57.5679 45.3895 57.85C45.3583 58.2242 45.2331 58.4662 44.7554 58.4397C43.9228 58.3936 43.0858 58.4269 42.2139 58.4269C42.2139 59.2654 42.2139 60.092 42.2139 60.9517C42.9285 60.9517 43.6595 60.9517 44.4483 60.9517C44.4483 60.616 44.4204 60.271 44.4621 59.9347C44.4787 59.801 44.6388 59.5921 44.7522 59.5791C45.3241 59.5131 45.9021 59.5003 46.5242 59.4689Z" fill="white"/>
<path d="M109.104 61.2321C108.06 59.7555 107.605 58.1466 107.759 56.3791C107.885 54.9371 108.44 53.6648 109.391 52.5774C110.354 51.4769 111.531 50.7052 112.967 50.3694C114.455 50.0217 115.937 50.0575 117.336 50.6841C118.073 51.0141 118.81 51.4399 119.401 51.9818C120.539 53.0255 121.27 54.3286 121.487 55.9051C121.671 57.247 121.543 58.5276 121.006 59.7692C120.257 61.5021 119.007 62.7487 117.264 63.4356C114.87 64.3786 112.587 64.068 110.494 62.5796C109.983 62.2161 109.577 61.7049 109.104 61.2321ZM116.456 54.0162C115.688 53.6135 114.912 53.4211 114.014 53.5772C112.116 53.9073 110.747 55.8182 111.182 57.7591C111.535 59.3357 112.594 60.3294 114.186 60.5778C115.579 60.795 116.755 60.1899 117.542 59.0661C118.695 57.4189 118.327 55.1634 116.456 54.0162Z" fill="white"/>
<path d="M62.9039 52.3527C63.5035 53.8401 64.1053 55.2879 64.6943 56.741C65.1847 57.951 65.6544 59.1694 66.1516 60.3766C66.1947 60.4813 66.366 60.5632 66.493 60.5955C66.6411 60.6332 66.8075 60.5911 66.9634 60.6076C67.3226 60.6455 67.5635 60.7845 67.5433 61.2163C67.5183 61.7516 67.5171 62.29 67.5437 62.8252C67.5651 63.2535 67.3338 63.4356 66.9728 63.4389C65.302 63.4542 63.631 63.4466 61.9601 63.445C61.6178 63.4447 61.4334 63.2147 61.4181 62.9245C61.3919 62.4279 61.4411 61.9276 61.4513 61.4286C61.4589 61.0555 61.6792 60.9647 62.002 60.9814C62.2005 60.9916 62.4 60.9833 62.6651 60.9833C62.5267 60.6011 62.4128 60.2865 62.2934 59.9567C61.1028 59.9567 59.9073 59.9567 58.6743 59.9567C58.5796 60.284 58.4825 60.6195 58.3837 60.9608C58.4483 60.9696 58.495 60.9827 58.5413 60.9813C59.757 60.9436 59.5844 61.0392 59.5876 62.0809C59.5915 63.3514 59.5885 63.3514 58.3248 63.3514C56.9692 63.3514 55.6133 63.3382 54.258 63.3596C53.8572 63.3659 53.6848 63.2709 53.7129 62.836C53.7484 62.286 53.7251 61.7319 53.7203 61.1797C53.717 60.7973 53.8972 60.5571 54.2786 60.6139C54.8918 60.7052 55.0819 60.3861 55.2861 59.8715C56.176 57.629 57.1226 55.4091 58.0462 53.18C58.0689 53.1253 58.0651 53.0597 58.0832 52.9313C57.8174 52.9313 57.5733 52.9205 57.3306 52.9342C57.0527 52.9499 56.9281 52.8509 56.9346 52.5556C56.9487 51.9248 56.9443 51.2933 56.9368 50.6622C56.9327 50.3227 57.0893 50.181 57.423 50.1822C58.7943 50.1873 60.1658 50.1914 61.5371 50.1797C61.9188 50.1765 62.1032 50.4082 62.2321 50.6969C62.47 51.2297 62.6793 51.7752 62.9039 52.3527ZM60.9058 55.4582C60.7757 55.0739 60.6456 54.6897 60.4873 54.2223C60.1471 55.3031 59.8384 56.2837 59.5283 57.2688C60.1933 57.2688 60.8117 57.2688 61.4607 57.2688C61.2725 56.6728 61.0929 56.1039 60.9058 55.4582Z" fill="white"/>
<path d="M91.3838 34.0818C91.3838 38.6092 91.3838 43.0892 91.3838 47.6269C90.4485 47.6269 89.54 47.6377 88.6325 47.611C88.537 47.6082 88.4001 47.3975 88.3633 47.2613C87.8468 45.3482 87.3444 43.4312 86.8374 41.5155C86.8307 41.4903 86.8081 41.4693 86.7637 41.4022C86.7637 43.4818 86.7637 45.5176 86.7637 47.5905C85.7841 47.5905 84.8322 47.5905 83.8467 47.5905C83.8467 42.5194 83.8467 37.4313 83.8467 32.3125C84.809 32.3125 85.7798 32.3125 86.7928 32.3125C87.3555 34.4238 87.9267 36.5671 88.4979 38.7105C88.5272 38.7096 88.5564 38.7087 88.5857 38.7078C88.5857 36.5899 88.5857 34.472 88.5857 32.3182C89.5416 32.3182 90.4304 32.3182 91.3838 32.3182C91.3838 32.8799 91.3838 33.4572 91.3838 34.0818Z" fill="white"/>
<path d="M46.388 32.2846C46.5267 32.6012 46.6527 32.9096 46.7132 33.2305C47.0017 34.7599 47.2749 36.2923 47.5487 37.8244C47.7793 39.1147 48.0206 40.4033 48.2262 41.6975C48.5267 43.5895 48.7999 45.4857 49.0825 47.3805C49.0916 47.4414 49.0773 47.5059 49.0722 47.598C48.0849 47.598 47.0997 47.598 46.0906 47.598C45.9408 46.5831 45.7904 45.5639 45.6368 44.5232C44.9819 44.5232 44.325 44.5232 43.6144 44.5232C43.4505 45.5388 43.2846 46.5669 43.1165 47.6086C42.1156 47.6086 41.1418 47.6086 40.0645 47.6086C40.9306 42.5056 41.7938 37.4197 42.6658 32.2822C43.8959 32.2822 45.1205 32.2822 46.388 32.2846ZM45.0158 40.4663C44.8916 39.6158 44.7673 38.7653 44.6431 37.9149C44.6225 37.9183 44.602 37.9216 44.5814 37.925C44.3829 39.2476 44.1844 40.5702 43.9828 41.9131C44.3912 41.9131 44.7908 41.9131 45.2425 41.9131C45.1631 41.4342 45.0899 40.9928 45.0158 40.4663Z" fill="white"/>
<path d="M141.158 43.1618C141.302 42.2516 141.44 41.3831 141.589 40.5167C141.82 39.1798 142.057 37.8439 142.295 36.5084C142.495 35.3857 142.702 34.2641 142.906 33.1421C142.955 32.869 143.007 32.5963 143.062 32.3037C144.342 32.3037 145.612 32.3037 146.926 32.3037C147.789 37.4019 148.652 42.4937 149.518 47.6125C148.47 47.6125 147.496 47.6125 146.46 47.6125C146.298 46.5884 146.135 45.5604 145.97 44.5195C145.285 44.5195 144.627 44.5195 143.948 44.5195C143.793 45.5394 143.639 46.558 143.481 47.6027C142.508 47.6027 141.523 47.6027 140.467 47.6027C140.7 46.1209 140.929 44.6627 141.158 43.1618ZM144.653 39.9717C144.545 40.6152 144.438 41.2587 144.327 41.9162C144.821 41.9162 145.206 41.9162 145.601 41.9162C145.403 40.6439 145.209 39.4006 145.016 38.1574C144.972 38.1605 144.928 38.1636 144.884 38.1668C144.809 38.7402 144.734 39.3137 144.653 39.9717Z" fill="white"/>
<path d="M58.8338 41.6157C58.8825 41.7675 58.9296 41.8792 58.975 41.9871C59.4604 38.7654 59.9455 35.5459 60.4336 32.3059C61.4441 32.3059 62.4314 32.3059 63.5039 32.3059C62.6392 37.409 61.7773 42.4954 60.912 47.6022C59.6187 47.6022 58.3484 47.6022 57.0017 47.6022C56.1367 42.5214 55.2706 37.4343 54.3975 32.3057C55.4907 32.3057 56.4762 32.3057 57.4565 32.3057C57.7573 34.2091 58.0662 36.0965 58.3506 37.9876C58.53 39.1808 58.6729 40.3794 58.8338 41.6157Z" fill="white"/>
<path d="M120.057 35.4101C120.057 36.0854 120.057 36.7137 120.057 37.3691C119.074 37.3691 118.122 37.3691 117.123 37.3691C117.123 36.6374 117.126 35.9164 117.122 35.1955C117.12 34.8249 116.991 34.5054 116.612 34.3967C116.27 34.2983 115.917 34.3301 115.674 34.6413C115.587 34.7526 115.521 34.9149 115.521 35.0542C115.512 38.1624 115.517 41.2706 115.512 44.3787C115.511 44.8191 115.797 45.0009 116.145 45.0562C116.52 45.116 116.911 45.0787 117.032 44.596C117.073 44.4332 117.117 44.2656 117.119 44.0996C117.129 43.4374 117.123 42.7749 117.123 42.0755C118.086 42.0755 119.038 42.0755 120.12 42.0755C120.05 43.2263 120.078 44.4054 119.882 45.5463C119.687 46.6846 118.789 47.2925 117.71 47.5066C116.577 47.7316 115.425 47.7415 114.306 47.3421C113.373 47.0094 112.6 46.0152 112.586 45.0226C112.541 41.7005 112.484 38.378 112.504 35.056C112.511 33.8454 112.852 32.6857 114.144 32.1868C115.697 31.5871 117.268 31.5602 118.765 32.3686C119.663 32.8542 119.972 33.7321 120.054 34.7008C120.072 34.9201 120.057 35.1423 120.057 35.4101Z" fill="white"/>
<path d="M26.4681 41.6594C26.4681 39.5125 26.4475 37.4127 26.4815 35.3138C26.4909 34.7357 26.5937 34.1368 26.7765 33.5885C27.1061 32.6002 27.9143 32.0999 28.8865 31.9159C29.8846 31.727 30.8948 31.7176 31.8942 31.9919C33.2291 32.3582 33.8838 33.2286 34.0187 34.4987C34.1179 35.4336 34.0381 36.3876 34.0381 37.3647C33.0641 37.3647 32.1123 37.3647 31.1049 37.3647C31.1049 36.6617 31.1111 35.957 31.103 35.2525C31.0963 34.6768 30.851 34.3891 30.3721 34.3654C29.7898 34.3366 29.497 34.6289 29.4968 35.2487C29.4956 38.248 29.496 41.2472 29.4965 44.2465C29.4965 44.7746 29.7701 45.0617 30.2768 45.0696C30.809 45.0778 31.0895 44.8077 31.1014 44.2304C31.116 43.5218 31.1049 42.8126 31.1049 42.0711C32.0774 42.0711 33.0292 42.0711 34.0522 42.0711C33.9141 43.3915 34.3159 44.746 33.6983 46.0333C33.2858 46.893 32.5515 47.3475 31.6769 47.5109C30.5575 47.72 29.4231 47.7419 28.316 47.3465C27.3399 46.9979 26.5901 45.9933 26.5622 44.9542C26.5331 43.8717 26.4996 42.7892 26.4681 41.6594Z" fill="white"/>
<path d="M104.059 38.627C104.324 38.627 104.543 38.627 104.792 38.627C104.792 39.4795 104.792 40.306 104.792 41.1806C103.709 41.1806 102.631 41.1806 101.531 41.1806C101.531 42.4855 101.531 43.7428 101.531 45.0481C102.795 45.0481 104.063 45.0481 105.36 45.0481C105.36 45.9218 105.36 46.7483 105.36 47.6006C103.077 47.6006 100.801 47.6006 98.5029 47.6006C98.5029 42.5042 98.5029 37.4264 98.5029 32.3145C100.776 32.3145 103.053 32.3145 105.36 32.3145C105.36 33.1333 105.36 33.9598 105.36 34.8343C104.087 34.8343 102.819 34.8343 101.531 34.8343C101.531 36.1076 101.531 37.3334 101.531 38.627C102.356 38.627 103.184 38.627 104.059 38.627Z" fill="white"/>
<path d="M73.414 41.1865C73.2121 41.1865 73.0561 41.1865 72.8685 41.1865C72.8685 42.4781 72.8685 43.7466 72.8685 45.0631C74.1353 45.0631 75.4031 45.0631 76.6933 45.0631C76.6933 45.9258 76.6933 46.7412 76.6933 47.5924C74.4562 47.5924 72.2112 47.5924 69.9346 47.5924C69.9346 42.515 69.9346 37.426 69.9346 32.3096C72.1801 32.3096 74.4251 32.3096 76.6933 32.3096C76.6933 33.1376 76.6933 33.953 76.6933 34.8163C75.4344 34.8163 74.1667 34.8163 72.868 34.8163C72.868 36.1006 72.868 37.3376 72.868 38.6226C73.9469 38.6226 75.0256 38.6226 76.126 38.6226C76.126 39.4853 76.126 40.3006 76.126 41.1865C75.2426 41.1865 74.3513 41.1865 73.414 41.1865Z" fill="white"/>
<path d="M129.141 45.259C129.141 40.9204 129.141 36.629 129.141 32.3096C130.123 32.3096 131.074 32.3096 132.05 32.3096C132.05 37.3983 132.05 42.4762 132.05 47.5906C131.11 47.5906 130.157 47.5906 129.141 47.5906C129.141 46.8397 129.141 46.0731 129.141 45.259Z" fill="white"/>
<path d="M83.4385 24.2642C83.5051 24.2023 83.5853 24.1702 83.6979 24.1348C83.8826 24.3347 84.0349 24.538 84.1872 24.7413C84.1629 24.7626 84.1386 24.784 84.1143 24.8053C83.8935 24.6349 83.6728 24.4644 83.4385 24.2642Z" fill="white"/>
<path d="M90.5929 25.1807C90.6546 25.2476 90.6867 25.3279 90.722 25.4406C90.5247 25.5447 90.3241 25.6163 90.1236 25.6879C90.1068 25.6537 90.09 25.6196 90.0732 25.5854C90.2366 25.455 90.3999 25.3245 90.5929 25.1807Z" fill="white"/>
<path d="M96.0115 17.0915C95.9351 17.1249 95.8653 17.1243 95.7607 17.1225C95.7943 17.0083 95.8626 16.8951 95.9888 16.6865C96.0036 16.8741 96.0109 16.9658 96.0115 17.0915Z" fill="white"/>
<path d="M93.1797 7.52388C93.1233 7.55472 93.0535 7.55602 92.9489 7.55734C92.8789 7.47488 92.8438 7.39241 92.8086 7.30993C92.8341 7.2906 92.8597 7.27128 92.8852 7.25195C92.9789 7.33275 93.0726 7.41354 93.1797 7.52388Z" fill="white"/>
<path d="M92.5799 12.1926C92.5604 12.2496 92.5103 12.311 92.4602 12.3723C92.418 12.3029 92.3757 12.2335 92.334 12.1289C92.4061 12.1281 92.4778 12.1624 92.5799 12.1926Z" fill="white"/>
<path d="M87.2174 0.134994C87.1612 0.165967 87.0915 0.167282 86.9869 0.16867C86.9609 0.112496 86.9698 0.056248 86.9788 0C87.0538 0.0351121 87.1289 0.0702238 87.2174 0.134994Z" fill="white"/>
</svg>
