<svg width="24" height="24" viewBox="0 0 24 24" fill="none" xmlns="http://www.w3.org/2000/svg">
<path d="M17.6348 9.32812C17.6348 9.47461 17.6348 9.5918 17.6348 9.73828C17.6348 13.8105 14.5586 18.4688 8.9043 18.4688C7.14648 18.4688 5.53516 17.9707 4.1875 17.0918C4.42188 17.1211 4.65625 17.1504 4.91992 17.1504C6.35547 17.1504 7.67383 16.6523 8.72852 15.832C7.38086 15.8027 6.23828 14.9238 5.85742 13.6934C6.0625 13.7227 6.23828 13.752 6.44336 13.752C6.70703 13.752 7 13.6934 7.23438 13.6348C5.82812 13.3418 4.77344 12.1113 4.77344 10.6172V10.5879C5.18359 10.8223 5.68164 10.9395 6.17969 10.9688C5.33008 10.4121 4.80273 9.47461 4.80273 8.41992C4.80273 7.83398 4.94922 7.30664 5.21289 6.86719C6.73633 8.71289 9.02148 9.94336 11.5703 10.0898C11.5117 9.85547 11.4824 9.62109 11.4824 9.38672C11.4824 7.6875 12.8594 6.31055 14.5586 6.31055C15.4375 6.31055 16.2285 6.66211 16.8145 7.27734C17.4883 7.13086 18.1621 6.86719 18.748 6.51562C18.5137 7.24805 18.0449 7.83398 17.4004 8.21484C18.0156 8.15625 18.6309 7.98047 19.1582 7.74609C18.748 8.36133 18.2207 8.88867 17.6348 9.32812Z" fill="white"/>
</svg>
