<svg width="54" height="93" viewBox="0 0 54 93" fill="none" xmlns="http://www.w3.org/2000/svg">
<g clip-path="url(#clip0_347_2209)">
<path fill-rule="evenodd" clip-rule="evenodd" d="M4.60313 32.4536C4.60313 32.1181 4.99905 32.2466 5.02026 31.9468C4.4688 32.1681 4.17894 32.6606 3.60627 32.8461C3.71939 33.4814 2.58821 34.188 1.95898 34.0452C3.00533 32.8319 4.43345 31.5257 6.04539 31.2545C7.06675 30.4985 8.12887 29.8004 9.22686 29.1632C9.22686 29.0419 9.04304 29.0705 8.92285 29.0562C10.5277 27.8785 11.3337 25.8729 12.3588 24.0957C12.5568 25.6588 10.1318 27.6002 9.93385 29.0919C9.59449 29.2203 8.80266 29.8913 9.22686 30.1054C9.05718 30.1696 8.56228 30.3338 8.51986 29.9912C7.07053 30.5622 5.9747 32.1181 4.60313 32.4536Z" fill="#F93600"/>
<path fill-rule="evenodd" clip-rule="evenodd" d="M6.23554 32.0752C5.79013 32.946 4.16405 33.0744 4.17112 34.0879C3.59139 34.2592 3.12478 34.973 2.62988 34.8802C3.52034 33.5959 4.77845 32.6171 6.23554 32.0752Z" fill="#F93600"/>
<path fill-rule="evenodd" clip-rule="evenodd" d="M18.7989 10.3709C19.5696 10.1211 20.2129 9.23606 20.9199 9.28603C20.2624 10.1068 19.004 10.5708 17.9435 11.2845C17.5193 11.57 17.1729 12.0625 16.6073 12.0839C17.1517 10.8063 18.601 10.478 19.2938 9.36454C17.3143 9.92125 15.9781 12.0054 13.9561 12.8547C15.8367 11.5129 17.2648 9.70713 19.711 8.96484C19.8594 9.88557 19.0464 9.8356 18.7989 10.3709Z" fill="#F93600"/>
<path fill-rule="evenodd" clip-rule="evenodd" d="M16.6218 64.3359C16.9404 64.3922 17.2683 64.326 17.5409 64.1504C17.2873 64.4771 16.9661 64.7441 16.5998 64.9327C16.2335 65.1213 15.8308 65.227 15.4199 65.2424C15.9219 64.1575 17.1026 63.6793 17.9934 63.0369C18.87 62.3032 19.7986 61.6353 20.7718 61.0385C23.0639 59.1907 25.4676 57.4887 27.969 55.9424C27.3044 57.0059 25.9541 57.6411 24.7805 58.4476C23.5889 59.1933 22.4545 60.0283 21.3869 60.9457C21.6909 61.1884 21.896 60.6245 22.405 60.7601C22.0091 61.3882 21.3374 61.2026 20.7718 61.4738C19.1882 62.0948 18.1065 63.6079 16.6218 64.3359Z" fill="#F93600"/>
<path fill-rule="evenodd" clip-rule="evenodd" d="M18.1484 12.9263C18.8554 11.4988 20.4886 10.992 21.6834 10.0142C21.9521 9.79295 21.3723 9.67161 21.6834 9.40039C24.2215 9.71444 26.4627 9.40039 29.0856 9.74298C27.5514 10.314 23.9953 9.60024 21.9803 9.92142C20.7753 11.0135 19.4947 12.0177 18.1484 12.9263Z" fill="#F93600"/>
<path fill-rule="evenodd" clip-rule="evenodd" d="M19.6621 13.461C19.6621 13.3897 19.6621 13.3254 19.6621 13.2541C20.3786 12.3511 21.4013 11.7483 22.5325 11.5625C21.4579 12.0764 20.7862 13.0042 19.6621 13.461Z" fill="#F93600"/>
<path fill-rule="evenodd" clip-rule="evenodd" d="M19.7959 50.9745C19.7959 50.8699 19.7959 50.7676 19.7959 50.6676C21.4856 49.854 23.0693 48.3979 24.4196 47.5771C23.8257 48.5621 22.334 49.5042 21.125 50.1823C21.125 50.3108 21.429 50.325 21.429 50.1823C21.4503 50.6105 20.5029 50.9032 19.7959 50.9745Z" fill="#F93600"/>
<path fill-rule="evenodd" clip-rule="evenodd" d="M20.7432 15.2243C20.8916 13.8896 22.2278 13.7968 22.9136 13.0117C22.3808 13.9178 21.6355 14.6777 20.7432 15.2243Z" fill="#F93600"/>
<path fill-rule="evenodd" clip-rule="evenodd" d="M21.1455 66.9837C21.1809 66.7053 21.5768 66.8052 21.6616 66.584C21.9939 66.8409 21.4142 67.0122 21.1455 66.9837Z" fill="#F93600"/>
<path fill-rule="evenodd" clip-rule="evenodd" d="M22.0303 22.8396C23.7353 20.032 25.6497 17.3596 27.7569 14.8457C27.8417 15.4738 27.1206 15.9306 26.7106 16.4659C25.4592 18.1218 24.2007 20.2416 22.8575 21.8261C22.8241 22.1083 22.7452 22.3831 22.6241 22.6397C22.3413 22.6326 22.2919 23.1036 22.0303 22.8396Z" fill="#F93600"/>
<path fill-rule="evenodd" clip-rule="evenodd" d="M22.1074 18.3221C22.878 17.073 23.5568 15.7383 24.7092 14.8818C23.7971 15.9881 23.3729 17.594 22.1074 18.3221Z" fill="#F93600"/>
<path fill-rule="evenodd" clip-rule="evenodd" d="M22.334 11.3628C23.041 10.649 25.7417 10.5634 26.3992 11.0273C25.4518 11.0916 23.246 11.2629 22.334 11.3628Z" fill="#F93600"/>
<path fill-rule="evenodd" clip-rule="evenodd" d="M25.9255 15.1172C25.2185 16.6018 23.5076 17.9721 22.8006 19.7779C22.7133 19.8447 22.6062 19.8799 22.4966 19.8778C22.4144 19.7569 22.3815 19.6086 22.4047 19.4638C23.5571 17.9721 24.6671 16.1878 25.9255 15.1172Z" fill="#F93600"/>
<path fill-rule="evenodd" clip-rule="evenodd" d="M27.5163 11.1484C27.6718 11.7765 26.5548 12.8471 26.3498 13.7893C26.2296 13.7893 26.1659 13.7893 26.1447 13.8892C25.8831 13.0256 26.9295 11.8051 27.5163 11.1484Z" fill="#F93600"/>
<path fill-rule="evenodd" clip-rule="evenodd" d="M29.5518 10.8766C29.5518 11.8901 28.0459 12.768 28.1802 13.9243C27.9903 14.2307 27.7514 14.5033 27.4732 14.7308C27.4076 14.7124 27.3511 14.6701 27.3146 14.6121C27.278 14.5541 27.264 14.4845 27.2753 14.4168C27.6688 13.4125 28.2362 12.4868 28.9508 11.6831C29.0922 11.3691 29.0639 10.8552 29.5518 10.8766Z" fill="#F93600"/>
<path fill-rule="evenodd" clip-rule="evenodd" d="M32.4301 31.4043C34.2188 32.3535 36.0357 33.26 36.1135 35.3655C36.1135 36.1149 35.6822 36.95 35.7671 37.8208C35.8236 38.3703 36.269 38.82 36.3468 39.3696C37.9163 39.0127 39.1748 38.4631 39.0334 36.7573C38.9556 35.6153 38.2628 34.3092 38.284 33.26C38.3405 30.0838 40.6877 28.5493 43.4521 27.8213C43.4945 28.4422 42.7451 28.6706 42.6108 29.3416C42.5301 29.9391 42.626 30.5475 42.8865 31.0902C43.0844 31.0474 43.1481 30.8761 43.3955 30.8975C43.544 31.2686 43.0491 30.9546 43.0844 31.1973C43.1269 31.8753 44.1025 31.7326 44.3924 31.911C44.5691 32.0395 44.6681 32.5034 44.9862 32.846C45.5236 33.4241 46.2235 34.0023 46.0609 35.3227C45.9972 35.9222 45.2478 36.4861 45.2478 37.1142C45.2561 37.2836 45.3017 37.4491 45.3812 37.5985C45.4608 37.748 45.5723 37.8777 45.7077 37.9782C45.8431 38.0786 45.999 38.1474 46.1641 38.1794C46.3291 38.2115 46.4991 38.206 46.6618 38.1633C48.0192 37.728 47.5173 36.1363 47.6445 34.4947C47.7718 32.8531 48.7757 31.7754 50.423 32.2893C49.9705 33.0673 49.1928 33.5026 49.4615 35.0372C49.5817 35.5082 49.8221 35.4797 50.1685 35.5653C50.2958 36.586 51.6885 37.314 51.738 38.4631C51.707 39.1603 51.4047 39.817 50.8967 40.2903C50.2887 39.6265 51.7804 38.8057 51.0381 37.935C50.119 38.4703 49.6241 39.4338 48.4646 39.7336C49.0373 38.8057 50.2604 38.5559 50.7341 37.521C50.4685 37.0859 50.1314 36.6997 49.7372 36.379C48.401 36.6502 47.1072 40.0405 45.2337 38.4488C44.8943 38.1633 44.9226 37.628 44.6469 37.107C44.8236 36.3933 45.4246 36.1149 45.4882 35.2798C44.0389 35.9508 42.6602 37.5781 41.1685 38.5845C40.9069 38.7486 40.7514 39.4052 40.3484 39.0841C41.4937 37.5353 43.9258 36.3433 45.3963 34.8016C45.4398 34.5551 45.4183 34.3013 45.3339 34.0657C45.2495 33.8302 45.1052 33.6212 44.9155 33.4598C42.9077 34.3805 41.3806 35.8437 39.6767 37.0285C39.5283 38.8914 38.2274 39.5409 36.5801 39.8406C34.3177 39.1269 36.0287 36.1863 35.258 34.2806C33.7875 35.7081 31.0161 36.8144 30.91 39.0198C32.0978 38.4203 33.2855 36.9214 34.7137 36.222C33.9077 37.364 32.0624 38.3132 31.002 39.5337C31.002 39.8478 31.306 39.9049 31.1928 40.3545C30.606 40.4544 30.8323 39.7693 30.3939 39.7264C29.8001 36.8715 33.3067 36.2148 33.2219 33.8381C33.1724 32.7675 32.4654 32.275 32.4301 31.4043ZM34.8268 33.7025C34.6288 33.7025 34.7066 33.4241 34.4238 33.4884C34.0073 34.0553 33.6563 34.6683 33.3774 35.3155C33.7592 34.6874 34.643 34.5661 34.8268 33.7168V33.7025ZM33.7027 33.988C33.837 33.6811 34.0067 33.4027 34.1269 33.0744C33.8794 32.9745 33.6461 32.3607 33.3209 32.6462C33.6956 32.8817 33.5047 33.6383 33.7097 34.0094L33.7027 33.988ZM42.3704 31.5827C42.3188 31.1623 42.224 30.7485 42.0876 30.3479C40.7796 30.9617 40.0514 32.1822 38.892 32.9531C38.892 33.3956 38.892 33.8381 38.892 34.2878C40.2989 33.6454 41.0059 32.3036 42.3774 31.6041L42.3704 31.5827ZM42.2078 29.1203C41.0342 30.1481 39.6626 30.9831 38.8991 32.4392C40.0727 31.4043 41.7977 30.6477 42.2219 29.1417L42.2078 29.1203ZM39.1606 34.8302C39.0263 35.2727 39.4081 36.065 39.4293 36.6788C41.1331 35.5082 42.7309 34.2235 44.5691 33.1886C43.6925 31.8325 42.6673 33.9023 41.8119 34.1664C41.2392 34.666 40.511 36.0435 39.7545 35.6653C41.1049 34.6446 42.3209 33.4812 43.6712 32.4534C43.2988 32.1701 42.8956 31.9306 42.4694 31.7397C41.3075 32.6959 40.2071 33.7258 39.1748 34.8231L39.1606 34.8302ZM41.8048 28.9347C40.6917 29.4096 39.7786 30.2632 39.2243 31.3472C40.2989 30.6905 40.8503 29.6199 41.8189 28.9276L41.8048 28.9347ZM49.412 35.8294C49.3201 35.7152 49.0373 35.7937 49.1151 35.5154C48.6456 35.9241 48.2878 36.4475 48.0758 37.0356C48.5636 36.6859 49.2353 36.5146 49.412 35.8294ZM48.196 35.8294C48.4719 35.6714 48.6899 35.4276 48.8173 35.1343C48.9447 34.8411 48.9748 34.514 48.903 34.2021C48.4222 34.509 47.8991 34.9301 48.1889 35.808L48.196 35.8294ZM49.2706 32.6747C48.9396 32.8144 48.6604 33.0557 48.4726 33.3644C48.2849 33.6731 48.198 34.0335 48.2243 34.3948C48.5778 33.8809 49.3201 33.2386 49.2635 32.6533L49.2706 32.6747Z" fill="#F93600"/>
<path fill-rule="evenodd" clip-rule="evenodd" d="M35.1161 34.8516C34.4091 36.2148 32.6345 36.5003 31.9134 37.8707C31.7508 37.8707 31.7437 37.7707 31.6094 37.7636C32.2174 36.6216 33.8576 35.6866 35.1161 34.8516Z" fill="#F93600"/>
<path fill-rule="evenodd" clip-rule="evenodd" d="M34.6432 37.6143C34.0549 38.3184 33.3963 38.9594 32.6778 39.5271C32.9181 39.7341 33.3848 39.263 33.7948 39.3415C33.1515 39.6056 32.7909 40.1694 31.9496 40.2265C31.9496 40.1052 31.9496 40.041 31.8506 40.0196C32.6353 39.1131 33.6605 37.9354 34.6432 37.6143Z" fill="#F93600"/>
<path fill-rule="evenodd" clip-rule="evenodd" d="M33.293 40.3542C33.5192 39.8475 34.9615 39.5477 34.6363 39.148C34.6787 38.8197 35.1948 38.9339 35.2443 39.148C34.7613 39.7769 34.0674 40.2059 33.293 40.3542Z" fill="#F93600"/>
<path fill-rule="evenodd" clip-rule="evenodd" d="M34.6068 29.1064C35.9077 29.2635 37.4348 30.5339 36.5864 31.8044C36.2682 31.7116 36.0915 31.4261 35.9784 31.8972C35.5612 31.6117 35.8582 31.5189 35.7875 31.2762C35.4623 30.2199 34.1331 30.2199 34.6068 29.1064ZM36.3955 31.2905C36.3955 30.9119 36.2465 30.5488 35.9814 30.2811C35.7162 30.0134 35.3565 29.863 34.9815 29.863C35.6673 30.12 35.7804 30.9479 36.3955 31.2905Z" fill="#F93600"/>
<path fill-rule="evenodd" clip-rule="evenodd" d="M39.5205 38.0061C41.0345 36.7564 42.6133 35.5889 44.2503 34.5088C43.3029 35.8221 41.2102 36.8213 39.9235 38.1203C39.7114 38.156 39.6619 38.0418 39.5205 38.0061Z" fill="#F93600"/>
<path fill-rule="evenodd" clip-rule="evenodd" d="M41.3242 39.6764C42.0312 38.6344 43.2614 38.0848 44.1098 37.1641C43.7633 38.2347 42.4978 39.1483 41.3242 39.6764Z" fill="#F93600"/>
<path fill-rule="evenodd" clip-rule="evenodd" d="M41.7832 53.7306C41.7832 53.3167 42.4195 53.6307 42.7023 53.5451C42.6599 53.8805 42.1084 53.6878 41.7832 53.7306Z" fill="#F93600"/>
<path fill-rule="evenodd" clip-rule="evenodd" d="M48.153 49.1264C47.9126 48.9479 48.2166 48.0843 48.4711 48.4126C48.153 48.6053 48.2661 48.9265 48.153 49.1264Z" fill="#F93600"/>
<path fill-rule="evenodd" clip-rule="evenodd" d="M48.1816 53.5303C48.5351 53.88 48.3372 54.1869 48.4644 54.6651C48.0756 54.5438 48.217 53.9657 48.1816 53.5303Z" fill="#F93600"/>
<path fill-rule="evenodd" clip-rule="evenodd" d="M14.3661 36.9359C15.0095 37.0501 16.07 36.1508 16.8123 36.3649C14.0762 37.8495 10.9938 38.9701 8.3284 40.5117C8.21146 41.4969 8.1595 42.4888 8.17286 43.4809C13.8571 43.3239 20.5028 42.2604 26.9647 42.1105C32.9317 41.9464 38.9341 41.4753 44.6395 41.097C47.5381 41.3682 51.0024 41.3397 53.4627 41.668C54.099 42.7672 54.2333 44.6586 53.4627 45.565C53.2082 45.565 53.2294 45.1796 53.3708 45.0511C52.9113 45.2081 53.1517 45.7648 52.2467 45.6435C51.9286 49.0909 51.6245 52.5953 51.1509 55.7643C50.8044 58.0911 49.7369 59.9896 49.3198 61.774C47.5452 63.2514 46.407 65.4069 44.5617 66.813C45.099 70.7813 46.4989 74.9924 47.6937 79.0678C48.8885 83.1433 49.8147 87.4757 51.0307 91.2014C49.7166 91.7913 48.3478 92.2479 46.9443 92.5646C46.2797 92.479 47.0432 91.6082 46.5625 91.3298C46.2938 91.3727 46.8029 92.0436 46.4494 92.1506C46.0959 92.2577 45.6646 91.2371 45.5586 90.9016C45.0142 89.153 44.8516 87.1902 44.3355 85.3487C42.8225 79.9886 41.4156 74.3429 39.7542 69.1754C34.7345 70.7956 27.5515 70.4744 22.2844 69.6822C22.0652 70.4816 22.0228 71.2025 21.733 72.0304C21.6128 72.3658 21.2027 72.7441 21.1037 73.0439C20.9553 73.5221 21.026 74.143 20.8704 74.6784C19.9231 77.9401 18.6081 82.5295 17.7314 85.6913C17.4415 86.7334 18.297 87.2044 18.403 88.0609C18.4384 88.3464 18.1273 88.9888 18.0707 89.5955C17.9859 90.5019 17.9647 91.2442 17.5264 91.7367C16.1124 93.3355 12.3158 93.6067 10.5271 91.6082C8.56878 89.4242 9.31112 85.1275 12.8744 84.9919C14.2883 79.546 15.5326 73.4436 16.5295 67.9478C13.0201 65.8294 10.2182 62.7001 8.48394 58.9619C8.10948 57.8463 7.79093 56.7124 7.5295 55.5645C6.74474 53.1235 5.65597 50.6754 5.84686 48.1559C5.01968 47.9917 5.09745 48.2487 4.52478 48.4414C4.4753 47.7276 4.24906 47.1638 4.15008 46.4857C3.71881 46.9711 4.7086 47.7562 4.02282 47.9132C3.18857 47.849 4.02282 45.9147 3.15322 45.5436C3.74002 45.1724 3.38653 44.5372 3.48551 44.0091C4.1925 43.9377 3.9097 44.8655 4.1925 45.251C4.2998 45.1523 4.37998 45.0273 4.42527 44.8881C4.47055 44.7488 4.47939 44.6002 4.45093 44.4565C4.42246 44.3128 4.35766 44.179 4.26282 44.0681C4.16799 43.9572 4.04634 43.8729 3.9097 43.8235C3.81779 43.4523 4.34804 43.7307 4.42581 43.5237C4.30234 43.2236 4.20534 42.9131 4.13594 42.5959C3.66226 42.8742 3.08252 42.0962 2.94112 41.4467C2.23413 41.3682 2.64419 42.3889 2.23413 42.5602C1.95841 41.9963 2.50279 41.4753 2.6654 41.0328C1.71096 39.9122 2.27655 38.549 2.93405 37.3499C0.176788 33.5457 -1.2584 26.08 1.45644 21.1266C1.70389 20.884 1.21607 20.8483 1.36453 20.4129C2.67954 18.3431 3.94505 16.2233 5.83272 14.753C5.72667 14.4817 5.30248 14.5317 5.23178 14.2319C4.68032 12.4547 2.92698 11.8409 2.77145 9.67828C3.09666 9.39279 3.05424 10.0708 3.37239 10.0994C2.78559 8.02241 4.41167 5.90975 5.90342 4.91765C7.06995 4.13254 8.8445 3.29033 10.513 2.43384C12.7143 1.3195 15.0508 0.501253 17.4627 0C18.5374 0.171297 19.3504 0.992095 20.2907 0.970683C21.3583 2.7122 22.2985 4.58933 23.2318 6.42364C26.7667 6.12387 28.8877 6.63776 31.956 6.88757C32.0055 7.11596 31.7581 7.03031 31.744 7.19447C33.2781 7.4086 34.9749 7.47283 35.7809 8.39355C39.8744 9.36424 41.6701 13.7823 43.6497 16.8371C43.8547 17.0655 43.9396 16.7942 44.2577 16.8371C43.8901 17.7221 44.5758 18.0576 45.2475 18.2645C45.3889 18.6571 44.9647 18.4573 45.0354 18.7713C45.7424 18.8641 45.0354 18.0576 45.5586 17.8577C46.2656 18.1075 46.2161 18.9569 46.4423 19.4137C46.8213 19.968 47.1502 20.5557 47.425 21.1695C47.425 21.6191 47.0645 21.1695 46.916 21.1695C42.0024 24.3099 36.4172 26.5011 30.938 29.1776C26.9293 31.1404 22.7722 32.9033 18.6575 34.8875C17.2436 35.6012 15.6952 36.1579 14.4651 36.8645L14.3661 36.9359ZM6.08017 29.2061C5.81151 29.5487 5.49336 29.8485 5.25299 30.2125C6.16421 29.6984 7.02372 29.096 7.81937 28.4139C7.6709 28.3568 7.29619 28.5281 7.3174 28.2997C9.198 27.586 9.40303 25.1949 11.0432 24.2671C10.1454 25.459 9.20507 27.0292 8.3284 28.421C7.95884 29.1193 7.37969 29.6815 6.67404 30.0269C6.71646 29.8556 7.16186 29.5773 6.88614 29.4131C6.5892 29.7914 6.17914 29.8628 6.36296 30.2196C5.3661 30.2196 4.65911 31.2332 3.79658 31.7114C2.62298 31.4044 2.23413 33.0603 1.41402 33.6313C1.88912 34.7839 2.51958 35.8647 3.28755 36.8431C3.42771 36.5908 3.51213 36.3107 3.535 36.0223C5.01497 35.0707 6.45252 34.0714 7.84764 33.0246C9.55573 32.3231 11.1208 31.3093 12.4643 30.0341C11.5793 30.1117 10.7127 30.3334 9.89792 30.6907C10.1242 30.8335 10.2868 30.4338 10.3009 30.6907C8.90228 31.1297 7.65489 31.9585 6.70232 33.0817C5.58527 33.4886 4.94898 34.3879 3.95212 34.9018C3.83193 35.3586 3.10373 36.0937 2.72196 35.6155C5.28127 33.1959 8.16579 31.59 11.0503 29.4131C10.5634 29.6186 10.0486 29.7486 9.52321 29.7985C10.0712 29.4378 10.7075 29.2377 11.3614 29.2204C12.5279 27.486 13.4824 25.5018 14.8963 24.0601C13.1571 26.3084 12.641 29.0563 10.4211 30.4338C11.1281 30.2196 12.0189 29.6201 12.8673 29.8628C13.8783 28.3497 14.7903 26.7223 15.6952 25.095C15.469 24.9523 15.3135 25.352 15.2923 25.095C15.5256 25.0165 15.9286 24.5883 16.1124 24.8024C14.9317 27.172 13.242 29.4774 13.5389 32.3394C13.6803 32.1396 13.9914 32.1182 14.2459 32.0468C14.4015 31.4758 14.8681 30.6836 14.7832 30.2125C14.6984 30.4124 14.3095 30.8263 14.0762 30.5051C14.5004 29.5916 15.2498 29.0206 15.5397 27.9714C16.4234 27.329 16.7628 25.5661 17.6183 25.2449C16.2778 27.2154 15.3183 29.4239 14.7903 31.7542C15.1791 31.7042 15.3559 31.4473 15.8084 31.4687C15.8084 30.7549 16.4376 30.3624 16.0417 29.8342C16.4305 29.1205 17.0739 28.6851 17.1941 27.693C18.5232 27.0649 18.4949 25.0236 19.6898 24.2528C18.6929 26.7223 16.982 28.4424 16.2184 31.1546C16.9961 31.1546 17.3637 30.6836 17.8586 30.3624C17.6678 29.249 18.6081 27.5431 19.4423 26.7937C19.315 27.3932 18.7 28.0285 18.7989 28.5209C20.0927 26.8794 20.9835 24.8309 22.242 23.1536C21.8958 24.2029 21.4004 25.1959 20.7714 26.1014C20.8384 26.0923 20.9064 26.1083 20.9625 26.1465C21.0185 26.1846 21.0587 26.2422 21.0755 26.3084C20.533 27.2829 20.0741 28.3025 19.7039 29.356C20.2624 29.3132 20.5381 28.9777 21.033 28.8707C20.9623 28.5566 21.2169 28.5709 21.1462 28.2569C21.8531 27.3861 21.9521 25.8302 22.9278 25.2163C22.7015 26.444 21.634 27.3576 21.7542 28.578C23.359 27.6502 25.7204 27.5146 25.9961 25.1735C25.5436 25.2949 25.3881 26.2798 24.9639 26.08C25.2617 25.3423 25.6642 24.6523 26.1587 24.0315C26.5688 23.589 26.1587 22.2543 27 22.3043C26.8304 22.5827 26.8445 23.018 26.6748 23.3249C28.0326 22.0087 29.1587 20.4689 30.0048 18.7713C30.0048 19.014 29.729 18.65 29.7078 18.5572C31.6026 16.6515 32.7974 14.0035 34.7982 12.1906C34.465 12.129 34.1533 11.9815 33.8932 11.7624C32.9741 13.0971 31.9914 14.3604 30.9804 15.6023C31.2632 16.1233 30.4572 16.3946 30.5562 16.7229C30.4474 16.7181 30.3402 16.7509 30.2522 16.8157C28.7766 19.053 27.144 21.1806 25.3669 23.1822C25.1689 23.796 25.2114 23.7675 24.7447 23.9887C24.6882 24.5383 25.0558 23.6889 25.1477 24.0958C24.1367 25.0665 24.0165 26.8722 23.154 27.7501C22.6591 27.0721 23.9246 26.1157 23.8044 25.509C23.7125 25.6874 23.4227 25.7873 23.4015 25.509C26.9364 21.041 30.4714 15.688 33.6952 11.5554C33.2498 11.5554 33.1791 11.2556 32.7903 11.2342C31.6238 12.7259 30.5209 14.289 29.3614 15.7807C29.4816 15.7807 29.6513 15.7807 29.6654 15.8878C29.5141 16.1208 29.3177 16.3205 29.0881 16.475C28.8585 16.6296 28.6004 16.7357 28.3292 16.7871C26.8657 19.3566 25.0063 21.5263 23.3308 23.8817C23.6701 23.9245 23.5004 23.432 23.9458 23.589C23.5075 23.9959 22.949 25.2806 22.2985 24.7881C24.4973 21.6976 26.8799 18.7998 28.8594 15.5095C28.4989 15.5095 28.6473 15.9877 28.2443 15.9092C28.4918 15.5309 28.8029 15.1955 29.1705 15.1955C28.5908 14.9385 29.7149 14.7315 29.8775 14.5959C30.8107 13.8465 31.5884 11.8837 32.4792 11.1557C32.2106 10.9773 31.8359 10.9059 31.5743 10.7275C30.4572 12.1549 29.7361 14.1962 28.4564 14.8743C28.6685 13.5967 30.4784 12.5404 30.6552 11.2271C30.6552 11.3199 30.3724 11.6696 30.3441 11.4269C30.5279 11.0986 31.0511 11.1272 31.0511 10.6204C30.6976 10.1279 29.3685 10.5847 29.2341 9.87099C30.5279 9.62118 31.5743 10.4777 32.6701 10.756C32.8751 10.5562 33.1933 10.4634 33.2923 10.1493C30.8178 8.87176 27.396 8.72187 24.4832 8.86462C23.2035 8.92172 21.3017 9.50698 20.9482 8.5934C23.9458 8.5934 27.7141 8.5363 29.8846 8.45065C33.0731 9.57122 36.2475 10.7275 38.6442 12.6046C37.7887 10.6133 34.1689 9.47843 31.8076 8.79325C30.9733 8.55057 30.634 8.07951 29.4886 8.03668C26.3284 7.97959 23.5075 8.22939 20.6583 8.07951C20.2553 7.97958 20.5735 7.57275 20.2624 7.55848C18.7811 7.76351 17.3377 8.18674 15.978 8.81466C16.982 8.61481 18.2192 8.10092 19.2373 8.25794C15.5513 9.20116 12.008 10.6416 8.7031 12.5404C8.74833 12.6362 8.7718 12.7411 8.7718 12.8473C8.7718 12.9535 8.74833 13.0583 8.7031 13.1542C8.3284 13.2827 8.19407 13.6609 7.77695 13.7537C7.77695 13.8893 7.77695 14.0249 7.77695 14.1606C4.59548 17.0583 1.64026 20.7483 1.47058 26.444C2.13515 25.2949 2.46037 23.796 3.59156 23.0965C2.93405 24.8738 1.20193 26.0942 1.36453 28.3853C2.2412 27.122 2.82801 25.4447 3.83193 24.2671C3.40774 26.3155 1.00397 27.9642 1.39281 30.2696C2.68661 28.3853 3.28755 25.7873 5.24592 24.6025C4.07231 26.1942 2.58763 28.0499 2.12101 30.0555C2.07859 29.8556 2.5947 29.7343 2.63005 29.9627C2.15318 30.3665 1.70437 30.8029 1.28676 31.2688C0.975688 30.9691 1.01104 30.1625 0.579773 29.72C0.666303 30.807 0.887185 31.8788 1.23727 32.9104C2.34725 32.318 3.2522 30.6764 4.51771 30.9191C4.75809 30.5266 4.7086 30.0626 5.04796 29.5987C4.24199 30.2982 2.8987 30.6336 2.5947 31.4044C2.5947 31.3732 2.60699 31.3433 2.62887 31.3212C2.65074 31.2991 2.68041 31.2867 2.71135 31.2867C2.74229 31.2867 2.77196 31.2991 2.79384 31.3212C2.81572 31.3433 2.82801 31.3732 2.82801 31.4044C2.37553 31.6828 1.66147 32.4822 1.19486 32.1182C2.34018 31.3331 2.87749 29.9127 3.69053 28.7779C3.82486 28.4496 3.36532 28.6922 3.49258 28.3639C4.94898 27.5146 5.1328 25.2877 6.57506 24.3955C6.11552 25.5518 4.97726 26.5368 4.79344 27.6431C5.04525 27.338 5.36178 27.0941 5.7196 26.9293C4.94898 27.95 3.13201 28.9563 3.42188 30.3838C5.81858 29.4131 6.19328 26.3298 7.89006 24.6239C7.59313 25.9444 6.68818 26.6367 6.31347 27.8714C6.55385 27.8714 6.89321 27.4432 7.12651 27.7858C6.62455 28.1998 4.67325 29.8913 6.08017 29.2061ZM4.78637 16.2661C4.16422 16.9441 3.28048 17.7721 3.11787 18.5929C3.79191 17.9108 4.35502 17.1255 4.78637 16.2661ZM41.154 20.4129C41.2671 20.4129 41.3095 20.5271 41.352 20.6199C40.8359 21.512 40.3622 22.4328 39.7824 23.2536C40.2985 23.2036 40.4894 22.8039 41.0126 22.7611C41.2666 22.2399 41.5475 21.7324 41.8539 21.2408C42.1014 20.784 42.2428 19.9775 42.8932 19.9276C42.773 20.9125 41.7691 21.5335 41.8327 22.3685C42.0448 22.1687 42.059 21.769 42.4549 21.7619C42.4549 21.8832 42.2711 21.9903 42.4549 22.0688C42.7872 21.1623 43.4447 20.0489 43.7204 19.4279C42.3064 19.6278 40.3975 20.6841 38.9128 21.3907C27.5727 26.8151 15.2145 32.0468 4.70153 38.1992C4.41098 38.2601 4.13575 38.3801 3.89265 38.5519C3.64954 38.7237 3.44366 38.9437 3.28755 39.1985C3.23806 39.7837 3.81072 39.7623 3.99454 40.1335C4.09352 39.6838 4.0511 39.0843 4.42581 38.913C4.66618 39.2056 4.15715 40.1549 4.49651 40.5546C4.68739 39.8408 4.96312 40.369 5.40852 40.4689C5.07624 39.9336 5.32369 37.9708 5.95998 38.1207C6.03068 38.913 5.40852 39.6481 5.82565 40.1691C5.98119 39.5696 5.82565 37.9494 6.78009 37.8281C6.67404 38.499 6.17207 39.2556 6.33468 39.8694C6.75933 39.7187 7.14565 39.475 7.46587 39.1556C7.43098 38.7099 7.48908 38.2617 7.63643 37.84C7.78378 37.4183 8.01711 37.0325 8.32133 36.7075C8.56878 37.3713 7.9042 37.9209 7.88299 38.6489C9.74238 38.7916 9.00711 36.3792 10.0605 35.9224C10.308 36.3863 9.60805 37.2285 9.82722 37.6568C10.3716 37.2214 11.2412 37.1286 11.2412 36.1437C11.0503 36.0437 10.8948 36.4434 10.8382 36.1437C11.2553 36.0295 11.1422 35.3514 11.5452 35.2372C12.0048 35.4728 11.5452 36.2008 11.5452 36.5719C11.8704 36.4934 11.927 36.6647 12.0472 36.786C12.4344 36.5435 12.847 36.3449 13.2773 36.1936C13.4399 35.3443 13.1359 34.552 13.9207 34.4664C13.9417 34.887 13.8591 35.3064 13.6803 35.6869C14.3873 35.5941 14.7337 34.0524 15.5256 34.6948C15.0968 34.8817 14.7362 35.1985 14.4934 35.6012C19.9089 33.3744 24.5326 30.3124 29.8563 27.9856C30.132 27.5074 29.9906 26.601 30.6905 26.5582C30.6905 26.9936 30.4148 27.1077 30.4714 27.5788C31.341 27.5788 30.9168 26.1513 31.8147 26.1513C32.0974 26.4368 31.3056 26.8651 31.5955 27.172C32.6065 26.9721 32.1681 25.2663 33.1579 25.0308C33.3064 25.7445 32.5499 26.0586 32.8256 26.5653C34.2396 26.1228 34.2962 23.6604 35.7243 23.5391C35.2011 24.3099 34.6568 25.0665 34.1619 25.8658C36.1132 25.6446 36.3606 23.6461 37.5696 22.6469C37.6403 23.3963 36.7707 24.0244 36.5161 24.7881C38.1988 24.6668 37.8877 21.9332 39.3088 21.8689C38.8438 22.5352 38.4571 23.2538 38.1564 24.0101C39.9097 23.6318 40.0087 21.4764 41.154 20.4129ZM4.80051 9.81389C4.53338 10.1916 4.17908 10.4978 3.7683 10.7061C3.76523 10.9572 3.83131 11.2043 3.95919 11.4198C4.07938 10.7988 4.81465 10.2493 4.80051 9.81389ZM8.33547 4.10399C6.61041 5.20315 4.18543 6.10959 3.91677 8.35787C4.62376 6.14528 6.76595 5.43154 8.35668 4.13968L8.33547 4.10399ZM5.83979 14.2391C5.83979 13.8394 6.25691 13.8394 6.36296 13.5253C6.04482 13.5253 6.06603 13.8394 5.65597 13.718C5.65597 13.5753 5.49336 13.5396 5.45801 13.404C5.62062 13.1899 5.83272 13.0328 5.97412 12.7973C5.5782 12.7973 5.59234 13.1613 5.15401 13.0899C5.15401 12.99 5.07624 12.9686 5.05503 12.883C5.17522 12.212 5.76202 12.0051 5.99533 11.4555C5.45094 11.6482 5.23178 12.1692 4.65911 12.3548C4.65911 12.212 4.4965 12.1764 4.46116 12.0408C4.46116 11.7553 5.04089 11.4769 4.7793 11.2271C4.65911 11.5554 4.24199 11.5697 4.15715 11.9408C4.79497 12.6463 5.35885 13.4165 5.83979 14.2391ZM7.49415 6.99463C7.49415 6.75196 7.32447 6.68772 7.40224 6.38081C8.15872 5.88833 9.00711 4.39662 9.48079 3.6472C9.16593 3.95044 8.88822 4.29071 8.65361 4.66071C8.65361 4.58219 8.65361 4.46086 8.55464 4.45372C7.36689 5.63139 7.26791 7.30867 5.84686 8.19371C5.84686 8.08665 5.76909 8.07237 5.74788 7.98672C6.31347 7.13737 7.31033 6.21665 7.42345 5.24597C6.26212 6.65457 5.2481 8.18056 4.39753 9.79962C5.37317 8.56485 6.61041 8.27222 7.49415 6.99463ZM6.08017 6.15242C5.37317 6.74482 4.41167 7.67982 4.51064 8.78611C4.94898 7.85111 5.84686 6.90898 6.08724 6.14528L6.08017 6.15242ZM12.3441 30.7549C11.6371 31.1761 10.7887 31.5329 10.5908 32.1824C8.18006 33.2339 5.95836 34.6809 4.01575 36.4648C4.01575 36.8217 4.60962 36.6219 4.41167 37.1786C5.82565 36.3507 7.43052 35.2729 8.82329 34.3879C9.2687 34.1095 10.0322 33.9097 10.1595 33.3886C7.81229 34.4807 6.49022 35.6512 4.50357 36.8717C4.39046 36.215 5.21057 35.8867 5.64183 35.5584C6.74474 34.7876 7.96076 34.1309 8.92934 33.4672C8.68189 33.3672 9.25456 33.2673 9.3394 33.1674L9.63633 33.4814C10.4494 32.7677 11.8634 32.682 12.2098 31.4758C11.6654 31.5615 11.4321 31.9041 10.9867 31.6614C11.4816 31.4044 12.3017 31.4687 12.3441 30.7549ZM6.02361 9.34282C5.52871 9.29286 4.89949 10.5205 4.7793 10.8559C5.22973 10.3731 5.64778 9.86042 6.03068 9.32141L6.02361 9.34282ZM6.36296 14.7601C5.9608 15.1042 5.58062 15.4737 5.22471 15.8664C5.65597 15.638 6.32054 15.0884 6.36296 14.7601ZM6.53971 10.6632C6.33468 10.5276 6.44073 10.0851 6.14379 10.0423C6.03775 10.5919 5.38024 11.12 5.4368 11.4698C5.61355 11.0415 6.10845 10.8988 6.51143 10.6632H6.53971ZM6.71646 44.9655C6.59627 45.201 6.20035 44.8727 6.10845 44.7513C6.05587 44.8247 6.01872 44.9081 5.99927 44.9965C5.97981 45.0849 5.97847 45.1763 5.99533 45.2652C6.17207 45.3081 6.25691 45.1153 6.29933 45.2652C5.95998 45.7149 5.2035 45.722 4.96312 46.2645C5.85393 46.6499 6.48315 45.3223 6.71646 44.9655ZM6.60334 11.2771C6.39831 11.6268 5.85393 12.1621 5.89635 12.3905C6.10845 12.0907 7.20428 11.7909 6.60334 11.2771ZM5.35196 41.7965C5.40852 42.1462 5.2035 42.7457 5.4368 42.9242C5.38024 42.5031 5.75495 42.1105 5.35196 41.7965ZM7.29619 12.3191C7.15479 12.3191 7.12651 12.1478 6.99925 12.1121C6.99925 12.469 6.39124 12.7188 6.58213 12.9258C6.79423 12.6974 7.176 12.6474 7.29619 12.3191ZM9.19093 44.3231C8.85733 44.4004 8.51452 44.4292 8.17286 44.4087C8.17286 44.5301 8.17286 44.7014 8.06681 44.7157C7.176 44.7157 6.69525 45.879 6.10845 46.5285C7.69211 46.3929 8.1163 45.0368 9.19093 44.3231ZM6.84372 9.23576C7.47562 10.2041 7.90616 11.292 8.10923 12.4333C11.7785 10.2921 15.1155 7.86539 20.0786 7.11596C19.011 5.75272 18.2899 3.19041 16.7062 2.64797C12.9945 4.40376 8.69603 5.5386 6.84372 9.23576ZM6.78009 41.3968C6.41245 41.3968 6.53264 42.3817 6.6599 42.5245C6.61041 42.0677 6.85079 41.9035 6.78009 41.3968ZM7.23256 44.4801C7.05737 44.445 6.8755 44.4782 6.72353 44.5729C6.72353 44.6942 6.72353 44.8655 6.82251 44.887C6.91442 44.7157 7.19721 44.7299 7.23256 44.4944V44.4801ZM11.4745 44.1447C9.25456 43.9805 8.51222 45.358 7.47294 46.4286C9.4101 46.8497 10.1878 44.9655 11.5028 44.1589L11.4745 44.1447ZM8.6324 5.47437C8.56171 5.74559 8.33547 5.85979 8.21528 6.08104C8.48394 6.04536 9.04953 5.60998 8.6324 5.47437ZM8.48394 47.9988C8.21528 48.2415 7.87592 48.4057 7.77695 48.8054C7.86885 48.9909 7.77695 49.3193 7.96783 49.4263C8.09785 48.9361 8.27055 48.4584 8.48394 47.9988ZM8.1163 51.4747C8.1163 50.8538 8.73845 50.1401 8.34961 49.7332C9.0566 49.4335 8.93641 48.2629 9.40303 47.7062C9.15558 47.6562 9.17679 47.8918 8.89399 47.799C8.79501 48.7483 7.54364 50.1401 8.12337 51.4747H8.1163ZM33.7377 26.7295C33.3559 26.6438 33.2498 26.8437 32.9246 26.8151C28.619 28.7137 24.6316 31.0975 20.5311 33.146C16.4305 35.1944 12.0472 36.8289 8.13751 39.3769C8.11435 39.5217 8.14726 39.6699 8.22942 39.7909C9.55149 39.2984 10.5625 37.5711 12.634 37.514C19.2231 34.2951 26.0668 30.5551 32.7055 27.5217C33.6882 27.0721 34.883 26.808 35.3708 26.0371C34.8901 25.5946 34.2326 26.5296 33.7377 26.7295ZM8.48394 52.2028C8.34961 52.6167 8.16579 53.1163 8.56171 53.4375C8.71724 52.1385 9.2687 51.2963 9.53735 50.0758H8.83036C8.56878 50.7396 8.42738 51.5033 8.17993 52.217L8.48394 52.2028ZM9.54442 4.16109C9.502 4.50368 8.83743 4.76063 9.12023 5.07467C9.14851 4.68926 9.82722 4.468 9.5727 4.16109H9.54442ZM9.70703 51.9173C10.4777 51.7103 10.4706 50.6968 10.7534 49.9902C10.3645 49.9259 10.2514 50.1615 9.84136 50.0758C9.70703 51.1536 8.95762 52.1457 9.07781 53.1378C9.22628 52.9807 9.21921 52.6596 9.39596 52.5311C9.34647 53.4232 8.26477 54.4724 9.14851 55.0863C9.14851 54.3297 9.69996 53.773 9.14851 53.3447C9.29445 53.3108 9.43025 53.2422 9.54461 53.1446C9.65897 53.047 9.74858 52.9232 9.80599 52.7835C9.86339 52.6439 9.88693 52.4924 9.87463 52.3418C9.86234 52.1911 9.81457 52.0455 9.73531 51.9173H9.70703ZM9.74238 49.7761C9.97489 49.043 10.2584 48.3275 10.5908 47.6348C10.2842 47.5989 9.97351 47.628 9.67875 47.7205C9.53028 48.4342 8.85864 49.148 9.02832 49.8617C9.30405 49.6404 9.42424 49.9045 9.77773 49.7689L9.74238 49.7761ZM10.6049 4.58933C10.308 4.04689 11.3119 3.66861 11.0362 3.16186C10.7123 3.77077 10.3311 4.34679 9.89792 4.88196C10.1524 4.83914 10.3009 4.64643 10.6049 4.58933ZM13.7581 44.2018C12.9875 45.2081 11.7361 45.7006 11.0715 46.814C13.5601 47.0567 14.2459 45.1439 15.8861 44.2374C15.5963 45.2938 14.3873 45.3866 14.0197 46.3787C15.5397 46.7498 16.6355 45.4508 17.1941 44.7942C17.9011 45.358 16.1336 45.8576 16.5578 46.1146C23.2106 45.201 29.6725 45.0582 36.5798 44.7371C37.2443 43.7307 38.22 43.0455 38.8634 42.0106C30.1108 42.4246 19.8594 43.0883 11.623 44.1518C11.2129 45.4223 9.67168 45.5222 9.24042 46.7712C11.4886 47.1995 12.0189 44.3445 13.7298 44.2018H13.7581ZM9.38182 56.3353C9.45959 56.5566 9.63633 56.6922 9.5727 57.049C10.1595 56.2068 10.5554 54.5295 11.1634 53.3876C10.7195 53.4196 10.278 53.4792 9.84136 53.566C9.67875 54.2797 9.48786 54.9292 9.29698 55.6073C9.77066 55.5145 9.69996 54.8436 10.1242 54.7008C9.83429 55.2147 9.62926 55.8 9.35354 56.3139L9.38182 56.3353ZM10.711 2.85495C10.6667 2.92242 10.6053 2.9766 10.5331 3.01177C10.461 3.04694 10.3807 3.06181 10.3009 3.0548C10.4352 3.35457 10.0181 3.56869 10.3009 3.66861C10.3504 3.36884 10.9443 3.10476 10.711 2.85495ZM9.74238 57.2417C9.81308 57.6414 9.84136 58.084 10.1312 58.2767C11.121 57.3631 11.5452 55.8357 12.026 54.4153C11.6513 54.4796 11.2271 54.6081 11.015 54.294C10.8594 55.1434 10.1736 55.9856 10.2585 56.7421C10.4632 56.3833 10.6998 56.0441 10.9655 55.7286C10.7322 56.3353 10.4494 57.777 9.74238 57.2417ZM11.4462 52.7666C11.507 52.4795 11.6145 52.2045 11.7644 51.953C11.3277 52.0398 10.8862 52.0994 10.4423 52.1314C10.2368 52.4012 10.092 52.7129 10.0181 53.045C10.4777 52.9308 10.9938 52.8808 11.4462 52.7666ZM14.3308 55.8928C14.3681 56.0133 14.4364 56.1217 14.5287 56.2068C14.7832 55.9142 15.4973 56.1069 15.7518 55.8214C17.2365 56.1926 19.8311 54.9935 21.231 55.8214C23.1681 54.7579 25.2043 53.2305 26.9788 52.3384C25.5648 53.9229 23.2671 54.6437 21.634 56.0355C21.9945 56.1569 22.2208 55.6144 22.447 55.9499C20.2059 56.892 17.3708 57.0633 14.5994 57.6486C13.5531 58.7406 12.1886 59.5114 11.1988 60.6605C11.4392 60.946 11.9058 60.2323 12.1179 60.475C11.828 60.7605 11.3119 60.8104 11.0927 61.1887C11.3402 61.3172 11.3543 61.6741 11.6937 61.7097C12.839 60.3751 14.4085 59.4686 15.7165 58.2981C15.3135 58.2981 14.7691 58.605 14.7055 58.0768C15.1402 57.7124 15.6971 57.531 16.2608 57.5701C16.2184 57.7628 15.8649 57.6414 15.9498 57.9769C18.0142 57.8342 19.5908 57.1632 21.8461 57.4701C23.5287 56.164 26.0103 55.1576 27.2899 53.7801C27.5232 53.7801 27.6717 53.7801 27.6929 53.9942C26.0244 55.4217 23.4509 56.5423 22.037 57.8841C22.5841 57.5721 23.1686 57.3323 23.7762 57.1704C22.8924 58.3623 21.2593 58.0269 20.2412 58.1339C20.3685 57.9198 20.6866 57.9055 20.8563 57.7342C19.4423 57.9912 17.5971 57.6414 16.176 58.2624C15.469 58.5764 14.7055 59.6042 14.0126 60.1681C13.1642 60.8818 12.2876 61.3101 11.8492 62.0738C12.026 62.0738 12.3582 61.7954 12.4572 62.0738C12.4572 62.2665 12.1179 62.138 12.1462 62.3735C12.551 62.9793 13.0583 63.5085 13.645 63.9366C15.6104 62.6162 17.1799 60.8604 19.3999 59.8397C17.9081 61.0959 15.9568 62.4306 14.762 63.6511C14.762 63.4156 15.0377 63.4156 15.066 63.6511C14.6843 63.8724 14.2247 64.0223 14.0338 64.4505C14.2035 65.1642 15.1509 65.878 16.0346 66.2277C19.7958 63.2015 24.6316 61.2101 28.407 58.0982C28.6685 58.1839 28.8806 57.7057 29.015 58.0054C28.4126 58.707 27.6831 59.2859 26.8657 59.7113C25.4517 60.632 23.9883 61.5242 22.5531 62.4021C22.5881 62.4831 22.6062 62.5706 22.6062 62.659C22.6062 62.7474 22.5881 62.8349 22.5531 62.916C22.1077 63.0016 21.8037 63.3942 21.436 62.9945C20.3685 63.7867 18.7212 64.5433 18.0425 65.3926C18.396 65.1642 19.0181 64.6789 19.3716 64.8002C18.4827 65.474 17.5195 66.0417 16.5012 66.4918C16.6489 66.7055 16.8442 66.8814 17.0713 67.0053C17.2984 67.1293 17.5511 67.1978 17.8092 67.2055C17.5546 67.2055 17.8092 66.8558 17.8092 66.7987C19.8594 65.464 21.8531 63.5155 24.1721 62.816C23.9034 63.0873 23.4297 63.1515 23.2459 63.5298C25.4729 62.4163 27.3889 60.425 29.6088 59.647C27.3394 61.2958 24.9993 62.8089 22.6238 64.3434C22.5389 64.5718 22.5884 64.7431 22.3056 64.9501C21.9945 65.0429 21.8461 65.307 21.3865 65.2427C21.1108 65.0857 21.5703 64.8288 21.2946 64.7289C20.4816 65.4426 19.0959 66.1135 18.6222 66.8344C19.0322 66.6345 19.612 66.0635 20.0362 66.2491C19.396 66.6093 18.7775 67.0073 18.1839 67.4411C18.5868 67.4411 18.7919 67.6552 19.1949 67.6623C19.7958 66.8201 20.9199 66.2777 21.8673 65.6638C22.8147 65.05 23.7196 63.9723 24.7377 64.1793C23.0692 65.257 20.9482 66.4061 19.7887 67.6766C19.9372 67.4767 20.5735 67.2555 20.7078 67.384C20.6018 67.7908 19.9301 67.6124 19.8806 68.0977C21.2946 68.1905 22.341 66.9985 23.4651 66.2134C23.048 66.2562 22.7581 66.7487 22.5531 66.2134C24.9215 64.4505 27.7494 62.6091 30.0542 61.1245C28.2797 62.8089 26.0032 64.1365 23.9105 65.5996C24.5397 65.5568 25.0558 64.8859 25.5436 65.0143C24.1933 66.2134 22.6662 67.2198 21.2239 68.319C21.9309 68.2048 22.1784 67.6052 22.9631 67.5267C25.2396 66.0992 27.7565 64.7717 29.8421 63.2443C30.5491 62.7304 31.2137 62.0024 32.0974 61.9524C29.4392 64.0936 26.3143 65.7852 23.8681 68.1548C24.2923 67.9121 24.8366 67.7694 25.282 67.4411C26.1658 66.8558 26.9152 65.7067 27.8484 65.9493C27.0637 66.5132 26.2436 67.0556 25.4871 67.648C25.7275 67.648 25.8689 67.491 26.1941 67.5553C28.3725 65.8538 30.6743 64.3197 33.0802 62.9659C30.8885 64.8502 27.7989 66.3419 26.081 68.3761C27.0142 67.8336 27.9262 67.177 28.9584 66.4846C29.9906 65.7923 31.5743 64.1864 32.8469 64.6075C33.6882 63.8938 33.8791 62.4663 34.8264 61.8739C34.5507 63.3942 33.5538 64.1579 32.8398 65.2213C33.1862 65.0857 33.7306 64.7431 34.0629 64.9358C32.0409 66.1563 29.8987 67.2555 28.011 68.6187C28.2726 68.6687 28.5908 68.269 28.718 68.5259C28.4211 68.8757 27.7353 68.8186 27.5868 69.3253C27.8201 69.361 27.9615 69.4966 28.2938 69.4395C29.5311 67.8764 32.048 66.763 33.9498 65.5425C34.2396 64.8288 34.989 64.2863 35.5051 63.6226C36.0213 62.9588 36.3182 61.9738 37.1595 62.0166C35.8728 63.3299 35.1022 65.3498 33.5326 66.3562C32.2106 67.1984 30.74 67.698 29.5311 68.7401C30.4504 68.3858 31.3395 67.9562 32.1894 67.4553C33.066 67.0128 34.1265 66.7416 34.8547 66.1706C35.5331 65.4808 36.1572 64.7387 36.7212 63.9509C37.3363 63.2371 37.8241 62.2593 38.7856 61.9381C37.4635 63.9223 35.7809 65.5068 34.3245 67.3911C33.3771 67.1199 32.352 68.3261 31.4541 68.7757C32.9812 67.8693 34.6497 67.7765 35.9576 66.8058C37.6897 65.5211 38.5169 63.1586 40.6096 62.2807C38.8846 64.2364 37.0322 66.1349 35.4344 67.9549C38.0503 66.5275 39.7259 64.1008 41.9317 62.245C43.3457 62.0523 44.3708 60.6391 45.6293 59.9539C45.6293 59.5114 45.2051 59.6256 45.4384 59.2402C45.5421 59.2376 45.6431 59.2059 45.73 59.1486C45.8169 59.0913 45.8863 59.0107 45.9303 58.9158C45.9744 58.821 45.9914 58.7156 45.9794 58.6115C45.9674 58.5074 45.927 58.4088 45.8626 58.3266C44.7172 59.3901 43.3528 60.218 42.1579 61.2315C42.8649 60.9889 43.2538 60.4322 44.0032 60.2394C43.0063 60.8675 42.0165 62.0523 40.8217 62.1309C41.9034 60.4821 44.3567 59.3615 45.9686 57.9198C45.9299 57.7081 45.9702 57.4894 46.0817 57.306C46.5059 57.5629 46.7463 57.2275 47.0008 57.0133C46.8806 56.8278 46.9443 56.5637 46.916 56.0926C45.6151 57.099 43.8335 58.1482 42.9003 59.176C42.9063 59.1531 42.9196 59.133 42.9381 59.1185C42.9567 59.1041 42.9794 59.0963 43.0028 59.0963C43.0262 59.0963 43.0489 59.1041 43.0675 59.1185C43.086 59.133 43.0993 59.1531 43.1053 59.176C42.4761 59.3544 41.9529 60.4464 41.055 60.268C41.5782 59.283 42.8296 58.6764 43.8335 57.9626C44.8374 57.2489 45.806 56.3068 46.817 55.6573C46.817 55.3432 46.5271 54.7437 46.9372 54.6366C47.3473 54.5295 46.9867 55.2647 47.3331 55.2576C47.3331 54.9792 47.5735 54.7722 47.7432 54.9578C47.9128 55.3575 47.4462 55.3289 47.63 55.7786C47.4887 55.7786 47.4604 55.6073 47.326 55.5645C47.7954 56.8407 48.3505 58.0831 48.9875 59.283C48.9875 58.8976 49.3763 58.8548 49.4046 58.4694C48.436 57.3345 48.3936 55.2932 47.4533 54.1298C47.3614 54.3939 47.7502 54.6937 47.4533 54.8436C47.2341 54.6509 47.2483 54.2369 47.2695 53.8158C45.6363 55.1362 44.1092 56.5566 42.5256 57.9341C42.7023 57.9983 42.9498 57.6414 43.0346 57.9341C42.5468 58.0697 42.0165 59.0975 41.5004 58.5193C43.1972 56.6065 45.3111 55.1362 47.1564 53.3947C47.2129 52.995 46.9513 52.8594 47.2695 52.681C47.5664 52.3812 47.4392 52.9379 47.7714 52.8951C48.132 52.6453 47.9058 52.1171 47.8916 51.6675C46.5696 52.7024 45.0637 54.0157 44.3567 55.3932C43.0275 55.7786 42.4407 57.4844 41.1681 57.5915C41.6065 57.0835 42.079 56.6066 42.5821 56.164C41.048 56.5423 39.4007 57.3488 38.0927 57.5915C39.1249 56.7564 40.751 56.5494 41.8822 55.8143C41.5923 55.7215 41.7691 55.6573 41.7903 55.4003C40.4965 55.2718 38.9623 56.0712 37.315 55.7286C37.2726 55.2932 37.6827 55.229 37.9372 55.1291C39.6057 54.4153 42.37 54.7437 43.6497 53.5945C43.4729 53.5303 43.0487 53.7087 43.0417 53.4804C43.3499 53.4643 43.6501 53.3751 43.9178 53.2201C44.1856 53.0651 44.4135 52.8486 44.5829 52.5882C42.7942 53.045 40.6803 53.1663 38.9835 53.7159C39.8673 53.773 40.8995 53.4233 41.6206 53.6588C40.956 53.5803 40.3268 53.9514 39.5845 54.0299C38.5876 54.137 37.2656 54.244 36.8484 53.773C38.8139 52.9379 41.7125 53.0592 43.678 52.2527C41.557 52.1599 39.0825 52.8451 36.6646 52.8451C36.6081 52.6381 36.1556 52.8094 36.2687 52.4312C36.9121 52.0029 37.9584 52.0172 38.9199 51.8673C39.6693 51.746 41.2601 51.7388 41.2742 50.8823C40.447 50.9609 38.9694 50.7824 38.9341 51.3534C38.3826 51.1821 36.7141 51.8673 36.297 51.2035C37.612 50.4184 39.733 50.918 41.3873 50.3756C41.3523 50.2945 41.3342 50.2071 41.3342 50.1186C41.3342 50.0302 41.3523 49.9427 41.3873 49.8617C40.1996 49.6048 38.7432 50.3114 37.4211 50.4041C37.0322 50.4041 36.1414 50.5969 35.9011 50.0687C37.7251 49.6333 39.8956 49.7903 41.4934 49.3549C41.4934 49.0837 41.4934 48.8054 41.4934 48.5341C39.7259 48.6912 38.2271 48.6412 36.5444 48.9553C36.403 48.9553 36.1556 48.9553 36.3394 49.0552H36.8484C37.1029 49.1408 37.7251 48.8696 37.6544 49.2764C37.004 49.0552 35.2436 49.7975 34.7133 49.0195C36.6151 48.3058 39.4077 48.5056 41.6348 48.1202V47.5064C40.447 47.5064 38.8846 47.6277 37.6685 47.7419C36.8908 47.8133 36.5656 47.6777 37.5625 47.9417C37.7817 47.8846 38.3967 47.7133 38.5735 47.9417C37.4494 48.0274 35.4557 48.42 34.5154 47.6634C35.0103 47.5349 34.7275 47.2423 35.1375 47.0567C37.2585 46.7427 40.0299 47.0068 42.0519 46.343C41.967 46.7498 42.971 46.6784 42.971 46.2573C37.0747 46.3572 31.8288 47.1352 26.3072 47.2851C20.3826 47.4493 15.469 47.021 10.8736 47.4136C10.6544 48.2272 10.2302 48.8411 10.0181 49.6547C10.3126 49.561 10.6235 49.5318 10.9301 49.5691C11.1917 49.0409 11.2695 48.32 11.7714 48.0488C11.8775 48.4342 11.4038 49.0266 11.2412 49.4763C13.447 49.4049 15.872 48.8482 17.8445 49.0837C16.2891 49.4335 15.2923 49.7404 13.7652 50.1401C15.5963 50.3399 17.7102 49.7618 19.2443 50.3399C18.8677 50.3721 18.4885 50.3309 18.1273 50.2186C16.7133 50.9965 12.9451 49.5048 12.3229 51.2392C13.6591 51.0394 15.2286 50.5255 16.5648 50.7039C15.7597 50.887 14.9419 51.0087 14.1187 51.0679C15.7518 51.6746 18.403 50.6825 19.7746 51.2749C17.5193 51.5604 14.4509 51.3748 11.9482 51.853C11.8269 52.0837 11.7207 52.3221 11.63 52.5668C12.2204 52.6368 12.8144 52.4702 13.2844 52.1028C13.3622 52.8166 14.0904 52.0386 14.3944 52.4312C14.1045 52.6167 13.5036 52.4668 13.2703 52.7167C16.275 52.5596 18.8343 51.646 21.5067 51.8388C22.4824 51.125 23.7055 49.7903 24.8013 49.2336C24.9922 49.1337 25.5083 48.9053 25.6143 49.148C24.1592 50.065 22.7829 51.1035 21.4996 52.2527C21.6198 52.2527 21.7895 52.2527 21.8037 52.3598C21.2593 52.4883 20.722 53.1734 20.1705 52.945C20.2766 52.3955 21.0189 52.5097 21.1037 51.9387C18.6222 52.2313 15.5821 52.7452 12.8602 53.1235C12.9026 53.4447 12.6693 53.4804 12.7471 53.8372C13.5106 53.8015 14.5923 53.1235 15.0872 53.4732C14.6772 53.6659 13.9278 53.516 13.7581 53.9657C15.2145 53.8372 16.8689 53.5945 18.4384 53.4375C19.1454 53.3662 20.0998 53.1592 20.5593 53.6802C17.7314 53.6374 15.0802 54.3368 12.4289 54.3511C12.3724 54.6152 12.0048 55.0648 12.2098 55.2718C13.0016 55.0934 13.9066 54.4796 14.755 54.7008C14.3937 54.772 14.047 54.9048 13.7298 55.0934C15.9568 54.9935 17.7738 54.451 20.1352 54.4939C21.9971 53.1076 23.9912 51.9121 26.088 50.9252C24.674 52.2955 22.4894 52.9379 21.0542 54.3154C21.1815 54.5438 21.0542 54.5438 21.2451 54.8293C18.4172 54.6723 15.8791 55.3004 13.1147 55.5002C12.5633 56.3853 11.7007 56.9277 11.1422 57.8199C11.22 57.8199 11.3402 57.8199 11.3473 57.72C12.3798 57.1726 13.3785 56.5624 14.3378 55.8928H14.3308ZM11.9058 32.5893C11.5041 32.7295 11.1253 32.9292 10.7817 33.1817C11.1352 33.2173 10.7817 33.46 10.9796 33.4957C11.22 33.1174 12.0189 33.3244 11.9058 32.5893ZM11.9058 51.5461C12.1462 51.3106 12.2098 50.8895 12.4289 50.6325C11.919 50.5878 11.4055 50.6118 10.9018 50.7039C10.7431 51.0257 10.6335 51.3697 10.5766 51.7246C10.9994 51.6018 11.4376 51.5416 11.8775 51.5461H11.9058ZM12.0189 2.25541C12.0189 2.37675 11.8563 2.36247 11.7149 2.35533C11.7149 2.7122 11.1917 2.98342 11.4957 3.27606C11.5947 2.90491 12.1886 2.51949 12.0189 2.25541ZM12.7683 57.2132C11.9482 57.7771 10.6897 57.8913 10.7039 59.3544C11.4887 58.6906 12.0825 57.8841 12.7895 57.1989L12.7683 57.2132ZM10.3928 88.218C10.004 89.2529 10.7958 91.2728 11.9553 91.7295C13.3111 92.1171 14.7431 92.1441 16.1124 91.8081C17.0103 91.4012 17.3779 89.8952 17.59 88.7604C17.4203 88.2536 16.8476 88.1394 16.883 87.4186C16.4093 87.5256 16.5224 86.9404 16.2891 86.7048C15.6952 87.4186 16.1689 88.5962 15.9356 89.467C15.674 90.4662 14.6984 90.6732 13.1713 90.6447C11.0503 89.2172 13.4612 86.3051 15.469 87.076C15.469 86.8048 15.469 86.5335 15.469 86.2552C14.9683 86.1415 14.4604 86.0628 13.949 86.0196C13.6733 86.2123 14.5853 86.4693 14.2388 86.7334C13.1501 85.6485 10.7463 87.3044 10.414 88.2037L10.3928 88.218ZM10.8311 86.2766C10.7251 86.5835 10.1242 86.9261 10.407 87.2901C10.407 86.8333 11.1493 86.6477 10.8524 86.2623L10.8311 86.2766ZM15.3135 56.9491C15.4337 56.9491 15.4195 57.1133 15.4125 57.256C17.1941 56.7564 19.3433 56.6351 20.9199 55.9213C18.4596 55.6858 16.0912 56.4281 13.8005 56.7136C13.037 57.5843 12.1179 58.2981 11.418 59.2331C11.6795 59.1831 11.7785 59.1046 11.927 59.3473C11.6018 59.6256 10.6544 59.7184 10.8948 60.2466C11.9744 59.5177 12.9766 58.6782 13.8854 57.7414C13.546 57.7414 13.348 57.9341 13.1784 57.6272C13.1784 57.5558 13.1784 57.4916 13.1784 57.4202C14.0126 57.2132 14.5923 57.4844 15.3347 56.9348L15.3135 56.9491ZM12.8037 49.8117C12.1462 49.8546 11.2978 49.6975 11.0715 50.19C11.7361 50.1472 12.535 50.2471 12.8178 49.8189L12.8037 49.8117ZM12.3229 53.9015C12.2663 53.5232 12.5491 53.516 12.5421 53.1877C12.0613 53.1021 11.8846 53.3376 11.425 53.2662C11.425 53.6588 11.1634 53.7587 11.1069 54.0799C11.5664 54.0799 11.8634 53.8943 12.3441 53.9086L12.3229 53.9015ZM12.6128 55.6715C12.2805 55.7215 12.1037 55.6287 12.0048 55.4574C11.8846 55.8571 11.4533 56.478 11.5735 56.785C11.8307 56.3383 12.1863 55.9573 12.6128 55.6715ZM13.3692 1.86999C12.8319 1.99846 12.6623 2.51236 12.436 2.98342C12.9451 2.81926 13.0299 2.21259 13.3692 1.86999ZM14.0762 1.77721C14.2106 2.01274 13.8076 2.15549 14.0762 2.18404C14.27 1.92603 14.4449 1.65409 14.5994 1.37038C13.7298 1.60591 13.1854 2.74075 12.938 3.29033C13.5955 3.08335 13.7581 2.35533 14.0833 1.78434L14.0762 1.77721ZM12.938 31.8898C12.5421 31.8898 12.5562 32.3252 12.5209 32.7035C12.9733 32.7606 12.9592 32.3252 12.938 31.8898ZM13.1572 30.9691C13.2081 30.6572 13.2813 30.3495 13.3763 30.0483C13.1891 30.1464 13.0306 30.2922 12.9165 30.4713C12.8024 30.6503 12.7367 30.8564 12.7259 31.069C12.7683 30.912 12.9945 30.9762 13.1572 30.9691ZM12.8885 85.9911C12.6984 85.9552 12.5022 85.9729 12.3213 86.0421C12.1405 86.1114 11.9821 86.2295 11.8634 86.3836C12.2242 86.3148 12.5709 86.1845 12.8885 85.9982V85.9911ZM14.755 49.6476C14.048 49.6476 13.2844 49.5691 12.9238 49.9188C13.5473 50.0271 14.1886 49.9321 14.755 49.6476ZM14.6701 2.71934C14.9458 2.20545 15.4195 1.90568 15.5114 1.19908C14.9883 1.42747 14.2318 2.14121 14.6701 2.71934ZM14.1399 87.8611C13.6803 87.7397 13.1925 88.118 13.4329 88.3607C13.5389 88.0324 13.9631 88.0609 14.1399 87.8611ZM13.9136 88.9817C13.7581 88.8032 14.0409 88.5249 13.7227 88.3607C13.5813 88.7533 13.3056 89.2457 13.4965 89.6883C14.1469 89.8096 14.3308 89.4527 14.7196 89.3028C14.7196 88.8675 14.96 88.2822 14.3308 88.2751C14.1611 88.4606 14.4156 88.6248 14.1187 88.7818C14.1187 88.7247 14.0409 88.6676 14.0197 88.7818C14.2106 88.8104 14.0692 88.9531 13.949 88.9888L13.9136 88.9817ZM16.6992 80.7308C16.3033 81.5445 15.6528 82.6151 15.0377 82.8721C15.0377 82.0084 16.07 81.6587 15.9851 81.0449C15.8154 81.1591 15.2781 81.3804 15.2781 81.0449C15.6458 79.7887 17.0527 79.075 17.3567 78.1114C16.6497 78.247 15.8154 79.2177 15.1155 78.6824C14.7267 80.4953 14.1681 82.9648 13.7864 85.1061C14.4693 85.1576 15.1462 85.2723 15.8084 85.4487C16.6878 83.2206 17.2864 80.8899 17.59 78.5111C17.1941 79.3462 16.1336 80.0457 15.9286 80.738C16.1053 80.6024 16.678 80.3597 16.7345 80.738L16.6992 80.7308ZM16.9961 1.22049C16.5154 1.22049 16.2255 2.39102 15.872 1.81289C15.4337 1.77721 15.5326 2.2911 15.2498 2.41957C15.9993 2.14121 16.8689 2.05556 17.0315 1.22049H16.9961ZM15.2852 88.0895C15.7377 87.6041 14.9034 87.0902 14.4863 87.4614C14.9246 87.4971 15.059 87.8397 15.2852 88.0895ZM17.2224 76.1344C16.9183 76.377 16.3103 76.8481 15.8932 76.6197C16.4305 75.649 17.3779 75.1137 18.1697 74.4071C18.1697 74.2073 18.0354 74.2001 17.9718 74.0931C18.1768 74.0003 18.4596 73.7648 18.6788 74.0003C18.6151 73.515 18.9898 72.9368 18.806 72.6728C18.1626 73.3865 16.9396 74.0574 16.6355 74.814C16.8406 74.4143 17.5193 74.5784 17.7597 74.5285C17.088 74.7997 16.5154 75.178 15.8154 75.4135C15.7094 76.5769 15.2357 77.883 15.2569 78.3755C15.8508 77.619 16.9254 76.8267 17.2224 76.1344ZM15.4619 89.4242C15.7447 89.1315 15.8013 88.2465 15.2781 88.1894C15.4266 88.5034 15.2711 89.1458 15.469 89.4242H15.4619ZM17.9081 77.5833C18.0283 76.5269 18.3394 75.6633 18.4667 74.6213C17.9372 74.9878 17.4613 75.4275 17.0527 75.9274C17.4839 75.8703 17.7597 75.3921 18.0707 75.9274C17.3001 76.7268 16.5507 77.5333 15.7942 78.347C16.5295 78.1543 17.1587 77.7974 17.9081 77.5833ZM17.8445 1.42747C17.7243 1.68442 17.088 1.9485 17.3213 2.234C17.4062 1.95564 18.1485 1.79862 17.8445 1.42747ZM18.8272 71.8448C18.0068 72.4053 17.1493 72.9084 16.2608 73.3508C16.2608 73.7219 15.8791 74.2644 16.1407 74.5784C16.883 73.5863 18.5091 72.9582 18.8202 71.8591L18.8272 71.8448ZM17.4132 71.5094C17.293 71.752 16.7062 71.5879 16.7062 71.3952C16.7062 71.7092 16.4517 72.3016 16.5861 72.4158C16.7911 72.1303 17.5122 71.8163 17.4062 71.5236L17.4132 71.5094ZM18.7636 69.5894C18.1728 69.9006 17.5581 70.1631 16.9254 70.3745C17.0385 70.71 16.6073 71.0026 16.9254 71.1953C17.3637 70.503 18.2051 70.2032 18.7636 69.6037V69.5894ZM18.1273 2.56232C18.6893 3.23892 19.1864 3.96782 19.612 4.73922C20.0008 5.45295 20.1988 6.75909 21.0967 6.91612C20.7149 6.09532 20.1705 5.34589 19.6827 4.53223C19.1949 3.71857 18.9757 2.71934 18.2051 2.24827C18.2263 2.39816 18.099 2.4053 18.1273 2.57659V2.56232ZM19.1454 70.9455C18.3248 71.3327 17.5855 71.8755 16.9678 72.5443C17.8304 71.9091 18.9969 72.2516 19.1454 70.9455ZM17.8586 68.9756C17.4627 68.9114 16.9325 69.254 17.2365 69.5751C17.3284 69.2325 17.7667 69.2896 17.8586 68.9685V68.9756ZM20.5452 26.4083C19.9443 27.1648 19.5484 28.1498 18.8767 28.835C18.6717 28.7708 18.6858 28.521 18.4737 28.7279C18.3818 29.2561 17.9293 29.9627 18.0354 30.3624C19.5413 29.7985 19.9938 27.586 20.5452 26.4083ZM19.3716 69.7179C18.6493 70.1174 17.9894 70.6225 17.4132 71.2167C18.1839 70.8384 19.2302 70.7528 19.3716 69.7179ZM19.2797 69.0041C19.2797 69.1683 19.1383 69.0041 19.1807 68.7972C18.5582 68.9791 17.9931 69.3209 17.5405 69.7893C17.9788 69.4395 19.2443 69.4181 19.2797 68.997V69.0041ZM18.8414 2.14121C19.9584 3.61151 20.2553 5.66708 21.7047 6.60207C21.2451 4.99616 19.8382 3.42594 19.0888 1.77007C18.9969 1.91995 18.8979 2.02701 18.8414 2.14121ZM20.5523 2.99056C20.4038 2.7693 20.3119 2.48381 20.0574 2.36961C20.0337 2.4467 20.0286 2.52839 20.0425 2.60788C20.0564 2.68736 20.0889 2.76235 20.1373 2.82658C20.1858 2.89082 20.2487 2.94245 20.3208 2.97718C20.393 3.01191 20.4724 3.02873 20.5523 3.02625V2.99056ZM21.4289 5.05326C21.7612 5.61711 22.0087 6.43078 22.7227 6.61635C21.7824 5.71704 21.6764 4.0112 20.6513 3.19754C20.425 3.26178 20.3331 2.90491 20.3473 3.29033C20.7475 3.86708 21.1089 4.47036 21.4289 5.09609V5.05326ZM20.9553 71.6521C21.0472 71.2239 21.4148 70.5315 21.2876 70.2246C21.0684 70.5173 20.8209 71.752 20.9553 71.6949V71.6521ZM23.0762 67.5909C22.7227 68.0549 21.9592 68.0906 21.6623 68.5902C21.9026 68.6758 22.3692 68.8043 22.5743 68.5902C22.1147 68.0549 23.2742 67.9764 23.0621 67.6338L23.0762 67.5909ZM23.6772 68.112C23.5004 68.4474 22.9702 68.4474 22.85 68.8257C23.1611 68.7401 23.9883 68.6044 23.663 68.1548L23.6772 68.112ZM25.5083 68.0406C24.7993 68.3116 24.1135 68.641 23.458 69.0256C23.7997 69.0754 24.1375 69.1493 24.469 69.2468C24.7872 68.947 25.4517 68.3903 25.4871 68.0834L25.5083 68.0406ZM28.7039 25.1592C28.4824 25.1592 28.3834 25.0546 28.407 24.8452C29.1139 23.2964 29.3473 21.2765 30.5279 20.1702C30.3795 21.3408 29.4462 22.5827 29.1139 23.9388C29.1776 24.2885 29.4604 23.4962 29.524 23.846C29.3897 24.4027 28.9655 24.6525 28.817 25.1664C30.1744 24.3955 30.839 22.3114 31.3268 21.0124C31.2915 21.1552 30.8037 21.355 30.7188 21.1052C31.1925 19.5493 33.7942 18.6285 32.6206 16.937C32.2883 17.6008 31.3622 18.1932 31.3692 18.8641C31.5939 18.5318 31.9187 18.2815 32.2954 18.1503C31.5884 18.5714 31.143 19.7919 30.2381 19.6492C30.5633 18.7784 31.652 18.1075 31.7015 17.3224C30.033 19.6849 27.8272 22.0259 27.4949 25.4447C27.3542 25.705 27.1368 25.9145 26.8728 26.0443C26.5758 24.9594 27.7212 23.9459 27.5374 22.9823C26.5617 23.7675 26.1729 25.5589 26.0527 26.6438C26.8162 26.1014 27.905 25.8159 28.6898 25.2092L28.7039 25.1592ZM29.5735 66.5203C28.5271 67.2341 27.4525 67.9478 26.392 68.6116C26.5617 68.6116 26.6395 68.7329 26.392 68.7115C26.1446 68.5616 25.6285 69.0256 25.3669 69.204C25.7762 69.1697 26.1882 69.2108 26.5829 69.3253C28.1807 67.384 31.6238 66.8058 32.656 64.6218C31.5601 64.9501 30.5774 65.8137 29.5735 66.5203ZM33.2286 27.6431C32.0692 28.3068 30.2663 28.8564 29.5381 29.6272C30.6623 28.9421 32.4439 28.3711 33.2286 27.6431ZM31.2703 68.3975C30.4649 68.6556 29.697 69.0204 28.9867 69.4823C30.0755 69.4395 30.5067 68.7401 31.2703 68.3975ZM31.2703 23.3107C31.2137 23.7032 30.5633 24.0244 30.7471 24.3242C30.9619 24.1815 31.2019 24.0822 31.4541 24.0315C31.2066 23.0823 32.5075 22.3757 32.4085 21.5906C32.2388 21.7048 32.0762 21.9903 31.8995 21.7833C32.5711 20.5699 34.7275 19.1424 33.3842 18.2146C32.9084 18.579 32.5474 19.0748 32.3449 19.6421C32.8044 19.4565 33.1226 18.5786 33.6811 18.8427C31.9702 19.7777 31.1077 22.6897 30.4007 24.0101C30.839 23.9102 30.8319 23.382 31.2561 23.3035L31.2703 23.3107ZM35.4203 12.5261C34.3598 12.469 33.8225 13.818 33.1509 14.7387C32.5782 15.5167 31.9985 16.1662 31.5884 16.8799C32.1187 16.6229 31.8359 17.1154 31.9843 17.2939C33.0448 15.7022 34.2396 14.4032 35.4062 12.519L35.4203 12.5261ZM37.0817 10.2992C35.4769 9.34996 33.4902 8.7647 31.744 7.95104C33.4419 8.90321 35.2271 9.68722 37.0747 10.2921L37.0817 10.2992ZM33.5044 22.7325C33.8932 21.7833 34.5507 21.1124 34.8689 20.0917C34.6002 19.849 34.5507 19.378 34.1619 19.2566C33.5326 20.4343 32.8963 21.6191 32.2742 22.8253C32.557 22.9681 32.5358 22.29 32.6842 22.6255C32.6842 23.1679 32.1328 23.1608 32.055 23.639C32.2954 23.639 32.4934 23.5391 32.5711 23.3392C32.3873 23.018 33.1438 22.8396 33.5044 22.7325ZM33.8154 68.1334C33.0436 68.4562 32.2906 68.8232 31.5601 69.2325C32.4107 69.1321 33.2029 68.7448 33.8084 68.1334H33.8154ZM32.9034 16.7443C33.1014 16.887 33.3418 16.9941 33.4054 17.2653C33.521 17.2407 33.6287 17.1872 33.7186 17.1097C33.8085 17.0322 33.8777 16.9332 33.9199 16.8217C33.9621 16.7102 33.976 16.5899 33.9602 16.4716C33.9444 16.3533 33.8995 16.241 33.8296 16.1447C34.3386 16.0591 35.1375 15.9592 34.8689 14.9314C35.8233 14.7458 35.9788 13.7323 36.5232 13.1185C36.2687 13.0257 36.1273 12.833 35.8162 12.7973C34.7226 14.0305 33.7451 15.3638 32.8963 16.78L32.9034 16.7443ZM41.4934 18.5572C41.5116 18.491 41.5535 18.4339 41.6109 18.397C41.6684 18.3601 41.7373 18.346 41.8044 18.3573C40.949 16.5373 39.7966 15.0099 38.9765 13.1827C37.1736 12.2192 35.7526 10.8845 33.6528 10.2136C33.5326 10.4919 32.9458 10.6632 33.2357 11.0272C34.6497 11.327 35.9364 13.1185 37.2656 12.5332C37.407 12.8259 36.9403 13.0828 37.3575 13.0471C37.5059 13.1042 37.612 13.2041 37.7604 13.2612C37.7604 12.9686 37.7604 12.7045 38.0715 12.7545C39.33 14.5745 40.1571 16.8228 41.4934 18.5572ZM34.1124 17.1297C33.9857 17.3086 33.8462 17.4779 33.6952 17.6365C33.8398 18.0086 34.0847 18.3325 34.4022 18.5714C34.579 18.3716 35.1092 18.0147 34.8264 17.6579C34.7769 17.8292 34.381 18.1503 34.3174 17.9576C34.4659 17.8434 34.275 17.2225 34.1124 17.1297ZM35.0668 20.5271C34.9678 21.1552 34.275 21.7119 34.3598 22.1544C34.5578 21.6405 35.6324 21.1766 35.0668 20.5057V20.5271ZM33.5963 68.8471C34.174 68.6542 34.7252 68.388 35.2365 68.0549C34.6426 67.8907 34.0982 68.5616 33.5963 68.8471ZM35.7667 26.5653C36.5868 26.0229 34.2114 27.2148 34.4376 27.1577C34.9029 27.0156 35.3492 26.8166 35.7667 26.5653ZM35.1799 19.692C35.5334 18.9783 35.59 18.7499 35.1092 18.1503C34.989 18.5072 34.5861 18.5786 34.5861 19.0639C34.8971 19.1567 34.9042 19.5493 35.1799 19.6849V19.692ZM34.9254 17.0226C35.3001 17.0655 35.2011 16.6087 35.6324 16.73C35.491 16.9941 35.1375 17.0441 35.1163 17.4437C35.5971 17.3581 35.7031 16.8799 35.9435 16.5373C35.4132 16.5373 35.6253 15.7807 35.1446 15.7022C34.8406 16.1733 34.4447 16.4945 34.9254 17.0226ZM36.2828 9.17153C35.9718 9.06447 35.4132 8.67905 35.0668 8.94313C35.491 8.88603 36.0566 9.62832 36.2828 9.15725V9.17153ZM35.5758 21.5549C35.4062 21.3193 34.8194 21.8903 35.0597 22.0545C35.1304 21.7904 35.6041 21.9403 35.5546 21.5406L35.5758 21.5549ZM35.696 20.6342C35.807 20.5625 35.8982 20.4638 35.9615 20.3472C36.0247 20.2306 36.0579 20.0998 36.0579 19.9668C36.0579 19.8339 36.0247 19.703 35.9615 19.5864C35.8982 19.4698 35.807 19.3711 35.696 19.2995C35.4203 19.6206 35.1941 20.3415 35.6678 20.6199L35.696 20.6342ZM36.0425 18.286C35.9969 18.5161 35.9985 18.7533 36.0471 18.9828C36.0958 19.2124 36.1904 19.4294 36.3253 19.6206C36.7495 19.5421 36.7565 19.0282 37.2514 19.0211C37.0412 18.2326 36.6291 17.5138 36.0566 16.937C35.5334 17.2724 35.1587 18.6571 36.0142 18.2717L36.0425 18.286ZM36.5727 15.7022C36.4949 15.3239 35.7879 14.9885 36.2899 14.6744C37.7817 15.8735 38.2553 18.0576 39.3441 19.6706C39.4855 19.5064 39.7966 19.5207 39.9592 19.378C39.5067 18.4787 39.0189 17.5794 38.4816 16.6872C37.9443 15.795 37.2161 14.9314 37.209 13.8965C37.8029 14.0035 37.7958 14.7173 38.0008 15.1384C38.656 16.5293 39.4495 17.8494 40.3692 19.0782C40.6238 19.0782 40.6874 18.9212 40.8783 18.8855C40.1529 16.9064 39.1247 15.0544 37.8311 13.3969C37.6685 14.0249 37.2938 13.3969 36.9191 13.3969C36.0566 13.8608 34.7345 16.416 36.5727 15.7022ZM35.9718 21.1195C36.0707 20.8411 36.2899 20.6841 36.3889 20.4058C36.1485 20.1559 35.491 20.9839 35.9647 21.1409L35.9718 21.1195ZM37.3857 25.2449C36.9615 24.7453 36.4808 25.4019 35.9718 25.4233C35.9296 25.6346 35.8582 25.8388 35.7597 26.03C36.3421 25.8472 36.8983 25.588 37.414 25.2592L37.3857 25.2449ZM37.3857 25.6517C36.9609 25.8627 36.55 26.1011 36.1556 26.3655C36.5868 26.2084 37.4706 25.9515 37.407 25.6945L37.3857 25.6517ZM36.3253 16.6158C37.136 17.7508 37.7635 19.0083 38.1846 20.3415C38.4764 20.2758 38.7306 20.0962 38.8916 19.8419C38.3048 18.4144 37.7604 16.987 36.7282 16.0091C36.6434 16.2447 36.3818 16.316 36.3535 16.6372L36.3253 16.6158ZM36.8838 19.3922C36.8131 19.6706 36.4525 19.6421 36.4667 19.9989C36.8131 20.0632 37.0322 19.4779 36.9121 19.4137L36.8838 19.3922ZM43.1265 62.3592C42.7942 62.5734 42.5892 62.8731 42.1014 62.9516C42.1014 62.9516 41.7055 62.8375 41.6984 62.8446C41.0338 63.1658 40.2844 64.2721 39.634 64.9858C38.9666 65.7506 38.2037 66.4248 37.3645 66.9914C37.2797 67.3411 37.7746 67.127 37.6615 67.5124C37.2019 67.8978 36.0778 68.1548 36.0142 68.6116C38.8493 67.1363 41.2893 64.9914 43.1265 62.3592ZM37.0817 21.0553C37.4458 20.96 37.7702 20.7499 38.0079 20.4557C37.7251 20.1631 37.7322 19.585 37.4211 19.3209C37.1807 19.8205 36.6293 20.4414 37.0817 21.0553ZM41.4085 45.8291C39.6198 46.0932 37.8099 45.8291 36.6293 46.3572C38.2129 46.1717 40.1077 46.3073 41.4156 45.8291H41.4085ZM37.9301 47.3065C37.5798 47.2548 37.2224 47.32 36.9121 47.4921C37.3363 47.5064 37.7463 47.5206 37.9372 47.3065H37.9301ZM38.1776 44.5444C38.5381 43.7378 39.7471 42.917 40.2561 41.9178H39.2381C38.7856 43.1526 37.6685 43.6879 37.0535 44.7728C37.4395 44.7729 37.8217 44.6953 38.1776 44.5444ZM41.8963 23.6033C40.3974 24.1417 38.9609 24.8429 37.612 25.6945C39.08 25.0736 40.5148 24.3756 41.9105 23.6033H41.8963ZM38.9411 24.1672C38.4816 24.2028 38.3331 24.574 37.817 24.5597C38.0432 24.8452 37.612 25.0379 37.817 25.1735C38.0927 24.731 39.2027 24.8167 38.9553 24.16L38.9411 24.1672ZM38.0574 69.0327C37.6473 69.1469 36.7848 69.3396 37.3504 69.3253C38.1917 69.3253 38.1705 69.0541 39.0825 69.047C39.0401 68.7615 39.4643 68.9542 39.4926 68.7472C39.006 68.7943 38.5253 68.8899 38.0574 69.0327ZM43.4376 52.0172C43.9204 52.121 44.3935 52.2667 44.8516 52.4526C45.2546 52.3669 45.396 51.3962 45.7848 51.4462C45.6505 49.6904 46.4918 48.1273 46.4918 46.1289C45.3182 46.2502 45.6575 47.6134 45.5374 48.5698C45.4384 49.3549 45.1626 50.1115 45.0919 50.8181C45.1697 51.0465 45.7212 50.8181 45.5939 51.2392C43.2043 51.6889 40.037 51.8744 37.5554 52.5311C39.2805 52.6881 41.7125 51.9244 43.4376 52.0172ZM39.3017 44.6657C40.0087 43.5737 41.055 42.8171 41.8893 41.8107H40.8712C40.1271 42.8039 39.3319 43.7569 38.4886 44.6657H39.3017ZM42.7801 54.5652C41.3661 54.915 39.8178 55.0863 38.5028 55.5145C39.8461 55.386 41.8186 55.5859 42.7801 54.5652ZM41.7974 47.0639C40.8491 47.0667 39.9029 47.1527 38.9694 47.3208C39.9194 47.3735 40.872 47.287 41.7974 47.0639ZM39.8602 13.3183C40.9207 14.8029 40.0016 12.6617 39.4643 12.6974C39.839 12.8473 39.74 13.147 39.8602 13.3183ZM40.0511 14.1391C39.9451 14.1391 39.7966 14.182 39.9451 14.2391C40.6945 15.4524 41.359 17.301 42.3135 17.9719C41.861 16.7514 40.7722 15.4167 40.0511 14.1391ZM40.3975 23.3678C40.2844 23.5962 39.8956 23.5391 39.7824 23.7675C40.0158 24.2671 40.6733 23.6747 40.3905 23.3678H40.3975ZM44.5405 62.6947C42.7094 64.4434 40.4541 65.1 39.2805 67.5196C41.3101 66.2478 43.0926 64.6127 44.5405 62.6947ZM41.3449 19.7991C40.8814 19.8545 40.4491 20.0628 40.1147 20.3915C40.5624 20.268 40.9857 20.0676 41.3661 19.7991H41.3449ZM43.4659 41.7679C41.4227 41.8536 40.9702 43.6094 39.7612 44.5729C41.1278 43.8063 42.3898 42.8634 43.5154 41.7679H43.4659ZM44.8799 41.6894C44.491 41.6252 44.3779 41.8607 43.9678 41.7751C42.9993 42.917 41.6136 43.6236 40.5672 44.6871C42.2569 44.2517 43.6143 42.7672 44.9364 41.6894H44.8799ZM42.2357 22.5827C41.8044 22.5827 41.7549 22.9823 41.6136 23.2964C42.0448 23.2893 42.165 22.9681 42.2357 22.5827ZM46.612 61.8382C46.4423 61.7026 46.4918 61.3457 46.2161 61.3172C46.1242 61.4956 45.8414 61.4813 45.806 61.7169C46.0464 61.7169 46.2443 61.5099 46.315 61.8311C44.7564 63.2284 43.272 64.7079 41.8681 66.2634C41.8681 66.2063 41.9529 66.1492 41.967 66.2634C41.8044 66.4061 41.4934 66.3919 41.352 66.556C41.5641 66.7844 40.9631 67.0913 41.0338 67.2698C43.6214 66.192 44.696 63.5226 46.612 61.8097V61.8382ZM41.8398 67.6623C41.5358 67.6623 41.2247 67.6623 41.2247 67.9549C41.4509 68.1833 41.6206 67.7622 41.8398 67.6623ZM47.1776 41.6252C44.392 41.6252 43.7062 43.7664 41.7479 44.6015C44.7597 44.8227 45.396 42.4103 47.1705 41.6323L47.1776 41.6252ZM43.0487 67.8907C42.9286 68.5117 41.5287 68.3689 41.4015 69.3182C41.8893 68.8257 43.1265 68.5902 43.0487 67.8907ZM42.4195 51.3891C42.4195 51.1821 42.4195 50.9823 42.4195 50.7753C42.0731 50.6896 42.0307 50.918 41.7125 50.8681C41.7125 51.0751 41.7125 51.2749 41.7125 51.4819C41.96 51.4462 42.1014 51.3177 42.4195 51.3891ZM42.4195 50.4684C42.5044 50.2471 42.674 49.8974 42.5326 49.7546C42.264 49.8189 41.8963 49.7546 41.7196 49.9474C41.9458 49.9474 41.5853 50.2043 41.7196 50.4612L42.4195 50.4684ZM42.6387 49.4477C42.5892 49.048 42.8296 48.9481 42.7589 48.527C42.3842 48.4485 42.3205 48.6912 41.9458 48.6127C41.9953 49.0124 41.7549 49.1123 41.8256 49.5334C42.2216 49.4549 42.2286 49.5191 42.667 49.4406L42.6387 49.4477ZM42.8649 48.2201C42.8649 47.9822 42.8649 47.7443 42.8649 47.5064H42.0519V48.2201H42.8649ZM43.3174 68.6187C42.8252 68.7926 42.3713 69.0617 41.9812 69.411C42.1014 69.411 42.2711 69.411 42.2852 69.518C42.2428 69.8606 41.656 69.6251 41.7691 70.1247C42.3347 69.6394 43.3174 69.6322 43.3457 68.6116L43.3174 68.6187ZM43.1265 18.807C42.7872 18.7285 42.7518 18.9711 42.7165 19.2067C43.0228 19.2495 43.1595 19.1163 43.1265 18.807ZM46.1383 60.7747C45.1768 61.0531 44.5971 61.7383 43.678 62.0595C43.7133 62.9873 42.3205 63.7368 42.1155 64.3863C43.3881 63.1301 44.9293 62.1308 46.1242 60.7747H46.1383ZM42.4973 70.5458C42.6245 70.8028 42.0872 70.8599 42.3912 70.9526C42.6316 70.4959 43.9325 70.1889 43.3315 69.5252C42.9639 69.9391 42.3559 70.1033 41.9953 70.5244C42.1721 70.6029 42.4195 70.246 42.4973 70.5458ZM43.48 55.2932C43.0275 55.022 42.3276 55.6858 42.3559 55.8856C42.667 55.6287 43.2821 55.6715 43.48 55.2932ZM43.8335 22.4042C43.7769 22.2543 43.9608 21.8761 43.7416 21.8903C43.4659 22.0259 42.8791 22.3685 43.1194 22.6969C43.2821 22.497 43.6002 22.4827 43.8335 22.4042ZM44.9081 18.9426C44.6041 19.0425 44.0951 18.9426 43.989 19.2352C44.1092 19.2352 44.2789 19.2352 44.293 19.3423C43.9183 20.056 43.5154 20.7698 43.1407 21.4835C43.8124 20.6917 44.4133 19.8414 44.9364 18.9426H44.9081ZM44.4698 51.1107C45.2899 49.9188 44.8728 47.4635 45.3677 46.2074H44.7597C44.4981 47.3993 44.5405 48.8054 44.286 49.9902C44.2436 50.2328 44.7455 49.9402 44.5829 50.3042C44.3143 50.5112 43.982 50.6468 43.8759 51.018C43.7275 50.9252 43.4871 50.9323 43.579 50.604C43.2255 50.6896 42.7801 50.6754 42.872 51.2035C43.4941 51.2749 43.8335 51.0536 44.4698 51.1107ZM43.7204 70.4673C43.3103 70.6315 42.6458 71.0811 42.6882 71.3737C42.9144 70.9455 43.5861 70.9883 43.7204 70.4673ZM43.7769 50.1757C43.7597 50.0315 43.7976 49.886 43.883 49.7689C43.685 49.5619 43.3033 49.6904 43.07 49.7689C43.0865 49.9132 43.0486 50.0584 42.9639 50.1757C43.0859 50.2486 43.2251 50.287 43.3669 50.287C43.5087 50.287 43.6478 50.2486 43.7699 50.1757H43.7769ZM43.8971 54.9935C45.4667 53.566 46.5766 52.1385 48.033 50.7681C48.5986 51.2892 48.3936 52.5668 48.9026 53.1378C48.8178 52.2813 48.9026 51.2321 48.337 50.8752C48.5562 50.4969 48.4007 50.1615 48.4572 49.6476C48.6198 48.3557 49.4541 46.1931 48.4219 46.0789C47.7149 47.5635 48.231 50.1829 47.418 51.0751C47.0786 49.6833 47.8068 47.6777 47.9128 46.0789C47.5722 46.089 47.2324 46.1176 46.8948 46.1645C46.8948 47.9703 46.1878 49.5191 46.1878 50.968C46.3292 50.811 46.4352 50.3899 46.6968 50.6682C46.0817 51.7674 45.1132 52.4883 44.4132 53.5232C44.6819 53.5232 44.8516 53.566 44.8162 53.8372C44.3779 54.3226 43.0063 54.3797 43.07 55.0363C43.2467 54.6937 43.5366 55.1291 43.8901 54.9935H43.8971ZM43.6921 49.3549C44.0754 48.3812 44.2652 47.3408 44.2506 46.293H43.5436C43.3527 46.914 43.7982 46.9211 43.9325 47.2209C43.9325 47.485 43.5861 47.4207 43.3174 47.4136C43.3174 47.6848 43.3174 47.9988 43.2043 48.1273C43.4729 48.1273 43.6426 48.1701 43.6073 48.4414C43.176 48.4414 43.0982 48.8839 43.0841 49.3549H43.6921ZM43.4871 72.1945C43.1548 72.2945 42.6387 72.7084 43.07 73.0082C43.3457 72.4515 44.4839 72.0375 43.7133 71.2738C43.4871 71.6949 43.0063 71.852 42.7801 72.2802C43.0417 72.3516 43.2962 71.8805 43.48 72.2017L43.4871 72.1945ZM43.1265 73.8361C43.4941 73.9075 44.3708 73.051 44.0668 72.4087C43.8759 72.944 42.8791 73.151 43.1265 73.8361ZM44.4557 73.3508C44.1243 73.5004 43.8412 73.741 43.6387 74.0451C43.4362 74.3492 43.3224 74.7047 43.3103 75.0709C43.8759 74.6712 44.7667 74.3001 44.4769 73.3508H44.4557ZM48.8744 41.668H47.3543C46.2878 42.7466 45.1518 43.7528 43.9537 44.68C45.9969 44.3945 47.5664 42.6815 48.8956 41.6609L48.8744 41.668ZM43.8476 78.9822C44.0244 78.3113 43.4871 78.14 43.6638 77.7474C43.2396 77.9901 43.7769 78.8394 43.8689 78.9751L43.8476 78.9822ZM44.0103 75.4992C43.8759 75.8703 43.2326 75.9774 43.6921 76.4127C44.0173 75.7989 45.2263 75.285 44.6395 74.3786C44.4698 74.7711 43.3315 75.4278 44.0315 75.492L44.0103 75.4992ZM46.8806 62.5377C45.7707 63.0159 44.5193 64.7931 43.8759 65.7638C44.8092 64.6503 46.5059 63.8224 46.9018 62.5305L46.8806 62.5377ZM45.707 21.3122C45.5586 21.3122 45.6222 21.0624 45.6151 20.8982C45.1344 21.0909 44.6324 21.2622 44.5829 21.9046C44.993 21.7847 45.3752 21.5833 45.707 21.3122ZM44.187 78.1614C44.5264 77.6618 44.2718 77.155 44.3213 76.4199C43.4941 76.6126 44.0173 77.5761 44.187 78.1614ZM45.5303 19.9846C45.2121 20.0346 45.1556 20.3629 45.1132 20.6984C45.5161 20.6984 45.5656 20.4058 45.5303 19.9846ZM45.4313 82.5937C45.0566 81.2091 44.9647 79.5603 44.392 78.3755C44.5049 79.8276 44.8561 81.2507 45.4313 82.5866V82.5937ZM45.9545 60.3608C45.5586 60.1538 44.795 60.9318 44.8233 61.1602C45.0566 60.7747 45.6646 60.7462 45.9545 60.3608ZM44.8162 76.9409C44.9364 76.5198 44.7314 75.9203 45.1414 75.6134C44.5405 75.3207 44.5405 76.5127 44.8162 76.9409ZM45.1061 83.3003C45.0498 82.7568 44.8863 82.2302 44.6253 81.7515C44.6991 82.2921 44.8641 82.816 45.1132 83.3003H45.1061ZM44.9081 77.4548C44.9081 80.3097 46.004 83.0219 46.5837 85.8912C46.1878 85.8127 46.315 85.1774 45.9898 85.0632C46.4494 87.2044 47.2129 89.1101 47.5028 91.444C48.1677 91.2299 48.8486 91.07 49.5389 90.9658C49.0935 87.026 47.3048 82.7721 46.0959 78.9108C46.2019 81.2233 47.4745 82.9363 47.3048 85.1846C46.407 82.7935 45.8272 79.5246 44.9152 77.4548H44.9081ZM45.9545 20.2916C46.5625 20.2916 46.0252 19.4708 45.8696 19.2638C45.7636 19.7134 46.004 19.849 45.9545 20.2916ZM50.0409 41.7822H49.3339C48.3088 42.9313 46.8948 43.6807 45.6293 44.5872C47.8916 44.5015 48.7047 42.8885 50.0126 41.7822H50.0409ZM47.0503 90.195C46.5524 87.8928 45.9149 85.6236 45.1414 83.4002C45.5785 85.7167 46.2076 87.992 47.022 90.2021L47.0503 90.195ZM45.6363 77.9758C45.502 77.569 45.707 76.8338 45.3535 76.6411C45.2705 77.1057 45.3639 77.5848 45.6151 77.983L45.6363 77.9758ZM46.6615 58.8405C46.5818 58.5767 46.4468 58.3332 46.2656 58.1268C46.2656 58.3647 46.2656 58.6026 46.2656 58.8405H46.6615ZM47.0432 60.268C46.9796 60.5178 46.9443 60.789 46.6261 60.7747C46.7893 61.3217 47.0273 61.843 47.3331 62.3236C47.5311 62.1166 47.6654 61.8311 47.8563 61.6098C47.6167 60.8336 47.3237 60.0752 46.9796 59.3401C46.7955 59.3732 46.6301 59.4739 46.5152 59.6228C46.4003 59.7718 46.3441 59.9584 46.3575 60.1467C46.5484 60.2252 47.0079 60.0467 47.0432 60.2751V60.268ZM47.4674 59.3544C47.7432 59.9825 47.729 60.7105 48.1744 61.1102C49.1784 59.747 48.1744 57.9769 47.3331 56.9991C47.0291 57.3702 47.3331 57.7128 47.1139 58.1196C46.8877 58.1196 47.0786 57.6843 47.022 57.5058C46.2585 57.984 47.2059 58.762 47.4674 59.3615V59.3544ZM48.337 44.7157C49.4258 43.7021 50.9105 42.8813 51.872 42.0106C51.4718 41.9285 51.0643 41.8879 50.656 41.8893C49.5672 42.8742 48.3653 43.7378 47.2553 44.6942C47.6159 44.7442 48.026 44.4516 48.337 44.7228V44.7157ZM48.6623 55.1719C48.5633 56.007 49.037 56.9848 49.5248 57.9555C50.0268 56.0284 48.7542 54.4368 48.2946 52.8094C47.2836 53.3233 48.1886 54.6437 48.6552 55.1862L48.6623 55.1719ZM52.3174 42.5459C51.2004 42.6387 50.1116 43.9734 48.9309 44.6371C50.4863 44.8441 51.6104 43.2025 52.3174 42.5459ZM48.9451 49.4549C48.9451 49.719 49.1218 50.4041 49.2349 50.1686C49.4465 49.1586 49.5671 48.1314 49.5955 47.0995C49.447 48.0488 48.9451 48.8125 48.9592 49.4477L48.9451 49.4549ZM49.9419 56.0284C50.0833 54.6009 49.4824 53.2377 49.1006 52.0172C49.0728 53.404 49.3682 54.778 49.9631 56.0284H49.9419ZM49.3834 47.3065C49.3834 46.7926 49.6662 46.5928 49.7086 46.0789C49.1996 46.0432 49.2208 47.1067 49.4046 47.3065H49.3834ZM49.8217 51.1036C49.7369 51.3249 49.4329 51.3249 49.4046 51.6104C49.7793 52.8237 49.9136 53.6659 50.1611 54.7008C50.3738 53.6542 50.5273 52.5961 50.6206 51.5318C49.8571 50.8181 50.6701 48.2986 50.3873 47.4279C50.0438 48.623 49.8607 49.8593 49.8429 51.1036H49.8217ZM50.5287 45.9932C50.0692 46.1717 49.9843 47.2994 50.0904 47.7276C50.1686 47.1319 50.3231 46.5489 50.5499 45.9932H50.5287ZM52.7911 44.2945C53.1495 43.8303 53.3392 43.2558 53.3284 42.6672C52.4234 42.8171 51.1721 44.0091 50.755 44.6728C51.5114 44.6015 51.9568 44.2517 52.8123 44.2945H52.7911ZM51.1084 47.6491C51.1084 48.2201 50.7549 49.2122 50.967 49.8974C51.231 49.1785 51.285 48.3981 51.1226 47.6491H51.1084Z" fill="#F93600"/>
<path fill-rule="evenodd" clip-rule="evenodd" d="M19.7964 10.8058C19.7257 10.7202 20.1287 10.2491 20.2135 9.99219C20.3337 10.2705 20.1145 10.8344 19.7964 10.8058Z" fill="#F93600"/>
<path fill-rule="evenodd" clip-rule="evenodd" d="M27.0215 21.7976C27.3831 21.1281 27.9183 20.5705 28.5698 20.1846C28.0608 20.6985 27.5305 21.248 27.0215 21.7976Z" fill="#F93600"/>
<path fill-rule="evenodd" clip-rule="evenodd" d="M47.4258 38.9698C47.9772 38.1562 48.9882 37.8207 49.6882 37.1641C49.9073 37.6066 48.7973 37.5495 48.861 38.1704C48.1611 38.1633 48.0762 39.2981 47.4258 38.9698Z" fill="#F93600"/>
<path fill-rule="evenodd" clip-rule="evenodd" d="M21.5917 58.7909C20.305 59.8186 18.587 59.5546 17.0033 60.0399C15.5893 60.4753 14.6137 61.9099 13.4047 62.4309C13.4613 62.5523 13.7865 62.3738 14.0127 62.5451C13.7299 62.7735 13.1714 63.2589 12.6836 62.9305C12.924 61.967 14.0976 61.5958 14.953 61.0249C15.8085 60.4539 16.6427 59.5974 17.6255 59.3333C16.9609 59.1263 16.162 59.6759 15.3843 59.7044C15.3843 59.0978 15.8156 59.162 16.4094 59.112C17.8941 58.9764 19.7535 58.1342 21.1958 58.277C21.2806 58.4625 21.5139 58.5839 21.2877 58.7909C21.3301 58.9407 21.422 58.748 21.5917 58.7909ZM21.2099 58.6838C20.0151 58.4982 18.3819 58.6838 17.8446 59.5474C19.0111 59.4819 20.154 59.1886 21.2099 58.6838Z" fill="#F93600"/>
</g>
<defs>
<clipPath id="clip0_347_2209">
<rect width="54" height="93" fill="white"/>
</clipPath>
</defs>
</svg>
