<svg width="72" height="93" viewBox="0 0 72 93" fill="none" xmlns="http://www.w3.org/2000/svg">
<path fill-rule="evenodd" clip-rule="evenodd" d="M31.863 91.5916C32.5266 90.6757 33.8042 90.3727 35.0254 90.0134C33.9524 89.4427 31.5595 90.1825 30.4795 89.6188C31.1854 88.245 33.8042 87.9209 35.823 87.2516C37.1501 86.8147 38.3007 85.9341 39.183 86.2652C37.4748 87.9138 34.4607 88.2661 31.863 89.027C34.0442 89.8091 36.3877 88.3788 37.9971 89.4216C36.5783 90.6334 32.456 91.4295 31.863 91.5916Z" fill="#F93600"/>
<path fill-rule="evenodd" clip-rule="evenodd" d="M47.4922 89.6247C48.7487 88.3072 51.7275 86.8629 53.224 87.0602C51.664 88.2649 49.3275 88.6947 47.4922 89.6247Z" fill="#F93600"/>
<path fill-rule="evenodd" clip-rule="evenodd" d="M58.1719 88.0685C58.3766 86.272 60.3883 85.8704 61.5319 85.1095C62.6754 84.3486 63.7342 82.9958 65.2872 82.7422C63.9813 84.5317 61.8001 85.4476 59.9507 86.6876C60.1483 87.2442 60.7907 86.6313 61.1366 86.6876C60.2958 87.4135 59.2693 87.8916 58.1719 88.0685Z" fill="#F93600"/>
<path fill-rule="evenodd" clip-rule="evenodd" d="M29.4707 83.7003C30.226 82.0375 35.5131 82.5448 36.9884 81.7275C36.0636 83.1366 33.6072 82.9605 31.6448 83.3057C32.1531 83.9609 29.9084 84.6091 29.4707 83.7003Z" fill="#F93600"/>
<path fill-rule="evenodd" clip-rule="evenodd" d="M48.8752 69.2924H48.2823C47.7317 67.0097 46.1647 64.6847 46.3058 62.3809C47.5905 64.114 48.0776 67.7002 48.8752 69.2924Z" fill="#F93600"/>
<path fill-rule="evenodd" clip-rule="evenodd" d="M15.4521 65.9386C14.0051 65.3679 15.798 63.7404 16.0451 62.9795C17.4286 63.4797 15.4098 64.8818 15.4521 65.9386Z" fill="#F93600"/>
<path fill-rule="evenodd" clip-rule="evenodd" d="M21.7765 65.5226C21.4589 65.579 21.4377 65.3394 21.1836 65.3253C21.3177 63.6133 21.6707 62.1267 22.9624 61.5771C23.0259 62.6128 21.9812 64.1135 21.7765 65.5226Z" fill="#F93600"/>
<path fill-rule="evenodd" clip-rule="evenodd" d="M18.4163 65.5226C18.3275 64.9253 18.4333 64.3154 18.7179 63.7827C19.0026 63.25 19.4511 62.8226 19.9975 62.5635C19.9975 63.6414 19.3199 65.1421 18.4163 65.5226Z" fill="#F93600"/>
<path fill-rule="evenodd" clip-rule="evenodd" d="M13.2707 65.5225C13.0095 65.4521 12.9601 65.1773 12.6777 65.128C12.8613 64.191 12.9883 63.1975 14.0895 63.1553C13.673 63.8316 13.6448 64.8532 13.2707 65.5225Z" fill="#F93600"/>
<path fill-rule="evenodd" clip-rule="evenodd" d="M9.12034 41.8497C8.05446 41.5609 7.54622 39.7854 7.93446 38.6934C8.81681 39.2288 9.16975 41.0043 9.12034 41.8497Z" fill="#F93600"/>
<path fill-rule="evenodd" clip-rule="evenodd" d="M48.8756 35.5372C47.1886 35.2483 46.0521 34.4381 45.5156 32.9727C46.8921 33.5645 48.2262 34.2127 48.8756 35.5372Z" fill="#F93600"/>
<path fill-rule="evenodd" clip-rule="evenodd" d="M56.7887 32.4094C56.4574 32.2572 56.161 32.0386 55.9181 31.7671C55.6752 31.4955 55.491 31.1769 55.377 30.8312C56.5558 30.6339 56.5558 31.6203 56.7887 32.4094Z" fill="#F93600"/>
<path fill-rule="evenodd" clip-rule="evenodd" d="M59.95 89.8224C59.0676 88.3429 61.4606 87.8145 62.9147 86.8634C64.0935 86.0884 64.3264 85.3063 65.6817 85.2852C65.8175 85.2351 65.9408 85.1563 66.0432 85.0541C66.1455 84.952 66.2245 84.8289 66.2747 84.6934C65.237 86.659 61.5241 87.7088 59.95 89.8224Z" fill="#F93600"/>
<path fill-rule="evenodd" clip-rule="evenodd" d="M28.1084 86.8634C29.4708 84.8695 35.0543 84.8413 37.4049 83.9043C36.6496 85.3134 32.139 85.3134 29.6896 86.4688C29.7813 86.7929 31.186 86.7929 31.2708 86.4688C31.8425 87.4129 28.8708 87.6102 28.1084 86.8634Z" fill="#F93600"/>
<path fill-rule="evenodd" clip-rule="evenodd" d="M57.4978 86.977C56.3833 87.4825 55.425 87.1123 54.3177 87.3757C54.7152 86.1725 56.3407 86.2081 56.9015 85.183C53.5368 86.4573 49.5333 88.8281 45.5439 90.1665C45.3097 90.1665 45.3736 90.5296 45.3452 90.7645C44.1242 90.6293 43.2156 91.9036 42.3638 90.9639C45.913 88.8281 50.4632 87.7815 54.0976 85.7739C54.3815 84.7985 55.1056 84.2503 55.6877 83.5811C50.5413 85.005 46.5945 87.6249 41.3629 88.9704C41.732 89.5827 42.307 88.7426 42.953 88.9704C41.9663 89.4474 40.3904 90.3943 39.1695 89.9672C39.3114 88.5931 41.2067 88.6074 42.3496 88.1731C45.7498 86.8774 50.0302 84.9979 53.4871 83.5882C52.9406 82.6556 53.6646 82.1216 54.0834 81.5948C51.8111 82.6433 49.4868 83.5748 47.1198 84.3856C44.8057 85.1972 42.6264 86.6068 40.3549 86.7777C40.5608 85.4321 42.2786 85.4749 43.1375 85.183C49.9095 82.9048 56.8518 80.2635 61.4374 75.6074C61.7001 75.3511 62.1473 75.344 62.2325 75.8068C63.4392 75.0948 63.9929 73.7208 65.2138 73.016C64.9015 75.7 61.2316 76.7252 60.2449 79.4234C58.3709 79.2597 57.3061 81.1321 56.071 82.2142C60.0603 80.4272 62.921 77.5154 66.6122 75.4295C66.3922 73.6567 65.7604 72.2898 65.6185 70.4459C64.0284 72.1759 61.7427 73.2082 61.0399 75.8281C57.9095 76.6753 56.5111 80.3347 53.0825 80.2208C52.6069 79.2098 54.5022 79.0318 54.8713 78.2274C51.1801 80.5055 46.268 81.5735 42.5413 83.816C41.6681 83.9727 40.9583 84.4853 40.5537 83.816C44.1029 81.6162 49.0719 80.7618 52.685 78.626C53.0115 78.4125 52.1739 78.0209 52.685 77.43C57.15 74.7887 60.6992 71.2433 64.0426 67.4629C61.0328 70.0971 58.0586 72.7668 54.4951 74.8457C54.0195 75.2515 54.7649 75.6359 54.2964 76.0417C52.0958 77.0883 49.9521 78.4267 47.5315 79.4305C45.2245 80.3916 42.8749 81.8511 40.3691 82.022C43.7267 79.6441 49.0932 79.1742 51.7267 75.6146C48.5537 77.8216 43.3079 77.9426 40.1917 80.2065C39.4392 80.1638 38.3886 80.413 38.2041 79.8079C37.2884 79.6868 37.0612 80.2564 36.2165 80.2065C35.6699 80.4059 37.1251 80.5483 36.4153 81.0039C33.7533 81.2317 31.1198 82.8621 28.8554 81.8013C29.9698 80.7262 32.6886 81.2531 34.4206 80.8046C31.1766 80.2421 27.7409 81.0039 24.8731 81.0039C24.9299 82.7766 24.7737 85.2328 25.2706 87.4113C25.7462 89.4546 27.6202 91.1561 27.0594 93C26.165 92.6156 25.5972 93.1495 25.2706 92.2026C24.5608 92.0531 25.0151 93.0142 24.2768 92.8007C22.7649 91.8253 22.4738 88.8565 21.693 86.0159C20.323 81.0324 17.6398 74.5538 23.2831 72.6529C23.9929 73.3221 24.362 72.9804 25.0719 73.0516C25.8953 73.6211 25.9592 74.9525 25.8669 76.4404C26.3709 76.6967 27.7196 76.3834 28.4508 76.2411C28.2591 75.8353 27.6841 75.8139 27.0311 75.8424C26.184 73.3031 25.3227 70.7758 24.4472 68.2603C20.9831 68.4952 18.378 69.6343 15.2972 69.4563C13.1677 69.3353 11.4712 68.2674 9.12866 68.4596C5.82786 63.9104 2.39929 59.5035 0.795031 53.2598C1.22804 51.2308 4.58563 50.0775 7.55989 50.6684C8.02839 51.1169 7.15528 51.1027 7.16238 51.6651C10.0018 52.1563 11.4215 54.0429 12.9335 55.8513C15.9381 55.6804 18.8586 54.7919 21.4516 53.2598C20.1526 47.9203 15.2405 46.1903 12.1029 42.6876C10.2005 44.4318 8.4685 46.3541 7.73026 49.273C4.81278 50.8606 2.3567 48.1197 0 47.2796C0.327434 43.6235 1.2682 40.0492 2.78261 36.7073C3.54925 35.2194 4.41526 33.2829 4.96894 32.749C5.52263 32.215 5.1606 32.9341 5.96273 32.5496C7.02041 32.0371 6.38864 31.6811 7.75865 31.3251C10.1792 30.6701 10.378 29.9012 12.5288 30.7271C15.9645 32.0726 20.8199 32.4642 24.2626 34.2868C23.8012 24.9177 20.4862 13.6264 16.7099 5.58869C17.5688 2.59144 19.024 0.199342 22.6726 0C23.5457 0.405803 23.3824 0.840083 24.4614 0.797367C28.8057 7.91671 33.2635 15.9616 36.394 24.5333C37.4871 27.5091 37.622 31.3251 39.7516 34.1088C39.3256 25.0103 37.1322 16.0256 34.5839 7.97367C35.2156 6.3291 36.9122 5.78803 38.3886 4.98354C39.6451 5.64564 41.6752 5.69548 42.9672 6.77762C46.0692 13.6407 49.0506 20.6461 51.1091 28.5272C53.0541 25.7364 50.9814 17.6275 53.0967 14.9649C54.339 13.4057 56.724 14.0749 58.8678 13.9682C58.8678 15.15 59.5776 15.6341 60.2875 16.1609C62.1118 29.1039 61.047 43.5063 56.8873 55.4526C57.0364 57.5884 56.4117 59.7669 57.6823 61.4399C59.9113 61.2406 62.3035 60.2795 64.646 60.8419C65.8953 62.7143 66.5129 64.5938 67.2298 67.4273C68.4224 72.119 70.7791 76.7679 72 80.9897C70.9068 80.6475 69.7467 80.5791 68.6211 80.7903C68.1325 79.9958 67.7955 79.117 67.6273 78.1989C65.1074 79.6583 63.6025 82.143 61.2387 83.7876C63.6522 83.1468 64.7311 81.1676 67.2085 80.5981C64.0923 83.2536 60.4224 85.3609 57.8598 88.5789C56.6886 88.3368 55.9006 89.6468 54.8784 89.3763C55.3682 88.1802 56.8305 87.9809 57.4978 86.977ZM63.4676 79.5943C61.1677 81.2104 58.3496 82.3139 56.504 84.3856C57.2138 84.293 57.654 83.9442 58.4916 83.9869C59.7835 81.3385 68.7773 79.4021 66.6477 75.8068C65.3416 76.9601 63.5244 78.6545 62.8713 79.7936C63.1056 79.7794 63.1269 79.5373 63.4463 79.5943H63.4676ZM55.8935 81.1605C55.3682 81.3599 54.7649 81.488 54.701 82.1572C55.3682 82.1145 55.5599 81.5877 55.8935 81.1605ZM65.2422 69.6201C65.1003 69.0292 65.1854 68.1962 64.646 68.0253C63.8864 68.7942 63.0843 69.5133 62.2609 70.2181C62.1118 70.8304 62.8075 70.6025 62.6584 71.2148C61.6659 72.2413 60.5272 73.1146 59.2795 73.8062C59.3576 75.3511 56.6815 75.8566 55.9006 77.1951C59.5421 75.2088 62.4099 72.4322 65.2422 69.6201ZM58.6761 34.7353C59.5067 31.6384 58.4206 29.887 57.8811 28.3279C58.2502 28.577 59.0807 30.1931 59.3008 29.3246C60.252 27.1888 57.4694 25.9785 58.307 23.9352C58.307 24.9035 59.1801 25.053 59.3008 25.9287C59.9184 23.5294 59.1233 21.1729 58.307 19.1439C58.882 18.9019 59.2156 20.34 59.3008 19.3433C59.0093 18.2953 58.4629 17.3364 57.7107 16.5525C57.0932 17.421 55.7374 16.6806 54.9281 16.5525C52.9831 22.8673 54.1402 31.0617 50.953 36.1022C50.5129 35.1767 50.1012 35.3547 49.5333 34.6783C50.0799 33.6104 49.6894 33.1477 49.5333 31.8875C47.7445 31.8306 45.8137 30.3355 44.756 28.8974C46.3248 28.5628 48.4046 31.4533 49.3345 31.0902C49.0577 30.1077 49.0151 28.8832 48.7382 27.9007C46.7365 26.9538 44.8625 24.9106 44.3656 23.1165C46.1331 23.6718 46.772 26.4199 48.3407 26.5053C47.9161 25.7823 47.709 24.9516 47.7445 24.1132C46.1118 23.3586 44.1952 21.8208 44.1952 20.1264C45.4658 20.9095 46.1473 22.2622 47.3753 23.1165C46.85 21.4719 46.1402 20.0694 45.7498 18.3537C44.7631 17.1291 42.6761 16.0114 42.7684 14.3668C43.9255 14.737 44.1881 16.0328 45.1535 16.5596C44.5927 13.9966 41.7604 12.644 41.6043 10.3729C42.6548 10.8499 42.9601 12.0744 43.7906 12.765C43.4144 10.6292 41.6185 9.91725 40.6105 8.37947C39.5299 8.7835 38.3848 8.98617 37.2316 8.97749C39.1837 16.9298 41.8314 25.2381 42.0018 34.3152C41.3771 34.4078 41.4765 33.7813 41.008 33.7172C40.9654 34.358 41.3629 34.5644 41.2067 35.3119C40.2555 35.5754 39.9929 35.9598 38.8217 36.3087C37.9982 33.6033 33.7959 33.2473 32.8518 31.3251C35.2582 31.3251 36.4011 33.6247 38.0195 33.7172C37.3807 30.1575 33.0932 30.2857 31.4534 27.7298C33.0151 27.5163 34.2218 29.3246 35.8261 29.7233C35.6983 28.6554 35.0382 28.1214 35.0311 26.9325C33.0648 26.0426 31.0772 25.1811 29.8563 23.5437C31.5457 23.3372 32.8234 25.2025 34.4277 25.7364C34.0444 22.3334 30.5022 22.0913 28.6637 20.1549C30.1757 19.3219 31.5031 21.6855 33.0364 22.1483C32.5324 20.5963 31.6877 19.3789 31.2476 17.7628C29.7853 16.6308 27.8545 15.9758 27.0736 14.2031C28.3585 14.6445 29.1677 15.5629 30.2538 16.1965C29.9556 14.5021 28.9477 13.5196 28.6637 11.811C27.5138 10.7716 25.9308 10.1664 25.1145 8.82087C25.732 8.35099 26.378 9.17683 26.9033 9.41889C26.4419 7.02679 23.4037 7.2119 22.7294 5.03338C23.7941 4.83404 24.2342 6.30774 24.9157 5.83074C23.9006 4.15058 22.2112 3.36033 22.0763 1.42387C20.8625 2.84774 19.0949 3.75189 17.9024 5.21136C20.6282 10.0952 22.5732 16.3745 23.8651 22.7392C24.7737 27.1959 26.8607 31.4105 26.449 35.3048C25.7746 35.6252 25.6043 34.4576 25.2564 35.1055C25.6469 35.2621 25.9663 35.8174 25.6539 36.1022C20.1881 34.4861 13.9627 32.7347 7.95031 32.3147C4.39397 35.6608 2.32121 40.4948 1.19255 46.2757C2.45608 46.5676 4.03194 47.5216 5.36646 47.0731C6.1402 45.9767 3.54925 45.1794 4.77728 44.2823C5.18798 44.9532 5.82139 45.4574 6.5661 45.7062C6.70098 45.2434 7.22626 45.1722 7.36114 44.7095C6.31056 44.8234 5.83496 43.3212 6.16859 42.7161C6.87844 43.1076 7.28305 43.8623 7.95741 44.3108C8.87311 43.2358 9.8882 42.2604 10.74 41.1213C10.4135 40.1175 9.76043 38.3875 10.1437 37.3338C11.3292 37.9603 10.6122 39.4696 11.5634 40.5233C11.6488 40.3921 11.7674 40.286 11.9071 40.2159C12.0468 40.1459 12.2026 40.1143 12.3585 40.1246C12.7702 40.5091 12.9476 41.1285 13.551 41.3207C13.551 40.2314 12.6779 38.0173 13.7498 37.761C14.8429 39.8541 13.3452 42.4598 15.7374 43.1503C15.9645 41.8404 15.4392 40.1602 16.3336 39.9609C16.8092 41.2637 16.4117 42.9581 16.3336 43.9477C16.795 44.1542 16.9725 44.6596 17.7533 44.5457C17.9095 43.7057 17.6398 42.4099 18.5484 42.353C18.6548 43.7769 18.087 45.8771 19.5421 45.9127C19.6557 44.8946 19.3789 43.485 20.3372 43.3212C20.6069 45.0726 19.4641 47.0873 21.1322 47.5074C21.0911 47.1054 21.1413 46.6993 21.279 46.3196C21.4167 45.9398 21.6383 45.5962 21.9272 45.3146C22.1615 46.9806 21.5723 48.7675 22.126 50.5046C23.2689 49.7927 22.8358 47.5287 24.1136 46.945C24.7524 49.0309 21.2742 51.8359 23.7161 53.3524C21.5865 55.9011 17.5617 56.6201 13.3736 57.1399C12.6069 58.0013 13.7214 58.9624 13.5723 59.9306C9.55457 58.1508 8.67436 51.7576 3.37888 52.6831C4.82976 57.5918 7.19242 62.1812 10.3425 66.2099C14.2041 67.4202 20.0603 67.947 24.2626 66.6086C24.1278 64.9071 24.8802 63.1486 26.0515 63.4191C25.8456 64.4728 24.9583 64.843 25.0577 66.2099C25.6023 66.2002 26.141 66.325 26.6263 66.5733C27.1115 66.8216 27.5284 67.1858 27.8403 67.6338C28.2875 66.1743 27.7977 64.5582 28.8341 63.4476C29.0612 65.5193 28.2591 67.9684 28.6353 70.4317C30.126 70.9514 29.6362 74.7674 31.0204 76.0204C31.0204 75.7854 31.3327 75.8068 31.6167 75.821C30.9636 71.9979 28.7418 69.2712 30.4241 65.0495C31.276 66.5232 30.6797 68.7017 30.4241 70.033C31.8438 71.3714 31.4179 74.4826 33.008 75.6217C33.2635 75.6217 33.2848 75.3654 33.6043 75.4223C33.5333 73.2865 31.8864 71.7132 31.8154 70.2323C33.6539 70.9443 33.661 73.5713 34.5981 75.2159C35.0666 75.2159 35.1801 74.8741 35.7906 75.0165C35.677 72.8807 34.3354 70.8944 34.2005 69.4278C35.8758 70.275 35.9184 72.7597 36.5856 74.6178C40.2981 74.2192 43.0311 72.8309 46.3319 72.0264C45.9769 69.9191 44.7205 67.6338 44.7205 65.8326C46.0976 66.9218 46.4312 70.1042 46.7081 71.6206C48.1713 71.3023 49.5784 70.7647 50.882 70.0259C49.7746 67.0144 48.1633 63.4476 47.7019 60.4504C49.3771 63.2269 50.165 66.8578 51.4783 70.0259C52.5581 69.3437 53.6876 68.744 54.8571 68.2318C54.1473 63.5615 51.9468 60.4005 50.882 56.0648C50.2999 55.5878 49.3203 55.5024 49.2919 54.4701C51.2582 54.3847 52.0035 57.1897 53.6646 58.0298C55.1766 55.3956 50.3212 53.7582 49.8882 51.8502C52.1029 52.4838 52.7773 54.6979 54.6584 55.6377C53.9485 52.7899 51.819 51.4515 50.2857 49.451C52.6353 49.2374 53.0186 52.6831 54.8571 53.6443C55.9503 50.0419 52.4082 48.4115 51.1091 45.8842C53.6078 46.6388 53.9911 49.515 55.4889 51.2664C56.6176 47.8349 53.1251 46.411 52.3088 43.6843C54.2964 44.4817 54.5377 47.0375 56.2839 48.0698C56.646 44.9871 53.0044 43.4636 53.1038 40.6871C54.5235 42.1608 55.3611 44.2467 56.6531 45.8771C58.4916 42.5096 55.3895 39.9538 55.063 37.6969C56.4259 38.3306 56.4046 40.3453 57.4481 41.2566C57.8762 40.4518 58.1461 39.5721 58.2431 38.6652C58.087 38.4658 57.5333 38.7435 57.2493 38.2665C56.9867 36.4653 55.787 35.6038 55.063 34.2796C57.1571 34.5715 57.1926 36.928 58.2431 38.2665C58.8465 36.4154 57.9805 34.3793 57.8456 33.6745C58.3212 33.8738 58.1367 34.6498 58.6761 34.7068V34.7353ZM54.6939 65.0352C55.134 65.8539 55.0701 67.171 55.8864 67.6267C55.858 66.5232 55.0559 65.1491 54.6939 65.0352ZM53.7001 61.6464C53.7045 61.4301 53.6343 61.2188 53.5013 61.0484V60.4432C52.4579 60.0944 53.1251 58.0298 52.0816 57.6525C52.4063 59.0593 52.9526 60.4051 53.7001 61.6393V61.6464ZM55.6948 14.9506C55.0772 14.9506 53.4871 15.2924 54.5022 15.748C54.8287 15.4276 55.4534 15.392 55.6948 14.9506Z" fill="#F93600"/>
<path fill-rule="evenodd" clip-rule="evenodd" d="M53.1303 67.6245C52.0362 67.2089 52.0644 65.5814 51.5491 64.2709C51.1115 63.1648 50.2432 61.9459 49.9679 60.7482C49.6926 59.5505 50.0456 58.1273 49.375 57C50.3703 60.41 52.4385 64.0736 53.1303 67.6245Z" fill="#F93600"/>
</svg>
