<svg width="98" height="93" viewBox="0 0 98 93" fill="none" xmlns="http://www.w3.org/2000/svg">
<g clip-path="url(#clip0_347_2259)">
<path fill-rule="evenodd" clip-rule="evenodd" d="M5.5519 23.257C5.42595 22.7304 6.01695 22.9255 5.891 22.3989C7.93529 22.1258 8.50692 20.3706 10.464 20.0098C9.28201 21.453 7.49931 23.1497 5.5519 23.257Z" fill="#F93600"/>
<path fill-rule="evenodd" clip-rule="evenodd" d="M6.06445 21.0344C7.28521 18.6258 9.64923 18.4015 11.9939 17.1338C10.2402 18.5283 8.1475 20.4786 6.06445 21.0344Z" fill="#F93600"/>
<path fill-rule="evenodd" clip-rule="evenodd" d="M6.9082 24.2717V23.7646C8.36149 23.355 10.0667 21.5705 11.3165 21.0342C10.8404 21.8483 10.2037 22.5556 9.44548 23.1124C8.68729 23.6693 7.82377 24.0638 6.9082 24.2717Z" fill="#F93600"/>
<path fill-rule="evenodd" clip-rule="evenodd" d="M11.1419 15.4072C11.4172 15.2343 11.7291 15.1292 12.0523 15.1004C12.3755 15.0716 12.7009 15.1199 13.0021 15.2414C12.8761 16.4603 12.0332 15.7485 11.481 15.924C9.99863 16.3238 8.78755 17.8743 7.41178 17.7963C8.38063 15.6315 11.1128 15.2707 12.4983 13.5349C10.2118 14.0225 9.15572 15.7387 7.24707 16.6066C7.96618 15.5413 8.90051 14.6406 9.98901 13.9634C11.0775 13.2862 12.2957 12.8478 13.564 12.6768C13.4768 14.3443 11.8201 14.3833 11.1419 15.4072Z" fill="#F93600"/>
<path fill-rule="evenodd" clip-rule="evenodd" d="M10.9774 33.3115C11.4424 34.745 9.45629 37.2121 9.621 38.9381H9.11719C8.97186 36.9683 10.338 35.1058 10.9774 33.3115Z" fill="#F93600"/>
<path fill-rule="evenodd" clip-rule="evenodd" d="M13.0113 33.8281C13.6411 35.7199 11.8584 39.0354 11.3158 40.3129C10.9283 38.5381 12.5947 35.8954 13.0113 33.8281Z" fill="#F93600"/>
<path fill-rule="evenodd" clip-rule="evenodd" d="M17.245 34.1309C16.4118 36.2957 15.8305 39.2601 15.0457 40.9569C14.8901 38.4829 15.6765 36.0421 17.245 34.1309Z" fill="#F93600"/>
<path fill-rule="evenodd" clip-rule="evenodd" d="M20.1236 33.1553C20.3464 34.1304 19.3776 35.5444 18.9416 36.8998C18.4039 38.2767 18.0047 39.7043 17.7499 41.1612C17.6061 41.2736 17.428 41.3322 17.2461 41.327C17.3333 38.4016 18.9028 35.4956 20.1236 33.1553Z" fill="#F93600"/>
<path fill-rule="evenodd" clip-rule="evenodd" d="M23.3487 32.6289C23.9203 32.9507 22.8642 33.6041 22.6705 33.9941C21.7016 35.9444 20.9265 39.3379 20.2968 41.3272C20.0739 41.532 20.0255 41.3955 19.793 41.3272C20.3452 38.5091 21.4013 34.667 23.3487 32.6289Z" fill="#F93600"/>
<path fill-rule="evenodd" clip-rule="evenodd" d="M24.8706 36.0805C24.3765 34.8323 25.6457 32.5894 26.5661 31.6436C25.6748 34.2862 24.3571 38.2453 23.3495 40.849C23.1267 41.0537 23.0782 40.9172 22.8457 40.849C23.2623 39.7275 23.5433 37.3969 24.3668 36.0707C24.4153 35.9635 24.8028 36.0805 24.8706 36.0805Z" fill="#F93600"/>
<path fill-rule="evenodd" clip-rule="evenodd" d="M26.3924 39.2786C26.5377 39.7857 26.528 38.7618 27.0706 39.1031C26.888 39.748 26.4644 40.2967 25.8886 40.6341C25.3654 39.0446 26.6152 37.1333 27.245 35.5146C27.8748 33.8958 28.4173 31.809 29.6187 30.7363C28.708 33.769 27.4485 36.4214 26.3924 39.2786Z" fill="#F93600"/>
<path fill-rule="evenodd" clip-rule="evenodd" d="M26.2266 63.1603C27.9133 60.4924 29.9032 58.0314 32.156 55.8271C30.7996 58.3333 28.7456 60.1276 27.2439 62.4777C27.6217 62.7897 28.5906 61.3465 28.9394 61.6293C28.4259 62.4094 27.1276 63.8234 26.2266 63.1603Z" fill="#F93600"/>
<path fill-rule="evenodd" clip-rule="evenodd" d="M33.5124 57.875C33.6964 59.1915 32.4369 60.6249 31.4778 61.7756C30.5186 62.9263 29.1041 64.0087 28.9394 65.6762C28.7165 65.881 28.6778 65.7445 28.4355 65.6762C29.0169 62.7215 32.4079 60.3714 33.5124 57.875Z" fill="#F93600"/>
<path fill-rule="evenodd" clip-rule="evenodd" d="M32.4953 29.3906C32.7376 32.1113 30.4704 35.6901 29.9569 38.2547C29.8128 38.3664 29.635 38.4249 29.4531 38.4205C29.8504 35.4853 31.5168 32.3356 32.4953 29.3906Z" fill="#F93600"/>
<path fill-rule="evenodd" clip-rule="evenodd" d="M35.7117 28.0254C35.1303 31.5944 33.6189 34.2176 32.9989 37.7769C33.057 38.0694 32.8632 38.0987 32.6598 38.1182C32.546 37.974 32.4845 37.7952 32.4854 37.6111C32.8024 35.8712 33.2559 34.1593 33.8418 32.4916C34.3746 30.8923 34.675 29.1566 35.7117 28.0254Z" fill="#F93600"/>
<path fill-rule="evenodd" clip-rule="evenodd" d="M34.5303 7.73252V7.39122C35.5766 5.51893 39.3746 5.10937 40.4597 3.63689C40.5372 3.52963 40.1884 3.45161 40.1206 3.46137C40.295 3.07131 40.8957 3.11031 41.477 3.12006C40.1497 5.44092 36.8168 5.75297 35.2085 7.73252H34.5303Z" fill="#F93600"/>
<path fill-rule="evenodd" clip-rule="evenodd" d="M36.3906 10.4633C38.5512 8.20094 41.9034 7.14778 44.5193 5.34375C44.0446 6.97225 40.7214 7.93765 38.929 9.24435C38.0474 9.92695 37.6598 11.0776 36.3906 10.4633Z" fill="#F93600"/>
<path fill-rule="evenodd" clip-rule="evenodd" d="M45.5365 6.88477C44.4514 9.32264 41.7192 10.093 39.6071 11.4875C39.2002 12.3846 38.4154 12.7454 37.4078 13.3695C37.214 13.3695 37.1074 13.3695 37.0687 13.194C37.0223 13.1502 36.9854 13.0973 36.9601 13.0386C36.9349 12.9799 36.9219 12.9166 36.9219 12.8527C36.9219 12.7887 36.9349 12.7254 36.9601 12.6667C36.9854 12.608 37.0223 12.5552 37.0687 12.5114C39.9883 10.788 42.8148 8.90986 45.5365 6.88477Z" fill="#F93600"/>
<path fill-rule="evenodd" clip-rule="evenodd" d="M39.4423 14.9C40.1108 14.3832 41.1378 14.2174 41.816 13.7104C41.6029 14.588 39.4617 15.8654 38.0859 15.5826C40.6147 12.6572 44.4513 10.9702 47.5711 8.59082C45.5365 11.3602 42.0292 12.6767 39.4423 14.9Z" fill="#F93600"/>
<path fill-rule="evenodd" clip-rule="evenodd" d="M41.9803 40.4785C41.6218 42.5068 40.5463 43.8135 39.6066 45.2567C39.3062 45.2567 39.219 44.9642 39.2674 44.5741C40.6917 43.6868 40.8564 41.6194 41.9803 40.4785Z" fill="#F93600"/>
<path fill-rule="evenodd" clip-rule="evenodd" d="M41.6611 45.7633C42.4362 44.0471 43.686 42.0675 43.6957 40.1367C44.839 40.7316 43.8508 42.1943 43.531 43.0622C43.1923 43.997 42.7942 44.9091 42.3393 45.7926C41.9905 46.0461 42.1068 45.7438 41.6611 45.7633Z" fill="#F93600"/>
<path fill-rule="evenodd" clip-rule="evenodd" d="M46.3887 39.9805C46.505 41.7357 44.9258 44.6124 44.5673 46.9528H44.0635C44.4919 44.5258 45.2755 42.1761 46.3887 39.9805Z" fill="#F93600"/>
<path fill-rule="evenodd" clip-rule="evenodd" d="M45.8848 47.1293C46.6362 44.3782 47.7783 41.7507 49.2758 39.3281C49.1208 41.4247 46.9893 43.8041 47.0765 46.1542C46.5727 46.3492 46.7374 47.2561 45.8848 47.1293Z" fill="#F93600"/>
<path fill-rule="evenodd" clip-rule="evenodd" d="M47.9102 47.129C48.5108 44.896 49.0728 42.6141 50.4486 41.1611C50.2257 42.9359 48.5108 44.6327 49.2666 46.2807C48.724 46.544 48.6949 47.5776 47.9102 47.129Z" fill="#F93600"/>
<path fill-rule="evenodd" clip-rule="evenodd" d="M53.5096 39.2793C54.0424 40.5957 51.7559 42.8581 51.475 44.5646C51.349 45.3057 51.475 46.905 50.293 46.6124C50.7193 44.2038 52.5117 41.6977 53.5096 39.2793Z" fill="#F93600"/>
<path fill-rule="evenodd" clip-rule="evenodd" d="M56.5516 38.0898C56.3288 40.4497 54.1973 42.6145 54.517 44.3991C54.3039 45.0329 54.0907 45.6765 53.335 45.7643C53.1978 45.5652 53.1391 45.3219 53.1703 45.0817C54.4008 42.9071 55.0402 40.0304 56.5516 38.0898Z" fill="#F93600"/>
<path fill-rule="evenodd" clip-rule="evenodd" d="M56.7274 52.5898C57.5703 53.8283 55.8748 55.3593 55.371 56.6855C55.1239 57.6849 54.6607 58.6172 54.0145 59.4159C53.8701 59.5269 53.6925 59.5853 53.5107 59.5817C54.063 57.4071 55.9426 55.1057 56.7274 52.5898Z" fill="#F93600"/>
<path fill-rule="evenodd" clip-rule="evenodd" d="M59.4398 53.6338C59.7498 55.1258 57.7346 57.6026 56.9014 59.2604C57.1339 59.9138 56.5817 60.7036 56.0585 61.474C55.8357 61.6788 55.7969 61.5423 55.5547 61.474C56.0682 58.7338 58.1318 56.1302 59.4398 53.6338Z" fill="#F93600"/>
<path fill-rule="evenodd" clip-rule="evenodd" d="M59.4394 35.876C58.9158 38.5995 58.1771 41.2767 57.2304 43.882H56.7266C57.4532 41.7171 58.0442 37.9433 59.4394 35.876Z" fill="#F93600"/>
<path fill-rule="evenodd" clip-rule="evenodd" d="M61.639 32.6289C62.201 34.7352 61.7069 38.2945 61.1352 40.6446C61.5712 40.9079 61.765 39.4647 62.4916 39.455C61.8522 40.4301 61.7844 41.9318 60.457 42.1854C60.8543 39.3769 61.2418 35.2716 61.639 32.6289Z" fill="#F93600"/>
<path fill-rule="evenodd" clip-rule="evenodd" d="M61.8037 16.7724V16.2653C65.0881 15.2902 66.8515 12.8133 70.2715 12.0039C67.365 13.4959 65.4563 16.0118 61.8037 16.7724Z" fill="#F93600"/>
<path fill-rule="evenodd" clip-rule="evenodd" d="M62.9766 29.3908C66.261 26.7286 70.6305 25.1586 74.1572 22.7402C74.1572 23.6374 72.888 24.1444 72.1226 24.6125C69.526 26.2313 66.0382 27.7623 63.6548 29.5565C63.3157 29.6345 63.2285 29.4493 62.9766 29.3908Z" fill="#F93600"/>
<path fill-rule="evenodd" clip-rule="evenodd" d="M63.1602 21.0336C65.7761 18.8298 69.5062 17.7571 72.4806 15.9141C72.7809 17.5328 68.0916 17.9716 67.5685 19.3271C66.6093 19.6879 64.9138 21.1214 63.1602 21.0336Z" fill="#F93600"/>
<path fill-rule="evenodd" clip-rule="evenodd" d="M63.499 18.6452V18.1381C66.2215 17.0752 68.0817 15.1249 71.1239 14.3838C69.0312 16.0805 66.4153 17.2605 64.0028 18.6452H63.499Z" fill="#F93600"/>
<path fill-rule="evenodd" clip-rule="evenodd" d="M63.6738 25.9784C66.5804 23.404 70.7077 22.1461 73.8371 19.835C71.4634 22.7604 67.3652 23.9013 64.352 26.1442C63.9935 26.2222 63.9451 26.0369 63.6738 25.9784Z" fill="#F93600"/>
<path fill-rule="evenodd" clip-rule="evenodd" d="M64.0127 23.2577C66.9023 20.9957 70.0957 19.1571 73.4978 17.7969C70.6823 19.8989 67.6751 21.7273 64.5165 23.2577C64.3905 23.56 64.2065 23.2772 64.0127 23.2577Z" fill="#F93600"/>
<path fill-rule="evenodd" clip-rule="evenodd" d="M75.3575 32.8037C76.2392 33.9544 75.2703 36.48 75.6966 37.7477C75.4738 37.9525 75.4253 37.816 75.1928 37.7477C75.099 36.0981 75.1541 34.4433 75.3575 32.8037Z" fill="#F93600"/>
<path fill-rule="evenodd" clip-rule="evenodd" d="M75.1934 68.612C75.455 68.2512 76.2494 68.7875 76.1622 69.2946C75.7359 69.2361 75.6681 68.7095 75.1934 68.612Z" fill="#F93600"/>
<path fill-rule="evenodd" clip-rule="evenodd" d="M77.7315 31.7803C79.0588 33.36 77.9834 37.1533 77.5668 38.4308C77.5086 36.9193 78.0706 33.4185 77.7315 31.7803Z" fill="#F93600"/>
<path fill-rule="evenodd" clip-rule="evenodd" d="M77.3926 73.2238V72.8825C77.8576 72.8825 77.7317 72.5997 78.0708 72.8825V73.2238C77.7414 73.5066 77.8576 73.2043 77.3926 73.2238Z" fill="#F93600"/>
<path fill-rule="evenodd" clip-rule="evenodd" d="M81.1218 30.0742C81.0494 32.7708 80.725 35.4545 80.1529 38.0899C80.0454 38.0604 79.952 37.9929 79.8898 37.8998C79.8276 37.8067 79.8006 37.6943 79.8138 37.5829C80.7052 35.5741 79.8235 31.7222 81.1218 30.0742Z" fill="#F93600"/>
<path fill-rule="evenodd" clip-rule="evenodd" d="M83.8353 30.0742C83.4865 31.849 83.5834 35.6131 82.8664 37.066C82.5758 37.1245 82.5467 36.9295 82.5273 36.7247C83.0699 34.6477 82.5855 31.4882 83.8353 30.0742Z" fill="#F93600"/>
<path fill-rule="evenodd" clip-rule="evenodd" d="M85.3567 29.3906C85.9149 31.8056 85.6167 34.3409 84.5138 36.558C84.446 34.4907 85.2598 31.8285 85.3567 29.3906Z" fill="#F93600"/>
<path fill-rule="evenodd" clip-rule="evenodd" d="M90.7825 24.9541C91.6932 25.2661 93.0109 23.7059 93.9991 24.0959C94.1154 25.0711 93.1852 24.9833 93.0302 25.6269C93.3015 28.0843 91.9548 31.1658 93.2046 32.96C90.8794 33.9352 92.8558 27.8015 92.5264 26.134C90.5306 26.3973 89.8718 29.4885 89.6199 32.1019C89.6974 32.531 89.988 31.8191 89.959 31.5948C90.7244 31.8874 89.7071 32.492 89.4551 32.7943C90.3174 32.5797 89.7749 35.1834 88.7769 35.1834C88.7769 32.765 89.4067 30.9317 89.6199 28.6986C86.568 29.3812 88.0406 33.7694 86.5679 35.3491C85.9091 34.1595 87.6628 31.8093 86.3936 31.0877C87.1977 30.2394 87.3624 28.7474 87.75 27.5089C87.7015 27.2749 87.3237 27.3724 87.0718 27.3432C88.7673 25.0223 91.916 24.1154 94.0185 22.2236C93.2465 23.4488 92.1158 24.4028 90.7825 24.9541ZM89.6005 27.8795C89.4939 27.4114 89.8136 26.524 89.4358 26.3485C89.1645 26.8751 88.3894 26.8848 88.0794 27.3237C88.5347 27.626 87.5271 28.7961 88.0794 29.196C88.5347 28.7181 88.8545 28.0745 89.6005 27.86V27.8795ZM92.6524 24.8078C91.6835 24.9541 91.1313 25.5489 90.2787 25.7829C90.3756 26.134 90.0655 26.9043 90.4531 26.9726C91.0731 26.1827 92.2261 25.8414 92.6427 24.7883L92.6524 24.8078Z" fill="#F93600"/>
<path fill-rule="evenodd" clip-rule="evenodd" d="M86.8877 20.185C88.5294 18.4431 90.4123 16.9488 92.478 15.748C92.478 16.7232 91.2379 17.0255 90.2787 17.7959C89.1354 18.7223 88.5057 20.419 86.8877 20.185Z" fill="#F93600"/>
<path fill-rule="evenodd" clip-rule="evenodd" d="M87.0518 17.6211C87.8776 16.5175 88.9155 15.5922 90.1037 14.9004C89.8033 16.3046 88.2725 16.4704 87.9044 17.8258C87.4199 17.9331 87.4587 17.5528 87.0518 17.6211Z" fill="#F93600"/>
<path fill-rule="evenodd" clip-rule="evenodd" d="M87.3916 22.4286C87.3916 22.1556 87.5466 22.1361 87.5563 21.9216C89.3778 20.5076 91.6933 18.7036 93.321 17.6602C93.0207 19.6982 89.649 20.098 88.748 22.0971C88.1667 22.0288 87.8179 22.7797 87.3916 22.4286Z" fill="#F93600"/>
<path fill-rule="evenodd" clip-rule="evenodd" d="M84.8529 78.0127C85.0758 78.2077 85.4439 76.8425 86.2093 77.5056C87.2848 78.8708 87.0329 81.572 87.5657 83.4735C87.3041 84.1951 88.4474 83.4735 88.4086 83.9806C88.9415 84.7217 87.1588 84.3609 87.5657 85.5116C85.1823 86.2235 81.9948 88.0762 79.2626 89.0904C77.0702 89.9052 74.7961 90.4774 72.4806 90.7969C67.6944 91.499 62.7436 92.5229 57.5699 92.8447C49.3612 93.1956 41.1378 92.8006 32.9996 91.6648C29.7733 91.2747 26.6342 90.3288 23.3111 90.2996C22.3422 89.9973 22.536 89.0806 21.9547 88.7686C20.8889 88.3785 21.9547 90.1338 21.1117 89.9583C20.2882 88.9831 20.2592 87.2864 19.9297 85.5213C19.5131 83.2785 18.4474 81.7865 20.6079 81.0844C19.5616 79.7972 20.2592 77.9444 20.2688 76.3062C20.2688 74.4339 19.8329 72.4739 19.765 70.504C19.6875 68.3587 19.8619 66.1939 19.765 64.0291C19.5034 58.1782 18.7962 52.8538 18.4086 46.4764C9.74704 45.9888 4.65085 40.2354 1.46331 33.6824C0.165038 30.9422 -0.241882 26.8173 0.135972 23.4043C0.726976 18.0605 3.45916 14.7645 6.06538 11.1272C10.3284 8.69907 14.9886 5.81263 20.5983 6.00766C22.1 6.05642 23.9602 6.42697 25.3457 6.00766C26.5083 5.6566 26.8377 4.72046 27.8841 3.95984C31.246 1.54147 37.5242 -0.389323 43.1339 0.0592462C45.246 0.225022 47.9201 1.4147 50.0806 0.741851C57.4924 2.06805 65.6695 0.527318 73.4592 1.717C75.5228 2.04855 77.7221 2.44836 79.7277 2.90668C81.5266 3.45569 83.282 4.14023 84.9789 4.9545C86.1262 5.21635 87.2583 5.5419 88.3699 5.92965C90.1041 6.97306 90.8889 8.77708 93.0107 8.93311C96.6225 14.6081 98.3212 21.3034 97.855 28.0265C97.3318 34.1797 91.6252 38.6654 87.0135 41.1618C83.0315 50.4452 81.9851 66.74 84.8529 78.0127ZM21.9934 55.828C22.2841 55.6135 22.4391 55.2527 22.9623 55.321C20.7339 56.2961 21.7803 58.2464 21.9934 61.1231C22.3422 67.1398 21.9256 74.9605 22.4972 79.885C27.1477 80.314 32.0792 80.4701 35.0342 82.6154C38.2993 82.7617 41.5353 83.5905 44.7228 83.298C45.0522 83.2297 44.8585 82.6349 45.401 82.7909C54.2564 82.8494 64.2938 81.2599 72.529 79.5534C72.1512 79.1536 70.7948 79.8947 69.8162 79.7192C69.2737 79.9922 68.0432 80.6261 67.7816 79.7192C71.7249 78.51 76.7242 78.3735 80.8322 77.3301C80.8634 77.5703 80.8047 77.8137 80.6675 78.0127C81.0647 77.8957 81.7429 77.6226 81.6363 78.354C79.8827 78.2955 78.8654 78.9781 77.5671 79.3291C79.4176 79.3291 81.9754 78.5685 83.3318 78.9878C83.729 78.8416 83.3318 78.1102 83.1671 78.0127C83.1671 78.3833 83.0315 78.5588 82.6633 78.5198C82.2661 77.9542 82.0335 77.2228 81.6944 76.6475C81.055 76.3939 81.6944 77.4081 81.0162 77.1546C81.0841 76.8328 81.0744 76.4232 81.5201 76.472C80.7256 69.2363 80.4156 60.46 81.2972 53.946C81.2972 53.673 80.8612 53.8095 80.9581 53.4389C81.0975 52.231 81.3242 51.0349 81.6363 49.8601C80.154 49.9966 79.4855 52.6393 78.2453 51.9079C79.0107 49.9576 81.8592 50.0844 81.9754 47.471C80.2993 47.6465 78.846 50.6695 77.228 50.0259C78.5457 48.1634 81.646 48.0756 82.1401 45.4232C77.5187 46.6909 75.3581 50.4257 70.9595 51.9079C72.7906 49.9576 75.8038 49.1385 77.228 46.7884C76.2592 46.7884 75.5228 47.9001 74.8543 47.6368C77.1602 46.3788 79.7858 46.1448 82.1401 44.7113V43.0341C80.6578 43.7459 77.6446 44.6918 75.8716 46.1058C75.1353 46.6909 72.965 48.6997 73.6723 48.6607C72.7034 48.6607 72.5194 49.4408 71.6377 49.5091C71.6377 49.8309 71.8315 49.8894 71.8121 50.1917C67.8204 53.3609 63.945 57.5346 62.0072 62.1373C62.2979 61.796 62.8986 60.8891 63.1893 61.1621C62.2688 62.1373 61.8329 63.6585 60.4765 64.2338C60.4765 61.4547 63.383 59.9042 64.0322 57.5833C63.9633 57.3034 63.9083 57.0203 63.8675 56.7349C65.0495 54.3556 68.7117 53.3707 69.6322 51.1083C69.5353 51.5179 68.5761 51.9177 68.4502 51.2838C70.2813 49.6066 73.2944 48.2219 74.554 46.5056C73.8661 47.1687 73.1685 46.1546 72.5194 46.5056C73.0739 46.1504 73.7227 45.9735 74.3796 45.9985C75.1062 44.6041 76.7823 44.7308 78.1097 44.292C79.1892 43.9184 80.2153 43.4037 81.1616 42.761C79.1906 43.5007 77.1431 44.0142 75.0578 44.292C72.6162 45.4525 71.2598 47.3442 69.4675 48.729C69.3027 48.8557 68.8765 48.729 68.6246 48.8947C68.1886 49.2263 67.6557 50.7085 66.9291 49.7529C68.8668 47.7343 71.347 46.2423 73.5367 44.4675C72.9166 44.4675 73.1782 43.5802 72.3547 43.7849C72.0834 44.9941 72.8294 44.292 73.1976 44.6333C72.7131 44.9356 71.5796 44.6333 71.3374 45.1404C71.5408 45.1404 71.8218 45.1404 71.8412 45.3062C69.0799 45.901 67.801 47.8806 66.0765 49.4018C65.1076 50.2209 63.7027 51.6251 62.8598 51.2741C63.7124 50.2989 64.8557 49.6456 65.7664 48.7192C65.6114 48.5339 65.1367 48.6704 65.2626 48.2121C64.5457 48.2901 64.5457 49.08 63.9062 49.1873C63.5962 48.885 62.7048 48.6022 63.228 47.9976C61.9394 48.0561 60.118 49.9479 59.1588 48.6802C59.2944 48.1926 60.3893 48.6802 60.3505 47.9976C58.6162 48.3096 56.7754 49.197 55.0993 48.9727C47.2225 52.0542 38.6287 48.4559 33.581 45.0721C33.581 48.1926 34.356 52.8733 32.738 55.3015C33.3581 52.5613 33.2225 48.2121 33.0771 44.5748C32.7551 44.0973 32.274 43.7514 31.7207 43.5997C31.8176 46.5251 31.5464 47.9878 31.5464 50.767C31.7014 51.2351 31.9242 50.2502 32.2246 50.767C32.1374 51.4204 30.8972 51.8104 31.5464 52.6393C31.5371 52.5054 31.5637 52.3715 31.6233 52.2514C31.683 52.1314 31.7735 52.0296 31.8855 51.9567C31.7692 52.9318 31.8273 54.063 31.0425 54.3458C30.7422 54.024 30.9166 53.2146 30.8682 52.6393C28.8335 55.1357 26.8668 57.7101 24.9387 60.3137C25.4716 60.382 25.9076 59.4556 26.1304 59.8067C25.4329 60.4698 24.9678 61.3669 23.7567 61.5132C24.4834 59.6214 25.9173 58.1587 27.3124 56.3936C29.3374 53.8387 31.8564 51.9469 31.0425 47.5295C29.7055 48.3291 29.8121 50.455 29.6861 51.6251C29.0079 51.6251 29.6861 50.2599 29.0079 50.2599C27.7484 51.1278 29.2405 52.7368 28.0391 53.673C27.8259 53.1951 27.6225 52.8343 27.8744 52.3078C27.1671 52.6296 27.0993 53.0391 27.0315 53.673C24.8612 54.9017 24.1249 58.4902 22.1194 59.2996C23.6114 56.2181 27.3803 53.5949 26.6924 49.9186C25.4425 50.1429 26.6924 52.8441 25.5104 53.1561C24.9872 52.6783 25.9367 51.6251 25.336 51.1083C24.5512 51.8007 24.8612 53.5852 24.154 54.3458C23.7858 54.1995 24.2218 53.2536 23.8149 53.1561C23.3401 54.1118 21.945 54.9797 21.9934 55.828ZM38.464 41.2008C39.2294 40.7717 39.7235 39.1822 40.6633 39.4943C40.3538 40.1645 39.8886 40.7498 39.3069 41.2008C40.0239 41.0643 40.518 39.9916 41.3415 40.5182C39.6329 42.0126 37.8197 43.3814 35.9159 44.6138C35.2958 43.7947 34.6079 44.2043 33.8813 43.7654C35.2571 42.3125 37.9893 41.3081 38.4543 39.504C36.691 40.606 34.8792 43.2974 32.6702 42.9073C33.116 43.7318 33.7544 44.4346 34.5304 44.9551C37.1646 46.6352 40.0132 47.9473 42.9983 48.8557C47.4841 50.2989 52.9 49.3043 56.8917 47.4905C64.3906 45.6962 68.9443 40.957 71.6377 34.3357C72.5194 34.3845 71.3374 35.6229 72.1415 35.5254C72.6938 34.8916 72.1415 33.1168 73.1104 32.9705C73.3138 36.7541 71.318 39.7966 69.8938 42.5173C73.9436 42.5173 79.3401 42.2442 82.4308 40.645C84.6793 40.4505 86.8121 39.5577 88.5346 38.0901C89.6197 37.2709 90.8695 35.4669 91.5865 35.8765C94.9484 33.3411 95.7041 29.2552 96.5374 24.2722C96.8183 22.6145 95.6169 20.3716 95.3553 18.8114C95.154 17.2334 94.7569 15.6872 94.1733 14.2087C93.9505 13.7893 93.5436 14.3939 93.4951 14.0429C93.2723 13.5163 93.4951 13.5553 93.4951 12.8532C92.8557 12.8532 92.6716 12.3169 92.1387 12.1706C91.2668 10.0935 89.0675 8.80634 86.8875 8.07497C84.7076 7.34361 82.6245 5.67611 80.2799 5.14953C77.9353 4.62295 75.1256 4.69121 72.529 4.30115C69.4868 3.90134 66.8515 3.90133 64.8557 3.47227C65.1851 4.44742 66.3865 4.54493 66.5512 5.68586C66.4059 6.66101 65.0398 6.32946 65.0301 7.39237C64.3713 7.48989 64.6329 6.66101 64.1872 6.54399C60.1567 5.85163 58.0446 3.27724 53.1713 3.47227C53.1713 3.20898 53.1713 2.88718 52.8322 2.96519C50.4875 2.96519 48.172 1.99004 45.8855 1.77551C40.2028 1.09802 34.4711 2.54892 29.783 5.85163C32.4183 6.44648 33.9297 3.29674 36.7297 2.92619C35.708 3.78917 34.6337 4.5871 33.5131 5.3153C33.7069 5.3153 33.9976 5.3153 34.0169 5.48108C33.3775 5.86139 32.5733 6.06617 31.9823 6.45623C33.2709 6.81703 34.1623 5.37381 35.1989 4.92524C34.947 4.92524 34.5692 4.98375 34.5207 4.75947C35.6834 4.61319 36.1097 4.05736 37.0592 4.07686C37.1076 3.74531 36.8266 3.73556 36.7201 3.56978C37.2239 3.56978 37.7567 3.09196 37.9021 3.73556C37.3498 5.00325 35.9062 5.3153 34.8792 6.02716C35.1311 6.02716 35.509 5.96865 35.5574 6.19294C35.0246 6.56349 34.2107 6.66101 33.8619 7.16809C33.9491 7.98721 35.2086 8.06522 35.2183 8.8746C36.8944 7.2656 39.2294 6.30995 41.3221 5.12027C39.6073 7.21684 36.8169 8.19199 34.8792 9.94726C34.3657 9.22565 34.0557 9.67422 33.6972 9.60596C33.1353 9.49869 32.118 8.98186 31.6626 8.92335C31.0135 8.84534 30.3159 9.03062 29.628 8.92335C29.1048 8.84534 28.6592 8.49429 28.1069 8.41628C19.9685 7.32411 10.4834 10.3666 6.24947 14.7255C5.75535 14.7255 5.72628 15.1156 5.28061 15.0668C4.50913 16.6937 3.41438 18.144 2.064 19.3282C1.82179 21.0347 1.19203 22.3609 1.09514 23.9309C0.513827 30.1914 3.09099 34.6575 5.32905 38.4216C8.4294 42.0687 11.9948 45.2477 18.3796 45.589C18.6121 45.2574 18.4765 44.5456 19.2225 44.7308C20.4626 46.2228 21.7028 45.4329 23.9699 45.706C24.3528 45.2931 24.814 44.9615 25.3263 44.7308C31.246 44.4968 34.7823 40.3817 39.2197 38.0803C39.5782 38.8507 38.8322 38.919 39.5588 39.4455C39.3457 40.1671 38.2121 40.7132 38.4252 41.1618L38.464 41.2008ZM13.5643 8.07497C13.6806 8.36752 15.6571 7.71417 16.2771 7.39237C15.037 7.32411 14.4751 7.89945 13.5643 8.07497ZM20.8502 84.3024C20.2785 83.7563 21.3346 82.5959 20.3464 82.4301C20.046 82.6934 20.4142 84.6827 20.8017 84.3024H20.8502ZM21.0246 73.215C20.6176 72.4348 21.0827 70.7673 20.5207 70.1432C20.5014 71.1867 20.3464 73.3222 20.9761 73.2247L21.0246 73.215ZM21.3152 79.1926C21.1893 78.2662 21.1214 76.2672 20.9761 76.6377C20.8308 77.0083 20.5014 79.3877 21.1408 79.5632C21.3152 79.4949 21.3152 79.3877 21.3152 79.1926ZM21.3152 59.9237C21.2026 59.2469 21.1443 58.5621 21.1408 57.8759C20.7533 58.1099 21.0827 59.0655 20.9761 59.5824C21.1989 59.5824 21.1311 59.8749 21.3152 59.9237ZM21.6543 50.884C21.4993 51.4594 21.2765 50.884 20.9761 51.2253C21.073 51.5276 20.7726 52.2005 21.1408 52.2005C21.2474 51.8202 22.1484 51.3424 21.6543 50.884ZM21.4896 55.4867C22.0419 54.3068 23.9699 52.9123 22.1678 51.7324C21.8078 52.1329 21.5223 52.5954 21.3249 53.0976C21.5284 53.0976 21.8093 53.0976 21.8287 53.2634C21.4896 53.2634 21.6156 53.7315 21.1505 53.6047C21.0949 54.2502 21.2085 54.8992 21.4799 55.4867H21.4896ZM23.6889 87.7642C25.5201 88.5931 28.8239 87.9397 30.6356 88.7393C30.6356 89.0611 30.0737 88.8564 30.1318 89.2464C40.2351 90.6106 50.4336 91.126 60.6218 90.7872C63.8321 90.5382 67.0097 89.9665 70.1069 89.0806C72.5194 88.5053 74.8834 87.4619 77.0536 87.2084C80.5415 86.7988 82.3242 85.4043 85.0176 84.6535C84.8238 82.9544 84.7655 81.2424 84.8432 79.5339C79.3401 80.9381 73.7014 82.5666 67.5685 82.7714C63.5768 82.8884 60.0695 83.8636 56.3879 84.1366C53.181 84.3902 49.945 83.9416 46.6993 84.1366C46.1991 84.2792 45.6912 84.3932 45.1782 84.4779C43.9194 84.3461 42.6724 84.1179 41.4481 83.7953C36.4294 82.9177 31.2751 83.3078 28.2329 83.1127C28.0681 83.4345 28.7367 83.6783 28.2329 83.7953C26.237 83.4248 23.5726 83.4443 21.9643 84.3024C24.1249 84.868 27.5837 84.0099 29.0855 84.8095C28.2813 85.5896 25.8979 84.8095 24.8515 85.3166C25.1228 85.3166 25.4425 85.3166 25.3553 85.6579C24.6287 85.5994 23.4176 85.1898 22.1387 85.1508C22.1387 85.8919 22.565 86.204 22.8169 86.6818C25.21 86.6818 28.2232 85.7944 29.7637 86.8573C28.6592 87.4619 25.1325 86.5453 24.338 87.3644C24.9678 87.4716 26.082 87.0913 26.1983 87.7057C25.3639 87.5935 24.5172 87.6132 23.6889 87.7642ZM22.1581 83.2785C23.2974 83.2886 24.4344 83.1741 25.5491 82.9372C24.3284 82.7422 23.127 82.5276 21.9934 82.2546C22.1 82.8884 21.9934 82.8884 22.1581 83.2785ZM23.5145 52.415C24.3574 52.1615 24.028 50.3867 23.6889 49.8601C24.3284 50.2014 24.3574 49.0898 24.028 49.0117C23.4354 50.04 23.2519 51.2561 23.5145 52.415ZM24.4834 46.2716C23.1948 45.9985 23.6986 48.4267 23.6405 48.8265C24.1983 48.091 24.5104 47.1966 24.5318 46.2716H24.4834ZM25.4522 46.9542C24.723 48.1884 24.385 49.6172 24.4834 51.0498C25.956 50.7085 25.5685 47.7831 25.5491 46.9542H25.4522ZM26.8086 45.4232C26.4388 45.9654 26.1872 46.5803 26.0703 47.2273C25.9535 47.8744 25.9739 48.539 26.1304 49.1775C26.6295 47.9889 26.8928 46.7135 26.9055 45.4232H26.8086ZM27.4868 47.9781C26.518 49.1093 27.1671 50.0357 26.8086 51.8787C28.0972 51.6837 27.8162 49.0703 27.5837 47.9781H27.4868ZM29.347 89.0806C29.0176 88.8856 27.0605 88.7588 27.3124 89.0806C28.0972 88.9344 28.9111 89.6072 29.4439 89.0806H29.347ZM28.6688 45.9303C29.1145 45.2477 29.4342 44.4188 30.529 44.3993C29.9952 44.9172 29.6202 45.5783 29.4485 46.3042C29.2767 47.0302 29.3155 47.7905 29.5602 48.4949C30.7325 47.3345 31.1104 46.2033 31.0813 44.058C30.2481 43.941 29.0176 44.7894 28.0294 45.0331C28.7173 44.9649 28.3782 45.8328 28.7657 45.9303H28.6688ZM28.6688 46.6129C27.8841 47.0127 28.0778 49.314 28.3297 50.1917C29.2986 49.7334 28.9983 47.8416 28.7657 46.6129H28.6688ZM42.1553 91.6648C45.6896 92.1089 49.2526 92.2784 52.8128 92.1719C49.4121 91.8793 45.3429 91.3625 42.1553 91.6648ZM58.2481 92.0061C57.8993 91.8403 57.4439 91.7916 57.4052 91.3235C56.7648 91.2334 56.1126 91.3531 55.545 91.6648C56.8045 91.2747 57.163 92.7277 58.2481 91.9768V92.0061ZM64.1775 5.34456C63.945 5.15928 63.3055 4.41816 62.9761 4.87648C63.1699 5.13002 64.972 5.68586 64.1775 5.34456ZM65.6986 43.7167C65.5242 44.1653 65.0301 44.292 64.8557 44.6918C65.3886 44.7503 66.309 44.2823 65.7083 43.7167H65.6986ZM70.9498 44.3993C70.7464 44.3993 70.4654 44.3993 70.446 44.2238C70.882 44.0872 71.4149 44.0482 71.628 43.7167C71.0004 43.784 70.3786 43.8981 69.7678 44.058C69.5547 44.6138 70.3201 44.1848 70.1069 44.7406C68.4332 45.5066 66.8899 46.5334 65.5339 47.7831C67.4084 46.766 69.2202 45.636 70.9595 44.3993H70.9498ZM70.1069 2.10706C68.8571 2.28259 67.5879 1.58048 66.5512 2.10706C67.5588 2.27284 69.5062 2.57513 70.1069 2.10706ZM69.4287 90.4459C68.5557 90.4241 67.6888 90.5972 66.8903 90.9529C67.6557 90.6896 68.983 91.0114 69.4384 90.4459H69.4287ZM74.6799 89.7632C72.936 90.1046 72.2384 89.5195 70.9498 90.4459C72.225 90.4248 73.4882 90.1942 74.6896 89.7632H74.6799ZM75.1837 80.7236C74.5443 81.2112 73.1879 80.9869 72.4709 81.4062C72.965 81.5037 75.3872 81.2989 75.1934 80.7236H75.1837ZM82.1304 69.8117C82.2661 69.8117 82.3242 69.958 82.3048 70.153V71.8595C82.6924 71.6255 82.363 70.6698 82.4695 70.153C82.4695 69.4314 82.7602 67.2275 82.1304 66.2524C82.2414 67.4361 82.2447 68.6274 82.1401 69.8117H82.1304ZM82.9927 47.7831C83.3124 48.2999 82.6439 49.6748 82.9927 50.1722C83.3577 48.6547 83.6391 47.1182 83.8356 45.5695C83.3045 45.7624 82.8675 46.1534 82.615 46.6617C82.3625 47.17 82.3139 47.7565 82.4792 48.2999C82.6633 48.1634 82.5374 47.6953 82.9927 47.7831ZM82.9927 44.2043C83.3653 43.9973 83.6831 43.7033 83.9191 43.3469C84.1552 42.9905 84.3027 42.5822 84.3491 42.1564C83.9964 42.153 83.6471 42.2271 83.3258 42.3737C83.0045 42.5202 82.7189 42.7356 82.4889 43.0048C83.109 42.9658 82.547 44.097 82.9927 44.2335V44.2043ZM83.8356 45.3939V44.4188C83.4965 44.4871 82.6536 44.9161 82.9927 45.1014C83.109 44.7016 83.4965 45.4622 83.8356 45.4232V45.3939ZM84.3394 45.2184C84.3394 45.4037 84.4169 45.6475 84.5041 45.3939C85.0564 43.3949 84.8626 43.0926 84.3394 45.2477V45.2184ZM85.5214 41.8054C84.8529 41.5909 85.0854 42.2735 84.8432 42.488C85.5214 42.7415 85.2598 42.0589 85.5311 41.8444L85.5214 41.8054Z" fill="#F93600"/>
<path fill-rule="evenodd" clip-rule="evenodd" d="M70.62 47.6365C70.901 47.2367 71.492 47.1489 71.802 46.7881C72.2089 47.0514 71.4241 47.5292 70.9591 47.4707C71.0419 47.5936 71.0992 47.7322 71.1276 47.8779C71.1559 48.0237 71.1546 48.1738 71.1238 48.3191C68.285 50.0451 67.0546 52.4049 64.3418 54.1212C64.3418 52.5512 66.0664 51.4786 67.2484 50.5424C68.4304 49.6063 70.0581 48.8359 70.9785 47.617L70.62 47.6365Z" fill="#F93600"/>
<path fill-rule="evenodd" clip-rule="evenodd" d="M43.3371 17.2791C45.6914 16.5673 47.5516 14.4805 49.9447 14.3537C48.0942 14.8023 47.9198 15.9334 45.8755 16.2357C44.616 17.2694 43.3662 18.3421 41.6416 18.108C43.5793 14.9875 48.1523 14.5487 49.0921 10.4336C50.3032 10.7261 49.3731 12.0718 49.0921 12.4814C47.9004 14.2659 44.897 15.6701 43.3371 17.2791Z" fill="#F93600"/>
<path fill-rule="evenodd" clip-rule="evenodd" d="M50.2835 14.3832C49.8087 14.3832 50.6904 13.9152 49.9444 14.0419C50.3707 13.4958 50.9907 13.5446 51.6399 13.8664C50.4094 16.3238 48.3555 17.9523 46.3887 19.6685C47.3575 17.3769 49.3824 16.0897 50.9617 14.3832C51.0876 14.1102 50.1672 14.1102 50.2835 14.3832Z" fill="#F93600"/>
<path fill-rule="evenodd" clip-rule="evenodd" d="M50.6225 40.8196C50.3221 41.0731 50.8744 39.8444 50.7969 39.6201C51.2619 39.8834 50.8065 40.644 50.6225 40.8196Z" fill="#F93600"/>
<path fill-rule="evenodd" clip-rule="evenodd" d="M65.5335 68.4463C65.8726 68.4463 65.7466 67.9782 66.2117 68.105C65.2428 68.9046 64.894 70.4258 63.4989 70.8354C64.274 67.2859 68.4982 65.7549 69.7674 62.1371C71.3854 62.1371 71.7051 60.6841 72.1411 59.9235C69.2345 58.9483 67.7812 62.4394 66.2117 64.0191C67.665 63.4243 68.3238 61.1619 69.9418 61.2887C67.8587 62.3223 66.6573 65.1308 64.6906 65.7256C64.7874 63.9118 66.6283 62.8002 67.7425 61.4642C68.8567 60.1283 70.058 58.6948 71.1335 57.3686C69.4767 58.3437 68.6144 60.0698 66.8996 60.9474C67.3162 61.6983 66.1245 61.5715 66.2214 62.4784C65.2525 62.8002 64.865 64.6042 63.8477 64.3507C63.5279 62.3126 65.2525 60.8889 65.8823 59.2311C65.6304 58.9093 65.3009 59.9527 64.7003 59.4066C66.2407 56.803 68.8857 55.3208 70.8041 53.0974C70.7459 52.5709 69.9418 53.546 69.8352 52.9219C69.3798 52.3368 70.4262 52.1223 71.1916 52.2393C72.9646 51.9078 75.2608 51.2642 77.121 51.5567C76.2103 52.5318 73.7397 52.015 72.3736 52.5318C71.4048 53.507 70.2034 54.1018 69.467 55.2623C69.6608 55.2623 69.7674 55.2623 69.8061 55.0867C69.4574 55.5353 68.566 56.9005 67.4324 57.1346C66.9571 58.5927 66.2716 59.9726 65.3978 61.2302C67.2193 59.7089 69.2733 56.9493 71.3272 55.0867C71.3272 54.5992 70.1646 55.233 70.1452 54.7454C71.6082 53.546 74.447 53.7703 76.7529 53.3802C75.4643 54.7552 71.8117 53.7508 71.3272 55.9351C73.5169 55.6328 75.8324 55.467 78.1093 55.2525C77.0048 56.53 73.9916 55.8864 72.1798 56.4422C72.238 56.842 72.984 56.5397 72.858 57.1248C72.725 57.1341 72.5919 57.1074 72.4726 57.0473C72.3534 56.9873 72.2523 56.8962 72.1798 56.7835C71.8504 57.7001 71.085 58.1877 70.6587 58.9971C73.0227 58.6948 75.8518 58.0219 77.9445 58.0219C76.7819 58.9971 74.7473 58.9971 72.858 59.2116C73.2165 60.021 73.73 59.7089 74.5535 59.8942C73.9819 60.4013 73.0712 59.7967 72.5189 59.7187C72.7224 60.1965 72.1023 60.6938 71.8407 61.591C73.0906 61.4545 76.6269 61.3374 76.9272 60.2258C78.3515 61.6885 73.4006 62.0396 71.676 62.2736C73.1003 62.7904 75.2899 62.1858 76.5881 63.122C76.4816 64.3019 75.0283 63.9704 74.3888 64.0971C73.1478 64.6002 71.8437 64.9283 70.5134 65.0723C70.7169 65.5306 71.6857 65.8134 71.6954 65.0723C72.4996 65.6769 71.0657 66.613 70.7266 67.1201C72.0442 67.1981 75.2705 67.1786 75.6387 66.2717C76.0359 66.496 76.7625 66.3985 76.6075 67.1201C73.7009 67.9002 69.3508 67.3249 68.1397 69.8505C70.8428 69.4994 73.2165 69.1289 75.5902 68.8753C73.9335 70.1625 70.2518 69.4117 69.9999 72.1128C71.9376 72.1128 74.5729 71.3717 76.7819 71.1377C75.8131 72.1714 74.1176 72.0251 72.9065 72.3274C72.0054 72.5517 69.903 72.815 69.1764 73.3025C67.5099 74.541 66.0567 76.7643 64.6034 78.2465C65.8629 77.6322 66.6477 76.5498 67.9944 76.0329C66.4248 77.0081 65.0878 79.0754 63.4214 79.446C63.6539 76.7058 67.6843 75.4576 67.9944 72.7955C69.2248 72.6102 69.6511 71.6253 70.1937 70.7476C69.5252 70.143 68.256 71.206 67.82 70.4063C66.5023 71.3815 65.7563 72.9905 64.6034 74.1607C65.4657 73.8291 66.5411 72.2786 67.6553 71.6058C66.2526 73.4742 64.5995 75.138 62.7432 76.5498C62.811 74.9408 64.3224 73.6926 65.2816 72.4542C66.1981 71.0758 67.2783 69.815 68.4982 68.6998C68.6241 68.1732 67.9169 68.495 68.1591 67.8514C68.7226 67.7629 69.2592 67.5477 69.7288 67.2219C70.1985 66.8961 70.5891 66.468 70.8719 65.9694C70.649 65.0918 69.6414 65.8719 69.1764 65.4623C69.9418 64.0094 74.3598 64.0484 75.9584 63.4145C76.1037 62.4394 74.912 63.4145 75.4546 62.7319C74.0982 62.8782 72.393 62.5759 70.7072 62.8977C68.9245 64.7992 67.0933 66.496 65.5335 68.4463ZM67.5681 60.0893C68.6144 58.9873 69.8643 58.0805 70.9591 57.0175C69.1376 57.2418 68.2947 59.3384 67.5681 60.0893ZM65.1944 62.3028C64.7487 62.3028 64.3127 63.2195 64.6906 63.4925C64.7681 63.005 65.2913 62.9659 65.1944 62.3028Z" fill="#F93600"/>
<path fill-rule="evenodd" clip-rule="evenodd" d="M75.029 27.0026C72.4876 29.2752 69.636 31.17 66.5611 32.6292C66.2511 34.8331 66.3868 36.4323 66.0573 38.5972C65.3016 37.2905 65.8636 34.3065 65.8829 33.1363C65.2726 33.2533 64.9722 33.6922 64.3618 33.8189C64.1681 36.5591 64.73 39.0457 63.5092 40.8108C62.7051 40.2744 63.5771 38.8605 63.6836 37.5733C63.829 35.7692 63.6158 33.5264 64.1874 32.1124C64.1874 31.7906 63.6255 31.9954 63.6836 31.6053C67.1425 28.8944 72.0158 26.7296 75.7169 24.7793C73.4249 26.5832 70.9149 28.0872 68.247 29.2552C70.3688 29.1382 72.7812 26.9734 75.029 27.0026ZM66.7259 30.5814C66.7672 31.0439 66.7076 31.5098 66.5515 31.9466C69.0802 30.6302 71.6961 29.4308 73.6338 27.5195C71.1923 28.3776 69.0511 29.577 66.7259 30.5912V30.5814ZM66.0476 32.2879C65.9411 31.8784 66.2608 31.0495 65.8733 30.9227C65.1369 31.2055 64.2165 32.1807 64.6912 33.1558C64.9916 32.7073 65.6601 32.639 66.0476 32.2879Z" fill="#F93600"/>
<path fill-rule="evenodd" clip-rule="evenodd" d="M72.1417 78.1674C72.1417 77.3776 68.7313 79.2694 67.7334 78.5087C68.3438 77.3776 70.1943 77.3483 71.4635 77.1435C73.2753 76.8607 75.5618 76.4902 78.2455 76.2854C78.3715 75.515 77.7805 76.5487 77.9064 75.7783C78.4199 75.9441 79.2919 75.7783 79.2628 76.4609C76.9957 76.6852 75.0289 77.4361 72.3161 77.6506C72.3645 77.9334 72.1514 77.9432 72.1417 78.1674Z" fill="#F93600"/>
<path fill-rule="evenodd" clip-rule="evenodd" d="M68.2461 77.31C68.7644 76.3812 69.5249 75.6124 70.4454 75.0866C69.9125 74.5796 68.8468 75.9155 68.7499 74.5796C71.4336 73.8677 74.4371 73.4874 77.2177 72.873C76.3845 74.4138 73.9139 73.2826 72.9838 74.7453C72.7319 74.6673 73.0516 74.5308 72.9838 74.2382C71.5015 74.7063 70.5423 74.7063 69.7672 75.9448C72.3347 75.7985 76.181 74.5503 78.7485 74.4138C77.4802 75.0687 76.0988 75.4725 74.6793 75.6035C74.8634 76.3738 75.8323 75.2719 76.0357 76.1105C74.0208 75.935 71.9927 76.2252 70.1063 76.9589C69.5734 77.0369 69.4184 76.7444 69.2634 76.4518C68.8803 76.6805 68.5367 76.9703 68.2461 77.31Z" fill="#F93600"/>
<path fill-rule="evenodd" clip-rule="evenodd" d="M93.834 19.5033C93.9115 19.2497 94.0471 19.5715 94.3378 19.5033C93.2914 22.0874 90.007 22.4287 88.7475 24.7886C87.8465 24.7301 87.4783 25.5492 86.7129 25.1299C88.6312 22.9163 92.5163 21.7559 93.834 19.5033Z" fill="#F93600"/>
<path fill-rule="evenodd" clip-rule="evenodd" d="M63.3335 53.6338C62.6262 56.2179 60.2525 58.607 59.0996 61.3082C59.4387 61.7958 59.3612 60.4501 60.0684 60.8011C59.3902 61.513 58.9736 63.3073 57.8691 63.0147C58.8477 59.67 61.2214 56.3252 63.3335 53.6338Z" fill="#F93600"/>
</g>
<defs>
<clipPath id="clip0_347_2259">
<rect width="98" height="93" fill="white"/>
</clipPath>
</defs>
</svg>
