<svg width="87" height="93" viewBox="0 0 87 93" fill="none" xmlns="http://www.w3.org/2000/svg">
<g clip-path="url(#clip0_347_2319)">
<path fill-rule="evenodd" clip-rule="evenodd" d="M8.42425 82.8298H8.12369C6.49206 81.1247 6.45771 76.6747 6.6724 74.3047C7.37658 76.6235 6.90426 79.9824 8.02923 81.9346C8.4586 81.9858 7.909 80.9372 8.5273 81.21C8.62477 81.7503 8.58942 82.3059 8.42425 82.8298Z" fill="#F93600"/>
<path fill-rule="evenodd" clip-rule="evenodd" d="M11.1641 82.5396C8.83692 81.6445 9.93612 77.74 8.84551 75.7195C8.66517 75.7195 8.69952 75.9838 8.66517 76.1628C8.24438 75.8559 8.50201 75.353 8.59647 74.7988C10.1852 76.1543 9.73002 79.3001 10.4771 81.3972C10.5372 81.9684 11.3101 81.8405 11.1641 82.5396Z" fill="#F93600"/>
<path fill-rule="evenodd" clip-rule="evenodd" d="M5.74561 81.9091H5.29047C4.97406 80.665 4.79836 79.3897 4.76663 78.107C4.61206 76.7174 3.90788 74.9015 4.84392 74.3389C4.84392 74.6031 4.70652 74.6202 4.52618 74.6202C5.28188 76.3764 5.06719 78.9765 5.50516 81.014C5.86583 81.014 5.64256 80.3064 6.14922 80.4513C6.07176 80.9511 5.93633 81.4403 5.74561 81.9091Z" fill="#F93600"/>
<path fill-rule="evenodd" clip-rule="evenodd" d="M82.3198 79.8877C82.1223 79.8195 82.0966 79.6064 81.8819 79.5553C80.6109 76.3584 78.799 72.8801 78.7217 69.1035C79.486 70.8085 79.7522 72.5135 80.3791 74.3294C81.006 76.1452 81.9849 77.8588 82.3198 79.8877Z" fill="#F93600"/>
<path fill-rule="evenodd" clip-rule="evenodd" d="M79.2886 79.7004C79.0396 79.7004 79.0396 79.547 78.8421 79.5214C78.522 76.1703 77.91 72.853 77.0129 69.6067C76.532 69.8795 76.6437 70.7917 75.7334 70.5871C75.7334 69.4192 76.532 69.4618 76.3259 68.3621C76.532 67.8847 76.4719 68.7798 76.4376 68.9759C77.7858 68.507 77.4681 66.1711 78.4814 65.3271C78.5609 66.6107 78.1568 67.8777 77.3478 68.8821C78.3552 72.4153 79.0053 76.0393 79.2886 79.7004Z" fill="#F93600"/>
<path fill-rule="evenodd" clip-rule="evenodd" d="M9.36842 59.9573C9.11939 59.9573 9.11939 59.7953 8.92188 59.7783C10.1241 56.8286 10.8798 52.7451 12.6489 50.9463C11.3779 53.8619 10.4247 57.2293 9.36842 59.9573Z" fill="#F93600"/>
<path fill-rule="evenodd" clip-rule="evenodd" d="M12.2628 59.8204C11.9536 56.9304 14.341 53.4863 15.2512 50.6475C15.38 53.6227 12.7007 56.3934 12.2628 59.8204Z" fill="#F93600"/>
<path fill-rule="evenodd" clip-rule="evenodd" d="M32.9326 59.8632C33.0013 59.3006 33.4565 59.1642 33.611 58.6953C33.8601 58.9852 33.3878 59.8291 32.9326 59.8632Z" fill="#F93600"/>
<path fill-rule="evenodd" clip-rule="evenodd" d="M4.37109 57.2367C5.32431 55.2589 5.63346 52.8293 6.43209 50.8685C6.51797 50.6554 6.61243 50.2717 7.07616 50.3058C6.87006 52.8548 5.74509 54.3979 5.02374 56.3757C5.75368 56.657 5.29854 55.6084 5.96837 55.8301C5.59052 56.4013 5.15256 57.6204 4.37109 57.2367Z" fill="#F93600"/>
<path fill-rule="evenodd" clip-rule="evenodd" d="M61.0568 57.1772C60.8765 57.1772 60.7906 57.1261 60.7649 57.0067C60.695 54.6958 60.7868 52.3827 61.0397 50.0844C61.1856 48.8823 61.1255 47.1944 62.0272 46.376C61.5635 49.2404 61.2372 53.9633 61.0568 57.1772Z" fill="#F93600"/>
<path fill-rule="evenodd" clip-rule="evenodd" d="M58.4641 54.91C58.2151 54.91 58.2151 54.748 58.0176 54.731C58.1378 53.5375 58.1206 52.1138 58.258 50.818C58.4555 48.9425 58.258 46.9135 59.1168 46.0439C59.0309 49.0362 58.6359 50.7242 58.5071 53.5545C58.5071 53.7677 58.7733 53.5545 58.8162 53.4181C59.2542 53.87 58.6101 54.5605 58.4641 54.91Z" fill="#F93600"/>
<path fill-rule="evenodd" clip-rule="evenodd" d="M55.9561 53.708C55.604 51.8751 56.0763 48.789 56.2051 47.084C56.9093 48.5929 56.4112 52.4548 55.9561 53.708Z" fill="#F93600"/>
<path fill-rule="evenodd" clip-rule="evenodd" d="M54.041 52.6853C53.9175 52.576 53.7597 52.5128 53.5944 52.5063C53.7146 50.878 52.8731 47.9966 53.9379 46.9395C53.998 48.6786 53.9808 50.5967 54.041 52.6853Z" fill="#F93600"/>
<path fill-rule="evenodd" clip-rule="evenodd" d="M70.4173 45.8215C70.4173 46.3159 70.194 46.5376 69.7646 46.5376C69.8763 46.1795 69.945 45.7789 70.4173 45.8215Z" fill="#F93600"/>
<path fill-rule="evenodd" clip-rule="evenodd" d="M70.5723 45.831C70.8557 45.5582 70.8041 44.9188 71.3881 44.9785C71.1133 45.2684 71.1047 45.8481 70.5723 45.831Z" fill="#F93600"/>
<path fill-rule="evenodd" clip-rule="evenodd" d="M18.7638 38.0383C19.0043 35.6342 21.632 34.5089 22.8858 32.7101C20.6273 32.3265 18.5921 34.4151 16.2734 33.9718C18.6178 31.2523 21.7609 29.4109 24.5861 27.2285C22.4908 29.786 19.4336 31.3376 17.0549 33.5626C19.2104 33.6905 21.632 31.6275 23.6587 32.4544C22.2503 34.5601 19.9832 35.7024 18.7638 38.0383Z" fill="#F93600"/>
<path fill-rule="evenodd" clip-rule="evenodd" d="M14.3838 30.0767C15.775 28.5336 17.8188 27.6641 19.6136 26.6155C21.4084 25.5669 23.1345 24.4075 24.9722 23.4697C23.6415 24.7321 22.1452 25.8103 20.5239 26.6752C18.9266 27.6129 17.2348 28.4654 15.6462 29.3947C15.9295 29.9062 16.4362 29.335 16.7196 29.3094C16.4448 30.0681 15.0536 30.2983 14.3838 30.0767Z" fill="#F93600"/>
<path fill-rule="evenodd" clip-rule="evenodd" d="M11.0439 27.6134C12.4781 26.096 14.6421 25.3969 16.4111 24.3142C18.9187 22.7883 21.1257 20.8275 23.6676 19.9238C19.5799 22.6263 15.7928 25.6612 11.0439 27.6134Z" fill="#F93600"/>
<path fill-rule="evenodd" clip-rule="evenodd" d="M61.4953 30.1958C60.4648 29.1898 62.1136 27.6382 62.4742 26.6323C61.1689 27.0926 60.7568 28.5163 59.2969 28.8573C59.898 25.7286 63.1613 24.2026 64.0458 20.8438C64.9818 22.0287 63.3072 23.2734 62.6202 24.2538C61.7615 25.4132 61.0315 26.6493 60.293 27.5871C61.1518 27.5104 61.8302 25.8821 63.1355 25.7968C63.1355 27.2802 61.6413 28.7976 61.4953 30.1958Z" fill="#F93600"/>
<path fill-rule="evenodd" clip-rule="evenodd" d="M11.5498 24.1767C12.2797 22.6421 14.0144 22.0369 15.3798 21.2355C17.5954 19.9312 19.6736 18.3455 22.3014 17.4248C19.1927 19.7692 15.3197 21.2781 12.3399 23.7675C12.3914 23.9721 13.1986 23.6311 13.4219 23.5288C13.6881 24.1085 12.3313 24.2363 11.5498 24.1767Z" fill="#F93600"/>
<path fill-rule="evenodd" clip-rule="evenodd" d="M58.0078 25.0125C58.8666 22.7619 61.2539 20.8523 62.6622 18.4994C63.1174 17.7491 63.2118 16.4789 64.311 16.334C62.8426 19.403 60.7902 21.8071 58.8065 24.2964C59.94 23.9128 58.7549 25.4132 58.0078 25.0125Z" fill="#F93600"/>
<path fill-rule="evenodd" clip-rule="evenodd" d="M11.293 20.9892C13.6288 18.5766 17.1754 17.5195 19.9835 15.627C18.4549 17.4854 14.8911 18.713 12.5553 20.3072C12.7099 20.7761 13.0878 20.1793 13.4656 20.3669C12.8393 20.8248 12.0687 21.0455 11.293 20.9892Z" fill="#F93600"/>
<path fill-rule="evenodd" clip-rule="evenodd" d="M55.8184 23.2224C57.7205 19.9731 59.79 16.8232 62.0185 13.7852C62.0787 15.0554 60.6445 16.2574 59.8116 17.5788C59.0745 18.9983 58.2305 20.3605 57.2868 21.6538C57.2868 21.901 56.9948 22.2932 57.2868 21.9522C57.45 22.387 56.4281 23.6146 55.8184 23.2224Z" fill="#F93600"/>
<path fill-rule="evenodd" clip-rule="evenodd" d="M10.6914 18.3882C11.6532 17.3311 13.0616 16.8878 14.3239 16.1887C15.5109 15.4372 16.771 14.806 18.0852 14.3047C16.445 15.7795 14.2638 16.6576 12.2543 17.7147C12.3402 18.2859 13.2161 17.3737 12.9929 18.0642C12.1599 18.0131 11.4042 18.8571 10.6914 18.3882Z" fill="#F93600"/>
<path fill-rule="evenodd" clip-rule="evenodd" d="M10.3047 16.8628C11.5842 15.1578 14.3494 13.8023 16.7797 12.873C15.0622 14.2371 12.297 15.2004 11.2236 16.7605C10.9406 16.9063 10.6132 16.9427 10.3047 16.8628Z" fill="#F93600"/>
<path fill-rule="evenodd" clip-rule="evenodd" d="M49.1801 17.8426C48.682 16.3422 50.2106 14.4326 51.2668 13.5801C50.4596 14.9697 49.807 16.6832 49.1801 17.8426Z" fill="#F93600"/>
<path fill-rule="evenodd" clip-rule="evenodd" d="M11.7822 8.04752C11.9539 8.43968 12.306 7.68094 12.7096 7.8003C12.203 8.32885 11.3786 9.25808 10.6572 9.03643C12.3802 6.58631 14.3016 4.27974 16.4023 2.13965C16.5225 2.99216 15.2 4.22829 14.3928 5.19162C13.5856 6.15496 12.5035 7.14386 11.7822 8.04752Z" fill="#F93600"/>
<path fill-rule="evenodd" clip-rule="evenodd" d="M14.8393 7.77472C15.1055 8.16688 15.449 7.29732 15.9299 7.39109C15.3741 8.06001 14.6642 8.58632 13.8604 8.92561C14.0493 7.57865 15.2773 6.47039 16.2047 5.44738C17.0527 4.33654 18.0331 3.33179 19.1245 2.45508C17.9652 4.5352 16.2219 5.96741 14.8393 7.77472Z" fill="#F93600"/>
<path fill-rule="evenodd" clip-rule="evenodd" d="M17.0547 8.81539C17.5614 7.43433 18.7722 6.54772 19.6911 5.50766C20.6099 4.4676 21.1939 3.11212 22.4562 2.50684C21.2712 4.66368 19.4935 6.13852 18.0337 7.97141C18.214 8.36356 18.7207 7.79238 19.1071 7.88616C18.8436 8.16769 18.5266 8.39472 18.1743 8.55419C17.8221 8.71366 17.4416 8.80243 17.0547 8.81539Z" fill="#F93600"/>
<path fill-rule="evenodd" clip-rule="evenodd" d="M9.22259 7.5873C9.71208 7.5873 9.93535 6.82857 10.3132 7.20367C9.72067 7.50205 9.54892 8.27783 8.5957 8.15848C9.75076 5.67076 11.5605 3.53846 13.8341 1.98633C12.2712 3.82774 10.6309 5.57538 9.22259 7.5873Z" fill="#F93600"/>
<path fill-rule="evenodd" clip-rule="evenodd" d="M21.34 8.31983C21.2112 8.2431 21.0738 8.1749 21.0566 8.0044C22.2431 6.18929 23.619 4.50338 25.1615 2.97461C25.3246 4.15959 22.9717 5.66001 22.3276 7.03254C22.8343 7.03254 23.006 6.72564 23.2722 6.48694C23.6672 6.99844 21.7866 7.67192 21.34 8.31983Z" fill="#F93600"/>
<path fill-rule="evenodd" clip-rule="evenodd" d="M29.8248 3.70017C29.5671 5.2773 28.6053 6.07866 27.9355 7.20397C29.5757 6.68394 29.8849 4.64645 31.8943 4.57825C32.1777 5.57568 31.1816 6.41114 31.5594 7.57907C30.778 7.26365 31.0442 6.12129 31.2417 5.29435C29.9106 5.51601 29.1463 7.76663 27.2829 7.92008C27.0166 6.35999 29.3181 5.51601 29.0433 3.95592C28.3906 4.51857 27.4031 5.54158 26.8105 5.66093C27.6779 4.89368 28.4593 3.35064 29.8248 3.70017Z" fill="#F93600"/>
<path fill-rule="evenodd" clip-rule="evenodd" d="M47.2311 8.06506C47.3599 7.94571 47.6518 7.99686 47.7034 7.79226C47.8837 8.15883 46.982 8.68739 46.4238 8.77264C46.9992 6.66695 49.3092 5.16653 50.8464 3.60645C51.3101 3.8281 50.7519 4.36518 50.6403 4.45895C49.7214 5.59279 47.8665 6.67547 47.2311 8.06506Z" fill="#F93600"/>
<path fill-rule="evenodd" clip-rule="evenodd" d="M26.0374 6.03582C26.1405 6.48765 26.2865 5.70334 26.6557 5.925C26.2435 6.61553 25.3161 7.48508 24.5947 7.30606C25.4105 5.60104 26.9305 4.68034 27.7463 2.9668C28.5793 3.7511 26.6214 5.25152 26.0374 6.03582Z" fill="#F93600"/>
<path fill-rule="evenodd" clip-rule="evenodd" d="M44.2853 8.34608C44.1565 8.26935 44.0191 8.19262 44.002 8.02212C44.7196 6.72019 45.7234 5.59545 46.9389 4.73145C46.5439 5.96758 45.5134 6.53024 44.792 7.46799C44.8607 7.91982 45.1269 7.34012 45.3931 7.46799C45.2901 8.07327 44.5687 7.96245 44.2853 8.34608Z" fill="#F93600"/>
<path fill-rule="evenodd" clip-rule="evenodd" d="M1.71823 85.7456C0.971535 83.4958 0.397396 81.1931 0.000731103 78.8573C-0.0937314 78.2094 0.859482 78.755 0.799369 78.1497C0.455869 65.9589 1.86422 49.3861 1.15146 37.5874C2.15619 36.5048 2.13902 34.2541 2.57698 32.2337C3.98533 25.2772 7.05107 18.7556 7.6522 10.9636C6.42619 10.4143 5.09852 10.124 3.75347 10.1111C3.99392 9.36093 3.63325 9.34388 2.89472 9.30125C3.71912 5.11544 5.37651 0.486329 9.59297 1.57754C7.96135 3.81111 6.01198 5.66105 5.19617 8.85795C20.6107 10.0088 36.5921 10.0856 52.5219 10.3498C57.4082 10.4351 63.4796 10.3498 68.2886 10.9977C68.675 9.79571 68.5204 8.95172 68.9326 7.86904C65.0425 6.82046 61.264 5.60137 57.2794 4.60394C56.1111 5.34614 55.2374 6.46656 54.8062 7.77526C54.1364 6.59028 55.6649 5.21774 56.3691 4.55279C55.871 4.13506 54.8663 4.16916 54.2823 3.82816C53.5181 5.20069 51.0964 6.62438 51.4571 7.73264C50.8731 7.73264 50.7271 8.20152 50.0659 8.09922C50.8559 6.24928 52.5906 5.4735 53.5009 3.78553C45.2397 0.62273 32.6934 0.179426 23.7709 0.921107C23.7709 0.665355 24.0543 0.546004 23.7709 0.469279C23.4876 0.392553 23.625 0.520429 23.6078 0.614205C23.3587 1.20243 22.354 1.22801 21.8903 1.26211C18.5326 1.56049 15.2178 1.37294 11.508 1.99527C10.407 3.69629 9.14152 5.28664 7.72949 6.74373C7.55773 7.38311 8.4079 6.4965 8.15027 7.37459C7.67796 7.27229 7.78101 7.81789 7.22282 7.62181C7.45468 5.06429 10.7351 3.77701 11.1044 1.36441C13.8009 1.23654 17.6652 1.15128 20.5506 0.725031C18.0345 0.392553 13.1482 0.665355 10.2456 0.852907C11.9631 -0.280928 14.8314 0.196476 17.5794 0.239102C19.6232 0.239102 21.8731 -0.101901 23.4961 0.443703C26.9311 -0.076326 32.4873 -0.0507507 37.0472 0.0515502C42.1997 0.170901 46.4935 1.17686 51.5 2.27659C54.4627 2.93302 57.6057 3.0609 60.2249 3.70881C61.1068 4.01076 62.004 4.26686 62.9128 4.47606C67.0004 5.03872 71.131 4.34819 73.9993 7.10178C74.3342 10.5971 72.8743 14.7743 72.9945 18.5083C73.0632 20.6396 73.8533 23.0522 74.2483 25.371C75.8456 34.7486 77.9409 45.0725 79.9075 54.6802C80.6031 58.0902 80.7662 61.7901 81.7452 64.4499C81.9255 64.9444 82.3807 65.3024 82.6039 65.7031C82.9099 66.6439 83.1058 67.6164 83.1879 68.6017C84.1411 73.2222 85.9531 77.715 86.9149 82.2418C86.4941 83.3756 87.3614 84.1599 86.9149 85.1062C86.3824 85.1062 86.4082 84.697 86.1935 84.4583C82.5007 84.8033 78.7773 84.6312 75.1328 83.9468C73.1983 86.5024 71.1197 88.9473 68.9069 91.2698C68.6578 92.1223 68.3229 92.8555 67.1293 92.9748C67.052 92.5059 67.3182 92.4377 67.3354 92.1223C63.8488 92.5912 60.2077 91.4233 56.1716 90.997C47.4553 90.0763 37.4251 89.5392 28.3567 88.5674C19.2883 87.5955 10.8038 86.8624 3.08365 86.743M5.5225 84.1855C15.3466 86.2485 27.0771 86.922 39.0138 88.1667C40.4822 88.3201 42.0709 88.4906 43.548 88.5929C51.2338 89.13 59.2459 90.298 65.9614 89.9399C66.6312 84.2793 65.6436 80.1446 65.6436 75.2853C65.6436 65.7202 65.489 56.0101 66.322 46.8116C67.3354 34.7401 68.3057 23.0181 68.7008 13.7343C65.7982 13.4359 63.6685 13.4785 60.3709 13.2313C59.0872 15.5267 57.5397 17.6666 55.7594 19.6081C55.2098 20.2474 56.2317 20.111 55.8539 20.5202C55.2613 20.6652 54.9436 21.782 54.2823 21.3728C55.8453 18.389 58.5246 16.2577 59.6409 13.2484C58.9539 13.1034 58.0952 13.3251 57.8204 13.1375C56.9617 14.7147 55.4073 16.36 54.4884 17.9201C54.0075 18.7726 53.9217 20.1537 52.6937 19.9235C53.81 17.9627 55.768 15.5587 57.0561 13.2484L54.789 13.112C53.6039 14.7402 52.8912 17.724 51.2767 18.3293C52.3453 16.5815 53.3171 14.7772 54.1879 12.9244C39.3143 12.8306 24.664 11.2194 9.60156 11.2961C8.2018 16.8715 6.54441 22.8902 4.91278 28.3463C4.24938 30.1774 3.77745 32.0714 3.50443 33.9984C3.34986 36.4536 3.58172 39.3777 3.30692 42.1313C2.75732 47.7408 2.87755 53.8874 2.69721 59.6759C2.50828 65.8651 1.71823 72.813 2.96342 77.6723C1.84704 79.9485 2.8432 82.506 3.29833 84.6288C4.29448 84.7908 5.15323 84.7908 5.46238 84.1599L5.5225 84.1855ZM16.9868 86.9561C19.9323 87.4676 22.9981 87.408 26.3472 87.9706C23.6335 87.3398 19.1251 86.6919 16.9868 86.9561ZM1.97586 81.3893C2.11326 81.8326 2.05314 82.4549 2.34512 82.7703C2.29359 82.3696 2.14761 80.7584 1.97586 81.3893ZM73.0976 84.015C72.5308 84.8675 73.9563 83.3841 73.8876 83.4608C76.4639 81.4489 81.7538 81.9945 85.6096 83.1113C84.5962 80.2043 84.4588 77.2205 83.7117 74.3987C82.9646 71.5769 81.6593 69.1217 81.0067 66.3937C79.564 60.3409 78.5592 54.0494 76.9362 48.491C74.3084 39.5056 73.6558 29.7955 71.672 20.2645C70.9142 21.8589 70.4019 23.5573 70.1521 25.3028C71.0108 25.3966 70.487 23.9644 71.5776 24.331C70.2883 26.2198 69.5267 28.4143 69.3706 30.6907C70.5041 30.0854 70.2809 27.9626 71.6806 27.6643C70.9679 29.2755 69.9631 30.5969 69.2761 32.1996C69.6454 32.4212 69.6883 31.5176 69.8944 32.0888C69.5254 32.3832 69.2452 32.7728 69.0846 33.215C68.924 33.6571 68.8892 34.1347 68.9842 34.5951C70.1435 33.3249 70.7532 30.5884 72.1444 30.1109C71.2856 31.9183 69.7399 33.7256 69.2418 35.3709C69.3878 35.2942 69.8343 34.7827 69.8687 35.1066C69.3878 35.6437 68.2714 36.3087 68.8124 37.4596C69.7914 35.908 70.3238 34.0495 71.6463 33.4016C71.0709 35.0555 69.9288 36.0615 69.259 37.6642C69.7914 37.5619 70.341 36.6326 70.6759 36.8117C69.8171 37.6642 68.1941 38.636 68.6321 40.4604C69.7141 38.8918 70.4698 36.9481 71.8094 35.6693C71.3457 37.9881 69.3191 39.4118 68.8897 41.2276C68.8978 41.1941 68.9171 41.1643 68.9443 41.143C68.9716 41.1217 69.0053 41.1101 69.04 41.1101C69.0747 41.1101 69.1084 41.1217 69.1356 41.143C69.1629 41.1643 69.1821 41.1941 69.1903 41.2276C68.7917 41.5672 68.5043 42.0172 68.3651 42.52C68.2259 43.0227 68.2411 43.5553 68.4088 44.0494C69.4481 42.292 70.6683 40.6463 72.0499 39.139C71.5604 40.9975 70.2036 41.8841 69.362 43.3504C70.0318 43.4015 70.0061 42.6769 70.6158 42.6684C69.2933 43.8619 67.7304 44.7911 68.0395 47.7834C69.3689 46.1166 70.408 44.2408 71.1139 42.2336C71.32 42.2336 71.4144 42.0375 71.7322 42.1228C71.4917 44.1262 69.6712 45.1321 69.7656 46.9821C69.0099 46.9139 68.967 48.5251 68.134 48.8491C68.1855 49.6589 67.8163 50.8354 68.134 51.4066C69.1283 49.2025 70.3668 47.1152 71.8266 45.1833C71.6463 45.1833 71.4745 45.1151 71.5432 44.8678C71.9297 44.7996 72.5909 44.1262 72.7627 44.7911C71.8266 46.8457 69.1903 48.5336 69.4994 50.9292C68.9484 51.2252 68.494 51.6713 68.1898 52.215C67.8855 52.7587 67.744 53.3774 67.7819 53.9982C69.6035 52.2735 71.0629 50.2076 72.0757 47.9198C72.2818 47.9198 72.3762 47.7237 72.694 47.809C72.3934 51.0912 67.5415 52.9837 67.7647 56.4108C69.8773 54.9274 71.0881 52.4296 73.2607 51.0059C71.8953 53.5634 69.6368 55.1832 67.7218 57.161C67.519 57.8514 67.519 58.5849 67.7218 59.2752C69.216 57.4168 71.0537 55.9419 72.4535 53.9811C72.1215 53.9811 71.9783 53.822 72.0241 53.5037C73.2693 52.924 73.3123 50.9888 75.2101 51.1338C75.5107 52.4978 74.1538 54.092 74.2054 55.1491C74.42 54.8507 75.0641 54.1772 75.3131 54.4586C75.4763 55.2173 74.6777 55.2258 74.1796 55.5924C73.3208 56.2914 73.4582 58.0988 72.1873 58.3375C71.964 57.8174 73.089 56.7177 72.9172 56.2659C71.5604 58.1755 69.3362 59.9572 68.3315 61.7219C68.3315 61.5344 68.8038 61.2275 68.7952 61.594C68.3744 62.1482 67.1722 62.6597 67.7476 63.7935C68.4006 62.7975 69.1703 61.8817 70.0404 61.0655C70.7961 60.213 71.3972 58.7552 72.6167 58.8063C70.633 61.594 67.2237 63.1115 67.8678 66.8199C69.216 64.8506 71.4745 63.0518 72.4621 61.2104C72.4106 61.4406 72.2131 61.2104 72.1701 61.0399C73.0289 60.2897 72.9516 58.4824 73.7416 57.6299C73.8189 58.3801 73.1405 59.0621 73.4497 59.8805C74.2225 58.1755 75.5107 56.1977 76.8847 55.7117C75.7594 57.1032 74.7075 58.5516 73.733 60.051C73.5871 60.5114 74.2483 60.2641 73.9907 60.8183C71.7648 62.8207 69.7897 65.0819 68.1082 67.5531C70.0662 65.4047 72.6424 63.964 74.2569 61.4321C74.239 61.5299 74.2568 61.6309 74.3072 61.7168C74.3576 61.8028 74.4372 61.868 74.5317 61.9009C75.2874 60.7671 75.7855 58.4909 77.168 58.5932C75.6996 60.1022 74.8666 62.3272 73.6386 64.1175C71.9211 64.5437 70.7446 66.4448 70.0834 67.5275C71.7379 65.9532 73.4554 64.4471 75.2359 63.0092C75.2359 63.1882 75.4677 63.1882 75.6824 63.1882C76.1162 62.3003 76.7336 61.5131 77.4944 60.8779C76.4308 62.9681 75.1897 64.9645 73.7846 66.8455C73.4239 67.3911 73.0632 68.4567 72.1701 68.4056C72.007 67.8855 72.8142 67.6468 72.3848 67.3655C71.2129 69.0025 69.7348 70.4004 68.0309 71.4831C68.1426 71.9094 68.0309 72.5402 68.2542 72.8557C70.1435 71.3297 71.6205 69.3433 74.1452 68.5334C74.0937 69.1132 73.3724 68.9512 73.2865 69.5394C74.0594 71.6877 73.8189 74.1685 74.5231 76.709C74.5746 76.5726 75.2187 76.3509 75.1414 76.5896C74.2826 77.4421 74.4716 78.5248 74.9525 79.599C75.2616 79.0278 76.1118 79.079 76.2492 78.3202C75.6309 75.2171 75.5192 71.6621 74.068 69.2922C75.6223 67.2291 76.6957 64.629 78.4218 62.762C77.6661 65.4985 75.8456 67.0245 74.6777 69.3263C76.0259 71.5513 76.1375 74.8676 76.5841 77.8514C77.0392 77.9451 77.2282 79.2324 76.6442 79.3603L76.2148 78.8829C74.2311 80.9374 71.4745 82.992 70.0576 85.1488C70.0576 84.9954 70.3324 84.9783 70.3582 85.1488C70.3582 85.9075 69.2074 85.4642 69.362 86.4446C71.9383 85.0636 73.1749 82.2588 75.6309 80.784C74.8151 82.7447 73.6987 83.0687 73.0976 84.0065V84.015ZM73.9563 78.0474C72.3676 80.5282 68.9412 82.1565 69.4221 85.1659C70.5557 82.5487 75.3475 81.2699 73.922 78.0219L73.9563 78.0474ZM69.4307 82.4549C70.2895 80.4856 74.5832 78.3799 73.7846 75.9247C72.4192 77.4507 70.6845 78.5589 69.8515 80.6646C69.3191 80.9204 68.5204 81.5683 68.9927 82.4208L69.4307 82.4549ZM73.8017 75.021C73.6882 74.6278 73.6618 74.2148 73.7245 73.8105C71.8781 74.663 70.1864 77.1182 68.572 78.7806C68.8468 78.9426 69.1044 78.3629 69.1731 78.7806C69.0257 78.8531 68.898 78.9599 68.8011 79.092C68.7042 79.224 68.6408 79.3772 68.6164 79.5388C68.5919 79.7003 68.6071 79.8653 68.6607 80.0198C68.7143 80.1742 68.8046 80.3136 68.924 80.4259C70.4314 78.5222 72.0606 76.7168 73.8017 75.021ZM68.2285 76.6493C68.1769 77.2631 68.1254 77.8769 68.4431 78.1668C69.0786 77.4166 69.8687 76.4618 70.8906 75.4473C72.0928 74.2026 74.2826 73.2308 73.1062 71.5087C71.0881 72.9324 69.8515 75.1233 68.2285 76.6237V76.6493ZM71.0623 72.5914C71.8438 71.7389 73.4582 71.0995 73.0632 69.6929C71.5776 71.1165 67.2409 72.4294 68.2886 75.7457C69.2504 74.7226 70.1005 73.5718 71.0623 72.5658V72.5914ZM71.7322 66.6238C70.5127 67.9282 69.1559 69.062 67.8592 70.3152C68.2886 70.2726 67.6874 71.1677 68.1168 71.0824C69.259 69.582 71.0881 68.0475 71.7322 66.5727V66.6238ZM68.6149 67.8941C69.0317 67.6738 69.3637 67.3232 69.5595 66.8966C69.8343 66.8966 70.5471 66.0441 70.2036 66.334C69.4221 67.0671 67.9794 67.9111 67.9193 68.8915C68.0567 68.4482 68.6063 68.4738 68.6149 67.8941ZM74.4286 64.7909C73.9563 65.7031 72.9859 66.0697 72.4707 66.9393C73.3552 67.016 74.3771 65.5582 74.4286 64.7909ZM66.4938 57.826C66.4938 57.4764 66.4337 56.1209 66.2619 56.6069C66.1166 58.212 66.1166 59.8269 66.2619 61.4321C66.2619 60.4773 66.511 58.9257 66.4938 57.8089V57.826ZM74.712 52.0033C74.3342 51.9607 74.2311 52.2165 73.9391 52.2591C73.3638 54.8166 70.1005 57.0161 68.3401 59.3178C68.5204 59.3178 68.7695 59.3178 68.7866 59.4969C68.3487 59.7526 68.1082 60.2386 67.5157 60.3494C67.7218 60.6478 67.4642 61.3468 67.7476 61.5685C69.9288 58.1243 73.6987 56.5728 74.712 52.0033ZM79.3407 55.9078C79.545 57.6803 79.9482 59.4246 80.5429 61.1081C80.0964 59.4116 80.1823 57.2548 79.375 55.8737L79.3407 55.9078ZM75.2187 34.3479C75.8713 39.4203 76.3608 44.6291 78.1384 48.7041C77.2024 43.8875 76.3093 39.0367 75.2187 34.3479ZM2.12184 39.301C2.18196 40.1535 1.59801 40.8696 2.12184 41.4152C2.36826 40.7317 2.36826 39.9845 2.12184 39.301ZM2.65427 38.1245C3.08365 35.0384 1.98444 37.7494 2.65427 38.1245ZM4.13991 28.7469C4.13991 29.1732 3.64183 30.5372 4.03686 30.4008C3.8737 29.625 4.74962 28.9856 4.13132 28.7128L4.13991 28.7469ZM6.06351 22.0718C5.55685 24.0326 4.40612 26.3343 4.44906 28.6105C4.72386 26.7776 6.20091 24.2798 6.06351 22.0377V22.0718ZM68.4689 30.5031C69.0099 31.0999 68.1082 32.6088 68.4689 30.5031ZM72.4535 20.0343C72.4535 23.9132 73.6386 27.9967 74.317 31.7648C73.7674 27.758 73.3294 23.683 72.4535 20.0002V20.0343ZM68.7008 27.1613C68.7609 27.8177 68.4002 28.8663 68.7008 29.2755C68.8124 28.4741 69.1387 27.6131 68.7008 27.1613ZM7.08542 17.724C6.9652 17.8178 6.63887 18.5765 7.18847 18.4828C7.33446 17.7922 7.19706 16.198 7.08542 17.724ZM71.5346 17.5279C70.633 18.3805 70.6072 20.6737 70.4956 22.14C71.0881 20.2133 72.0155 19.932 71.5346 17.5279ZM70.5986 17.903C70.3667 17.903 70.4698 18.3378 70.5986 18.0565C71.097 16.937 71.2262 15.6898 70.9679 14.493C70.7129 15.6118 70.589 16.756 70.5986 17.903ZM72.1358 12.4385C71.7923 14.3822 71.423 16.36 72.256 17.8775C72.0327 16.198 72.8915 14.0923 72.1358 12.4385ZM69.3105 13.9304C69.3105 14.3396 69.0614 15.7547 69.3706 15.4393C69.3534 15.0301 69.6368 13.6405 69.3277 13.9218L69.3105 13.9304ZM13.6377 9.96621C13.0623 9.96621 11.3276 9.68488 11.8085 9.96621C16.4458 10.418 21.2548 10.3072 25.4627 10.3328C26.0982 10.3328 26.9655 10.759 27.3004 10.1452C22.8091 10.1111 17.7769 9.98326 13.6377 9.96621ZM34.7286 10.4862C33.6466 10.6397 33.0111 10.3072 32.1523 10.6312C32.7706 10.8187 34.4882 11.2279 34.7372 10.4862H34.7286ZM3.77065 7.26376L3.67618 8.76417C4.11415 8.66187 4.05403 9.00288 4.4233 8.96025C4.22578 8.38054 3.9424 7.86904 3.77065 7.26376ZM44.4411 10.7676C41.7274 10.6056 43.5823 10.9295 45.0336 10.9551C45.8904 10.8736 46.7531 10.8736 47.6099 10.9551C47.3694 10.563 45.2225 10.6994 44.4411 10.7676ZM49.3016 10.7676C48.9323 10.7676 47.5841 10.5374 47.9276 10.8358C48.4944 10.7761 49.4218 11.1256 49.7567 10.8358C49.5506 10.7164 49.5163 10.5885 49.3102 10.759L49.3016 10.7676ZM8.48519 2.26807C6.14938 3.0268 5.05018 5.14102 4.34601 7.74969C4.71527 7.74969 4.2172 8.43169 4.77538 8.22709C5.50532 5.66957 7.12836 4.10948 8.48519 2.26807ZM72.7798 7.19556C72.694 8.57662 72.5823 9.95768 72.8915 10.3669C72.8571 8.90057 73.4325 8.20152 72.7798 7.19556ZM71.0623 7.99692C71.0517 8.77003 71.1588 9.54031 71.3801 10.2816C71.3972 9.37798 71.6463 8.32939 71.0537 7.99692H71.0623ZM5.7973 3.46158C6.08927 3.35075 6.65605 2.73695 6.45853 2.60907C6.12362 2.80515 5.15323 4.49311 5.83165 3.46158H5.7973ZM56.5323 3.95603C60.9978 4.71476 65.2744 6.11288 69.113 6.97391C69.2735 6.59678 69.3496 6.18958 69.3362 5.7804C64.553 5.96795 60.5169 4.08391 56.5666 3.95603H56.5323Z" fill="#F93600"/>
<path fill-rule="evenodd" clip-rule="evenodd" d="M56.3258 77.4162C55.9565 77.203 56.5319 76.7 56.9698 76.8535C56.9698 75.6515 57.4164 75.3872 57.1244 74.296C55.3382 76.001 53.5949 77.8339 51.7916 79.5559C52.6503 78.9592 53.7495 78.5329 54.6254 77.9191C54.8659 78.047 54.2991 78.6182 53.8354 78.4733C52.2467 79.8629 50.4004 81.7554 48.4424 82.2243C50.7868 79.3854 54.4537 76.6063 57.1759 73.5458C57.1084 73.4326 57.0644 73.3072 57.0467 73.1768C57.029 73.0465 57.0379 72.9139 57.0729 72.787C55.4327 73.4094 53.9384 75.5918 52.2725 76.7256C52.4442 77.1604 52.616 76.2738 53.0453 76.4699C51.7806 77.8694 50.3372 79.0989 48.7516 80.1271C48.348 81.1246 48.1075 82.301 47.369 82.9148C46.9654 82.9148 46.8881 82.6761 46.9482 82.284C46.5274 82.4118 46.0379 83.2899 45.6944 82.966C45.2736 82.966 45.1878 82.7017 45.4196 82.4971C45.3767 82.2158 44.6725 82.966 44.3634 82.4289C48.2192 79.9737 49.4729 71.5765 47.1285 67.0838C45.1277 69.6413 42.268 71.1673 39.7691 73.128C40.8854 67.8851 39.0992 62.395 36.5402 58.7548C35.5268 62.7957 32.5813 64.7223 29.9535 67.1093C27.549 69.3088 27.7208 72.5739 25.6598 75.6344C25.5052 77.6549 26.4155 79.2405 25.8144 80.6216C25.342 80.7068 25.385 80.3317 24.9556 80.417C24.6992 79.5865 24.5492 78.7272 24.5091 77.8595C24.2686 78.3028 24.6379 79.6327 24.0711 80.093C23.5215 79.914 23.6675 79.1212 23.5558 78.55C22.8259 78.6864 23.719 79.7691 23.1522 80.1868C22.6627 80.2891 22.8603 79.7776 22.5769 79.7009C21.9328 80.0504 21.7782 80.9455 20.971 81.116C20.4815 79.752 23.0406 79.9481 22.3536 78.3369C21.0655 78.8654 20.7735 80.5278 19.1676 80.7068C19.6399 79.4451 20.4901 78.0044 20.3184 76.8535C20.3184 76.6489 20.0178 76.8535 20.0092 76.9814C20.0092 76.8364 20.3699 76.4528 20.3699 76.1289C19.9491 75.9328 19.5627 77.1434 19.0732 77.4076C19.2707 77.9191 19.2793 76.9132 19.7001 77.1433C19.5712 77.5952 19.0732 77.6208 18.8928 77.9959C19.0045 78.6352 19.1934 79.8032 18.1887 79.6156C18.5665 80.3829 18.618 81.0478 18.8413 81.3206C17.8366 81.6616 17.1238 79.9225 16.6944 79.0785C15.7557 76.9075 14.9274 74.691 14.2126 72.4375C13.8596 71.8336 13.5413 71.2102 13.2594 70.5705C12.8301 68.7888 13.2594 66.5808 13.4569 64.8502C13.9616 61.1041 15.3247 57.5228 17.4415 54.3814C17.6992 53.3328 17.4415 51.696 18.2402 51.2612C20.1294 52.8213 19.451 56.6406 20.8164 58.661C21.3876 58.9822 21.8802 59.4247 22.2591 59.9568C21.5893 54.1512 23.6589 50.5792 26.2266 47.2204C27.695 45.2937 29.9621 43.9382 31.5508 42.1053C33.3885 39.9911 34.2559 37.4336 36.0678 35.2853C36.0283 34.8317 36.0572 34.3748 36.1537 33.9298C36.626 34.0321 36.5831 33.4353 36.918 33.8275C37.5964 34.8078 38.3521 35.9587 38.2319 37.2375C38.584 37.6723 38.73 36.5129 39.3311 36.7004C39.1508 37.1949 38.7128 37.3995 38.3607 37.6978C38.8588 39.4711 38.4638 40.9374 38.3607 42.3781C38.2233 44.8248 39.5887 46.1547 40.937 47.962C42.2852 49.7693 42.809 52.037 43.7365 54.3217C44.5084 55.8806 44.8238 57.6234 44.6468 59.3515C46.3643 58.1751 47.9873 55.4897 48.4167 52.3354C49.4815 52.6423 49.2153 51.4147 50.1342 51.2357C50.1517 51.8075 50.0121 52.3733 49.7306 52.8725C50.2458 53.9381 50.658 55.089 51.6885 55.7028C52.2038 57.4675 52.5473 60.5706 53.406 61.9943C54.1016 63.0855 55.5357 64.279 56.4288 65.805C57.5452 67.6329 58.2465 69.6806 58.4839 71.8053C58.7212 73.9299 58.4887 76.0804 57.8028 78.1067C57.3047 79.4281 56.0853 80.8006 55.5615 82.4971C54.3002 83.499 52.975 84.4188 51.5941 85.2507C50.9833 84.7687 50.2787 84.4175 49.5245 84.2192C50.7095 82.1902 54.5653 79.3769 56.1454 77.8254C56.5233 77.4929 57.1158 76.4017 56.3258 77.4162ZM54.7542 80.8262C53.5434 82.0879 52.0234 83.0086 50.7525 84.2362C53.0196 84.2021 53.8955 81.8407 54.7542 80.7921V80.8262ZM56.4718 78.0641C55.0462 79.573 52.8736 81.099 51.9375 82.6164C53.114 80.8262 56.3859 80.5363 56.446 78.0214L56.4718 78.0641ZM46.5017 81.4997C46.421 81.4886 46.3389 81.495 46.261 81.5183C46.183 81.5416 46.111 81.5813 46.0499 81.6347C45.9888 81.6881 45.94 81.7539 45.9068 81.8277C45.8736 81.9015 45.8568 81.9815 45.8576 82.0623C45.938 82.0719 46.0195 82.0646 46.0969 82.0407C46.1742 82.0169 46.2456 81.9771 46.3064 81.924C46.3672 81.8709 46.416 81.8057 46.4497 81.7325C46.4833 81.6594 46.501 81.58 46.5017 81.4997ZM21.8298 77.4503C21.5979 77.9873 20.3699 78.9762 20.6704 79.0359C20.9023 78.4306 22.4738 77.9959 21.8298 77.4503ZM48.3651 78.4306C47.7211 78.6779 47.3432 80.0589 47.3261 80.4852C47.6337 79.7817 47.9806 79.0958 48.3651 78.4306ZM16.5914 76.2141C16.8442 77.0335 17.2051 77.8161 17.6648 78.5415C17.931 77.7572 17.0208 76.862 16.5828 76.2312L16.5914 76.2141ZM21.907 73.8186C20.9023 73.7759 21.1685 75.7197 21.4605 76.2056C20.9023 76.2653 20.2926 77.8254 20.8851 78.1323C22.0874 77.1263 21.907 75.9925 21.8985 73.8356L21.907 73.8186ZM23.2725 76.3164C22.0359 76.8961 22.9977 77.3565 23.0148 78.1152C23.5988 77.7401 23.1179 77.1092 23.2639 76.3249L23.2725 76.3164ZM19.6314 73.6822C18.6867 74.1766 18.1371 75.1144 17.2354 75.6515C17.5102 76.359 18.0513 76.8279 18.3346 77.527C19.0903 76.4443 20.5159 75.3275 19.6228 73.6992L19.6314 73.6822ZM56.987 71.7044C56.6177 70.6984 56.3773 69.5816 55.9565 68.6268C54.7628 69.1042 54.0243 70.2721 53.0625 71.1843C52.1007 72.0965 50.6408 72.6592 50.4863 73.8953C51.345 73.3412 52.3927 72.1903 53.1827 72.0965C52.4185 73.2303 50.4777 73.8612 50.263 75.0888C51.6107 74.2472 52.7662 73.135 53.6551 71.8237C53.6551 71.9431 53.5176 71.9942 53.3459 71.9601C54.2046 71.3293 54.7628 70.3318 56.0424 70.1613C54.5224 72.787 51.6799 73.9465 50.0311 76.4358C51.0101 76.2994 51.3965 75.498 52.2381 75.2082C51.4996 76.359 49.4729 76.9132 49.6017 78.5159C51.9375 76.1289 54.7371 74.2363 56.9784 71.7214L56.987 71.7044ZM23.1866 75.7197C22.8517 75.7197 23.1866 75.1826 23.0835 74.9609C22.0702 74.9609 23.4099 73.128 22.7744 72.5313C22.5597 73.9635 22.0359 75.0206 22.6971 76.2994C22.5511 75.8049 23.1866 76.1203 23.1866 75.7197ZM15.3634 73.7418C15.6031 74.4005 15.9233 75.0275 16.3166 75.6088C15.9988 75.0206 16.454 73.6907 15.3634 73.7418ZM16.9606 74.8927C17.8194 73.1877 19.9663 72.446 19.2449 69.9056C17.8022 70.7581 15.7069 73.0087 16.9692 74.8927H16.9606ZM49.0006 75.319C48.9062 75.6515 48.4596 76.4187 48.7688 76.6659C48.8976 76.3505 49.4042 75.6685 49.0092 75.319H49.0006ZM23.3068 73.1621C23.34 73.835 23.4524 74.5016 23.6417 75.1485C23.6074 74.4153 23.7619 73.5202 23.3068 73.1621ZM19.6571 73.2474C19.3308 73.2474 19.6571 72.7103 19.5541 72.4887C18.7943 73.026 18.2188 73.7818 17.9053 74.654C18.3003 73.9805 19.159 73.81 19.6485 73.2474H19.6571ZM21.1857 70.6217C20.1981 70.8092 20.868 73.5287 20.8422 73.7674C20.8422 72.5995 21.22 71.8493 21.1771 70.6217H21.1857ZM14.9683 70.4C15.6296 69.7521 15.08 68.2602 14.9683 67.3821C14.0409 68.8058 14.8911 71.7214 15.3462 73.5884C15.5461 73.0655 15.6153 72.5023 15.548 71.947C15.4807 71.3917 15.2789 70.8609 14.9598 70.4H14.9683ZM26.9136 71.423C26.7075 72.3693 25.926 72.6762 25.8573 73.7759C26.4902 73.149 26.8639 72.3097 26.905 71.423H26.9136ZM21.8298 69.9056C21.5655 71.0227 21.4443 72.1684 21.4691 73.3156C22.0042 72.2606 22.1325 71.0479 21.8298 69.9056ZM20.0521 71.6106C20.1638 72.0368 19.6571 73.0002 20.2754 72.9831C20.138 72.5057 20.4128 72.105 20.0521 71.6106ZM19.1934 66.2824C18.6524 67.1349 17.6305 67.4248 17.6648 68.9081C16.2994 69.1639 15.2174 71.1843 16.3853 72.4546C17.4845 70.7069 19.597 68.7291 19.1676 66.2739L19.1934 66.2824ZM25.677 69.539C25.2562 69.6242 25.3936 69.2236 25.093 69.198C24.5176 69.5731 25.093 71.227 24.0625 71.0991C23.9766 71.6021 23.7963 72.2926 24.2772 72.6165C24.6207 71.4827 25.2218 70.5961 25.6512 69.5305L25.677 69.539ZM23.7104 69.4196C23.47 69.8629 23.2123 70.9115 22.5855 70.4085C22.6542 70.8689 22.3107 71.6873 22.6456 71.9175C23.2295 71.3463 24.4575 70.5876 23.6847 69.4196H23.7104ZM35.2692 58.9508C34.0496 60.1198 32.9025 61.361 31.8342 62.6678C30.9755 63.6055 28.7427 66.0778 27.8238 66.0778C27.2309 67.5747 26.5425 69.0326 25.7628 70.4426C25.5997 70.7922 25.0758 71.6788 25.3936 71.4742C27.7637 66.3847 32.7788 63.3839 35.2692 58.9508ZM55.5443 67.8595C55.4928 67.5697 55.2437 67.4589 55.2867 67.0923C52.9852 68.0949 50.9978 69.6938 49.533 71.7214C49.7391 71.5083 50.4605 71.065 50.6237 71.3378C50.4433 71.8834 49.6275 71.7214 49.4987 72.3267C49.7563 72.4375 49.4386 73.0428 49.7563 73.0939C51.8812 71.5749 53.8232 69.8186 55.5443 67.8595ZM19.7516 68.5757C19.7516 69.5049 19.5025 70.5961 19.8976 71.1332C20.1733 70.2926 20.1212 69.3799 19.7516 68.5757ZM22.8774 64.6882C22.6121 65.3058 22.5697 65.9954 22.7572 66.6405C22.5667 66.8059 22.4017 66.9984 22.2677 67.2116C22.6284 67.9533 22.2677 69.7692 22.7229 69.6498C23.1265 68.3881 23.8908 66.2057 22.9118 64.6882H22.8774ZM17.6391 63.938C16.4883 65.3702 14.8481 67.2287 15.9216 69.4196C17.3299 68.2517 17.7078 66.0949 17.6391 63.938ZM42.998 69.2236C43.4846 67.9583 44.1717 66.7784 45.0332 65.7283C45.2135 64.8076 45.1362 63.4777 46.536 63.5544C46.9911 61.9176 48.7516 60.9031 48.3394 58.84C48.0045 60.1529 46.8881 60.8008 46.9224 62.071C44.5609 62.5484 43.5819 65.3447 42.3367 67.5271C42.6802 67.851 43.4102 66.3847 43.7537 66.6746C43.1869 67.3821 42.8949 68.3796 41.6755 68.3796C42.1564 65.447 45.0332 62.6081 46.2354 60.9628C46.2354 60.6729 45.7374 60.8264 45.8061 60.4854C43.496 61.048 42.3024 63.7334 41.5123 65.5066C41.6841 65.2082 42.1564 64.4154 42.4655 64.8076C41.0228 65.8562 40.8511 68.3881 41.0572 70.4597C41.6623 69.9863 42.3123 69.5723 42.998 69.2236ZM21.7954 67.9448C21.7954 68.2687 21.5807 69.539 21.8727 69.1554C21.8555 68.8314 22.096 67.5612 21.7954 67.9448ZM55.0205 66.4955C54.4623 66.2313 54.5138 65.4214 53.8783 65.2168C52.0234 66.4529 50.1513 67.672 48.8976 69.5987C49.4386 69.6754 49.6447 69.36 50.1256 69.3685C49.9538 69.9226 49.1638 69.7947 49.1466 70.5194C49.1466 70.6899 49.3012 70.7666 49.43 70.8348C51.1195 69.1801 52.9954 67.7241 55.0205 66.4955ZM24.6808 65.5493C24.4661 66.4529 23.4614 67.6294 24.3545 68.3966C24.5863 67.8425 23.968 67.331 24.4404 67.0411C24.7323 67.5441 24.2514 68.7462 24.7753 69.0275C25.0415 67.7402 25.1274 66.2313 24.6808 65.5493ZM26.5357 67.4759C26.5357 67.7828 25.6168 68.4137 26.321 68.516C26.1579 68.0045 26.9651 67.7572 26.5357 67.4759ZM27.197 66.6234C27.3429 65.1145 29.0347 63.6652 29.0862 63.1196C27.4345 64.3861 26.2999 66.2028 25.8916 68.2347C26.4155 67.4077 26.4498 67.0667 27.197 66.6064V66.6234ZM21.263 66.7172C21.0483 66.9218 20.8851 67.8851 21.3403 67.9277C21.2716 67.5526 21.5979 66.8365 21.263 66.7001V66.7172ZM19.7516 66.9133C19.7516 67.169 19.202 67.8425 19.846 67.8254C19.7516 67.5526 20.0693 66.9559 19.7516 66.9133ZM15.5695 63.1878C14.8309 63.1878 14.4789 64.3302 15.2002 64.2193C14.8438 64.6204 14.6087 65.1133 14.5221 65.6412C14.4355 66.1691 14.5009 66.7105 14.7107 67.2031C15.5781 66.1716 15.2088 64.2449 15.5523 63.1878H15.5695ZM19.7516 61.7897C18.1371 62.3865 17.8881 65.302 18.0341 66.9644C19.5197 65.9499 19.6485 64.0488 19.7516 61.7897ZM48.5541 68.0471C48.6915 68.2602 48.6657 68.6183 48.9749 68.678C50.2887 66.9729 52.2381 65.9158 53.7925 64.4154C53.5863 64.3643 53.6379 64.0744 53.5177 63.9465C51.1046 64.7905 50.1857 66.7087 48.5455 68.0471H48.5541ZM28.8543 56.9048C27.5147 56.956 27.2399 58.1921 26.7418 59.1895C25.3764 59.4027 24.2772 61.5851 25.2733 63.3242C25.6598 62.3183 26.0205 61.2782 27.0853 61.0224C25.8058 62.5314 24.6465 64.8758 25.6426 67.2713C26.364 65.2935 27.9097 63.3839 28.4164 61.7044C27.9097 62.0454 27.695 62.7189 26.9823 62.8298C26.6216 62.233 27.9698 60.8008 28.279 61.3805C29.6358 59.9568 31.3447 58.0728 32.7874 57.2799C31.4735 58.985 29.258 60.4939 28.8114 62.6252C30.3142 60.3063 32.4783 59.4879 34.0154 57.0498C33.5002 56.5724 33.3456 57.0498 32.9592 56.8366C35.3551 54.8162 37.3474 51.0822 39.563 48.3116C38.8158 47.3568 38.3006 46.1973 37.6222 45.1743C37.6222 45.9331 37.5792 47.0243 37.9657 47.0072C37.7768 47.7574 37.6222 48.5503 36.8064 48.5929C35.6814 50.5963 34.0068 52.0029 33.2597 54.4155C33.5345 54.5775 33.7922 53.9978 33.8694 54.4155C33.6279 54.8259 33.2834 55.1672 32.8696 55.4062C32.4557 55.6452 31.9866 55.7738 31.5079 55.7795C30.2369 57.0924 29.069 58.1751 27.7895 59.4794C26.9307 60.3319 26.072 61.7641 25.0587 61.8835C26.0205 60.3319 27.3601 59.2236 28.4937 57.8682C28.4937 58.0216 28.3563 58.0387 28.3219 58.158C29.2859 57.4188 30.1982 56.6157 31.0527 55.7539C31.4048 55.447 32.1691 55.1657 32.4783 54.7821C33.0794 54.0404 33.4315 52.9236 34.0154 52.0114C34.5994 51.0993 35.1146 50.153 35.7329 49.2493C35.1576 48.9936 35.5011 47.9365 35.2349 47.4079C34.1442 47.9791 35.3808 50.17 34.2731 50.673C33.7578 50.5537 34.2731 49.5477 33.9038 49.2919C33.3714 49.8205 33.3284 50.8947 32.8561 51.4914C32.0832 51.1504 30.9153 53.2135 31.7741 53.6056C32.1004 53.4863 32.0747 52.9833 32.5641 53.0515C31.3533 54.3473 29.507 54.9526 28.8543 56.9048ZM48.2621 62.5996C47.6352 63.2475 47.2917 64.8502 46.1753 64.4325C45.7803 65.8647 44.2689 66.9047 44.2689 68.2432C45.1277 67.3907 46.8452 66.9388 46.287 65.0463C46.4293 64.9127 46.6133 64.8314 46.8086 64.8159C47.0038 64.8004 47.1985 64.8516 47.3604 64.961C47.8842 63.3583 49.7735 62.4035 49.8937 60.886C49.8347 61.0646 49.7287 61.2242 49.5869 61.3486C49.445 61.473 49.2723 61.5575 49.0865 61.5936C48.8718 61.4061 48.743 61.1333 48.3566 61.0992C48.2192 62.0199 47.2316 62.8042 47.3003 63.4521C47.661 63.2049 47.7039 62.6081 48.2707 62.5996H48.2621ZM21.7009 64.62C21.5635 65.2168 21.0569 65.3958 21.0054 66.0863C21.512 66.0181 21.8126 64.8587 21.7009 64.62ZM24.0453 66.1204C24.6894 65.0036 25.0329 62.4632 24.1484 61.9005C23.9423 62.5058 24.4919 63.6055 23.8478 64.2961C23.8764 63.7959 23.9079 63.2958 23.9423 62.7957C23.1866 63.4691 23.6503 65.4896 24.0453 66.1204ZM31.2932 64.4154C31.0012 64.782 29.9793 65.8732 30.2885 65.8647C30.5117 65.3873 31.5251 64.9269 31.2846 64.441L31.2932 64.4154ZM18.0341 60.3234C16.8919 61.3464 16.703 63.435 16.0761 65.0378C16.8708 64.5665 17.4907 63.8528 17.8436 63.0033C18.1964 62.1537 18.2632 61.2137 18.0341 60.3234ZM16.5742 61.892C15.9759 62.7619 15.7475 63.8311 15.9387 64.8672C16.1019 63.7931 16.3767 62.6422 16.5484 61.892H16.5742ZM21.7267 62.054C21.7696 63.2816 21.1342 63.9295 21.2458 64.8928C21.4347 64.6797 21.4176 64.2279 21.8899 64.3302C21.5292 63.5885 22.0187 62.233 21.7009 62.054H21.7267ZM20.4643 60.349C20.2153 59.8971 20.2497 61.4487 20.1895 62.2927C20.1208 63.2901 19.8632 64.5689 20.1895 64.7053C20.971 63.4606 20.2754 61.7385 20.4386 60.3149L20.4643 60.349ZM43.4703 61.551C43.4131 61.1687 43.2819 60.801 43.0838 60.4683C42.1573 61.5556 41.3216 62.716 40.5849 63.938C41.2976 64.2449 41.3234 62.9576 41.6841 63.4009C41.2461 64.2534 40.1126 64.5944 40.6278 65.7539C41.3964 64.2415 42.3512 62.8297 43.4703 61.551ZM30.4344 63.4862C30.7178 63.094 30.2369 62.7701 30.7951 62.6337C30.7951 62.8298 30.589 62.8298 30.6148 63.077C32.3773 61.4593 34.0541 59.752 35.6385 57.9619C35.2177 57.8596 35.3894 57.2373 34.9257 57.1691C33.0107 59.0446 31.0957 60.9116 29.258 62.8639C30.5461 63.3754 28.2618 64.5689 28.6654 65.0889C29.1978 64.5603 29.8247 62.8383 30.4344 63.4862ZM22.6198 62.1137C22.5339 62.8212 22.1131 64.0062 22.4652 64.6712C22.6691 64.2774 22.7875 63.8456 22.8126 63.4035C22.8378 62.9615 22.7692 62.5192 22.6112 62.1051L22.6198 62.1137ZM49.6447 65.0974C49.6447 65.464 49.3441 65.4129 49.4472 65.8391C50.6065 65.3702 52.0234 64.3643 52.1866 63.2816C51.886 63.7505 51.1561 63.7334 50.7696 64.1341C50.9328 63.6737 51.5168 63.6823 51.7315 63.2816C50.47 63.8575 49.409 64.7921 48.6829 65.967C48.949 65.6235 49.2712 65.3267 49.6361 65.0889L49.6447 65.0974ZM52.1265 64.3387C52.2467 63.938 52.7791 63.9977 52.7877 63.4862C52.3841 63.4436 51.8345 64.1256 52.1093 64.3387H52.1265ZM51.1561 62.7701C50.5979 62.6507 50.5378 62.0796 50.1514 61.8067C49.5502 63.1111 47.5751 64.4325 47.9358 65.7453C48.7344 64.4666 50.1428 63.8442 51.1475 62.7701H51.1561ZM15.7155 60.528C15.5437 61.2526 14.8567 62.233 15.1143 62.9065C15.2603 62.1051 16.0761 61.2697 15.7155 60.528ZM21.0054 60.9969C20.9624 61.6533 20.868 62.3524 21.2029 62.7019C21.3403 62.0028 22.0187 61.1162 21.0139 60.9542L21.0054 60.9969ZM18.661 59.4965C18.9272 60.2978 18.4377 61.3464 18.661 62.3609C19.2277 61.5084 19.7516 61.0906 19.7258 59.863C19.5455 59.6243 18.7812 59.2236 18.6696 59.4538L18.661 59.4965ZM43.0065 59.002C41.8472 59.4709 41.3406 60.6644 40.4303 61.4146C40.3702 61.7044 40.6192 61.7215 40.7051 61.8835C40.5591 62.1989 40.1126 62.1819 40.0524 62.5996C40.1727 62.8298 40.1383 63.1878 40.6278 63.0855C41.2203 61.4572 42.8606 61.0395 43.0151 58.9594L43.0065 59.002ZM17.3471 58.661C16.9692 59.3345 15.9731 60.9372 16.557 61.6277C16.849 60.7326 17.5188 59.4538 17.3557 58.6269L17.3471 58.661ZM23.6074 60.6985C23.2639 60.9457 23.1093 61.7897 23.6847 61.9091C23.7276 61.6107 24.26 60.6729 23.6074 60.6559V60.6985ZM51.0874 60.545C51.0467 60.9342 51.112 61.327 51.2767 61.6825C51.4414 62.0379 51.6993 62.3429 52.0234 62.5655C51.8053 61.8546 51.5056 61.171 51.1303 60.528L51.0874 60.545ZM42.6974 58.5331C42.6054 57.8295 42.6491 57.1149 42.8262 56.4274C41.1087 57.1606 40.4389 59.1043 39.2366 60.4342C39.417 58.3285 41.3663 56.8281 42.5858 55.3192C42.4849 55.1897 42.411 55.0417 42.3682 54.8836C42.3255 54.7256 42.3148 54.5607 42.3367 54.3985C40.6192 55.5323 39.4857 57.3055 38.2577 58.985C38.8674 59.164 38.7729 58.1324 39.1937 58.5843C39.0906 59.0617 38.584 59.0787 38.5239 59.5988C38.9618 60.2552 39.0048 61.2611 39.7691 61.6362C40.584 60.437 41.5872 59.375 42.7403 58.4905L42.6974 58.5331ZM18.1972 59.7266C18.0942 59.343 18.5751 58.4479 17.9654 58.5075C18.0856 59.1384 17.3127 60.2126 17.7163 60.1529C17.7106 59.8346 17.8709 59.6925 18.1972 59.7266ZM26.3983 57.3567C25.9597 57.6257 25.5842 57.9847 25.2968 58.4096C25.0095 58.8345 24.817 59.3156 24.7323 59.8204C25.7628 59.5817 26.1407 58.5161 26.3983 57.3567ZM26.6817 52.6934C25.8547 53.8234 25.1685 55.0486 24.6379 56.3422C25.1961 56.2484 24.9384 57.5016 24.5778 57.3908C24.5778 57.1691 24.7066 56.1631 24.4747 56.632C24.2085 57.5698 24.6465 57.7744 24.6636 58.4564C24.8354 57.3652 26.4327 57.0157 26.3296 56.1461C26.3296 56.2569 26.3296 56.4445 26.1579 56.4359C26.6903 55.7028 26.6216 53.4096 26.6817 52.702V52.6934ZM50.5292 57.9023C50.5292 58.7548 50.3746 59.6499 51.0187 59.8971C51.4481 59.2151 50.907 58.3285 50.5292 57.9023ZM41.9417 54.066C41.9302 53.6106 41.7426 53.1772 41.4179 52.8554C40.4818 54.7309 37.502 56.2228 38.189 58.3967C38.6012 57.2544 40.0439 56.5809 40.0353 55.4897C40.2242 55.4897 40.2328 55.6943 40.4818 55.6687C40.6793 54.5604 41.04 54.6201 41.9503 54.066H41.9417ZM28.4421 56.2655C28.2704 55.9841 28.4421 55.4129 28.2017 55.1913C27.8153 55.8562 26.0892 56.6406 26.9823 57.6806C27.4116 57.118 27.7036 56.4701 28.4421 56.2655ZM48.5197 55.9671C48.1983 56.983 47.6757 57.925 46.9826 58.7377C47.4876 58.4826 47.904 58.0831 48.178 57.5908C48.452 57.0984 48.571 56.5358 48.5197 55.9756V55.9671ZM41.3062 52.216C41.2633 51.6363 40.8854 51.3635 40.9455 50.6901C39.0735 52.2928 37.7853 54.5604 36.1795 56.4359C36.5573 56.6235 36.7463 55.8221 36.9438 56.3337C36.4629 56.6406 36.3426 57.2799 37.0211 57.5442C38.4466 55.7625 39.9408 54.066 41.2976 52.216H41.3062ZM34.8312 56.2058C34.711 56.6065 34.1786 56.5383 34.17 57.0583C34.4877 56.9901 35.252 56.5894 34.8227 56.2058H34.8312ZM28.82 47.9961C28.4421 49.1044 26.5271 50.5537 27.8582 51.2612C26.8363 52.1137 27.0767 54.6201 27.1197 55.8903C27.9784 55.2254 29.0347 53.3328 28.4164 52.0455C28.2618 52.3013 28.0385 52.6082 27.7895 52.3098C28.2876 51.2016 28.82 50.8776 28.8715 49.5051C28.6482 49.5051 28.3133 49.5051 28.279 49.3175C28.5795 49.1385 28.9832 48.2178 28.7942 47.9961H28.82ZM26.7762 51.6449C26.6645 51.2612 26.0119 52.4292 25.8659 51.5937C26.2946 51.1371 26.6277 50.6006 26.8458 50.0152C27.064 49.4299 27.1629 48.8073 27.1368 48.1837C26.9393 48.6611 26.1235 49.2919 26.4327 49.8034C26.4756 49.6415 26.7075 49.4539 26.7418 49.667C25.9775 51.0225 24.5778 53.2902 24.5692 55.4215C25.1531 54.0404 26.0892 53.0004 26.7504 51.6449H26.7762ZM36.3169 54.6372C35.9991 54.9014 35.4581 55.4897 35.7759 55.9585C37.2701 54.7395 38.1203 52.8043 39.5458 51.5085C39.6059 51.2101 39.3569 51.193 39.271 51.0396C39.7948 50.8179 40.3616 50.656 40.5505 50.0592C40.4141 49.641 40.175 49.2631 39.8549 48.9595C38.3951 50.8606 36.4199 53.06 35.5612 55.0378C35.6385 54.8588 36.0678 54.2109 36.2911 54.6372H36.3169ZM30.4087 51.8665C30.1081 52.4121 29.7904 53.3414 28.9832 52.8384C28.9832 53.1367 28.9832 53.4437 28.923 53.742C29.2923 53.9637 29.4383 53.1794 29.5413 53.6312C29.3027 53.8869 29.1267 54.1937 29.0269 54.5278C28.9272 54.862 28.9063 55.2144 28.966 55.5579C29.4687 55.3468 29.9027 55.0015 30.2198 54.5604C29.4211 54.3644 30.8381 53.2561 29.9879 53.3414C30.6577 52.8895 30.6835 51.8068 30.4516 50.7838C30.297 51.1504 29.6787 51.8409 29.9106 52.1052C29.9621 52.0029 30.3572 51.4999 30.3829 51.8665H30.4087ZM29.1377 52.719C29.2923 51.2357 30.9583 50.5878 30.4344 48.8742C29.7303 49.9569 28.6826 51.2271 29.112 52.6934L29.1377 52.719ZM31.3447 51.4914C32.7015 51.6363 32.796 48.6781 32.4954 47.6381C31.8857 48.7549 30.3657 50.4599 31.3018 52.2416L31.3447 51.4914ZM32.5212 41.7728C32.3666 42.1394 32.0832 42.8385 31.7226 42.4804C31.1987 44.1343 27.3258 46.2826 27.6521 49.3005C28.4336 48.2945 29.1206 46.3423 30.1253 46.1291C29.9965 46.6577 29.6444 46.9305 29.9106 47.1692L30.9153 45.413C30.5031 45.234 30.4344 46.2655 30.1425 45.6688C31.3275 43.8103 31.8943 43.9893 32.5212 41.7728ZM29.4469 49.7352C30.0909 48.9509 31.0785 47.7063 30.5804 46.1803C30.1768 47.1862 28.9145 48.1325 29.4469 49.6926V49.7352ZM33.7406 45.9245C33.3675 46.3779 33.1236 46.9224 33.0345 47.5012C32.9454 48.0799 33.0143 48.6719 33.234 49.2152C33.3542 48.7634 33.1223 47.9109 33.4744 47.7233C33.5431 48.1837 33.1996 49.0021 33.5345 49.2323C34.2044 48.465 33.878 46.8367 33.7836 45.8819L33.7406 45.9245ZM36.0678 49.0362C36.3253 48.6776 36.6125 48.3411 36.9266 48.0302C36.9266 47.1095 37.1155 46.0609 36.6174 45.6006C35.7072 46.2826 36.2911 48.8231 36.0678 49.0362ZM32.6328 45.3619C32.2464 46.3934 30.5461 47.604 31.3533 48.8998C31.6625 47.621 33.0794 47.2374 32.6328 45.3619ZM27.4803 46.5639C27.4803 47.0839 26.6216 47.4164 27.0939 47.8938C27.0595 47.263 28.279 46.9902 27.4803 46.5639ZM35.2091 43.8615C34.7662 44.3941 34.4746 45.0344 34.3644 45.7163C34.2542 46.3982 34.3294 47.097 34.5822 47.7404C34.9538 47.173 35.2068 46.5373 35.3263 45.871C35.4458 45.2047 35.4293 44.5213 35.2778 43.8615H35.2091ZM32.5126 44.3304C32.5126 44.5094 32.4611 44.7566 32.6328 44.7907C32.9248 44.2963 32.504 43.7165 32.8819 43.1454C32.2959 43.5839 31.8388 44.1702 31.5579 44.8432C31.2771 45.5163 31.1827 46.2517 31.2846 46.9731C31.7691 46.1286 32.1799 45.2444 32.5126 44.3304ZM34.0841 43.4778C33.3027 43.5716 33.0193 45.0635 33.3284 45.8478C34.1786 45.1829 33.7922 44.1258 34.0841 43.4778ZM36.7463 44.6969C36.5723 44.0557 36.5113 43.3895 36.5659 42.7276C35.5612 42.7276 35.7072 45.4812 36.085 45.5665C36.0678 44.9953 36.5917 45.0635 36.7463 44.7055V44.6969ZM35.2778 41.4404C34.8904 41.7554 34.6194 42.1893 34.5075 42.6738C34.3955 43.1584 34.449 43.6661 34.6595 44.1172C34.9772 43.8274 34.9343 43.1368 35.5182 43.1113C35.5182 42.7021 35.2864 42.7958 35.5182 42.506C35.3207 42.1565 35.1404 42.6765 35.0717 42.327C35.2091 42.2247 35.6213 41.5938 35.2692 41.4489L35.2778 41.4404ZM33.9124 41.3551C33.5775 41.6791 32.7187 42.9493 33.483 43.4437C33.6462 42.8811 34.3503 42.1053 33.9124 41.3636V41.3551ZM36.1108 40.1275C36.1623 40.8351 35.8016 41.9178 36.1108 42.3952C36.6174 41.9774 36.4199 40.3577 36.1108 40.136V40.1275ZM35.252 39.6245C34.9171 40.0593 34.1872 40.8947 34.6681 41.7046C34.9601 41.2528 35.5869 40.3065 35.2091 39.633L35.252 39.6245ZM33.8437 40.298C33.6204 40.6901 33.1395 40.7924 33.1653 41.4659C33.6032 41.4404 34.0755 40.5964 33.8265 40.3065L33.8437 40.298ZM36.2825 37.7405C36.1623 37.4677 36.2825 36.9903 36.0335 36.8198C35.9133 37.2801 35.2434 37.9536 35.6299 38.4566C35.7673 38.1497 35.836 37.749 36.2568 37.7319L36.2825 37.7405Z" fill="#F93600"/>
<path fill-rule="evenodd" clip-rule="evenodd" d="M32.0915 61.1668C31.851 60.9367 32.3834 60.2205 32.7613 60.1523C32.6325 60.5274 32.2546 60.7662 32.0915 61.1668Z" fill="#F93600"/>
<path fill-rule="evenodd" clip-rule="evenodd" d="M28.1582 60.929C28.0122 60.4857 28.7593 59.6844 29.3089 59.4883C28.9748 60.0055 28.5893 60.4882 28.1582 60.929Z" fill="#F93600"/>
<path fill-rule="evenodd" clip-rule="evenodd" d="M6.68945 59.0361C7.38504 56.3252 8.14933 52.3269 10.2447 50.6475C9.08143 52.7939 8.17639 55.0687 7.5482 57.4249C8.67317 56.4019 7.6856 58.823 6.68945 59.0361Z" fill="#F93600"/>
<path fill-rule="evenodd" clip-rule="evenodd" d="M69.8594 50.0171C70.2303 49.3501 70.7921 48.8072 71.4738 48.457C71.0813 49.1074 70.5249 49.6451 69.8594 50.0171Z" fill="#F93600"/>
<path fill-rule="evenodd" clip-rule="evenodd" d="M28.9652 37.7489C28.261 32.2929 33.903 29.6501 33.5681 24.5947C36.7111 26.2145 34.5299 33.0345 32.9069 35.413C31.593 36.0268 30.2447 36.6066 29.5577 37.9279C29.2829 37.9365 29.2486 37.7319 28.9652 37.7489ZM31.4727 33.9723C30.7857 34.2451 30.073 36.1121 30.4079 36.4702C30.7599 36.1575 31.038 35.7714 31.222 35.3396C31.4061 34.9078 31.4918 34.4408 31.4727 33.9723ZM33.3191 31.0653C33.113 32.3525 31.8849 34.1513 32.3143 35.0806C33.3534 34.0149 33.4908 32.6765 33.3191 31.0653ZM30.5796 33.6228C30.3676 33.7637 30.2126 33.9744 30.1419 34.2177C30.0712 34.461 30.0894 34.7214 30.1932 34.9527C30.1674 34.4327 30.9146 33.9553 30.5796 33.6228ZM34.0662 26.4276C33.1181 28.4927 32.5204 30.6992 32.2971 32.9578C32.6321 30.6902 34.3496 28.3713 34.0662 26.4276Z" fill="#F93600"/>
</g>
<defs>
<clipPath id="clip0_347_2319">
<rect width="87" height="93" fill="white"/>
</clipPath>
</defs>
</svg>
